<?xml version="1.0" encoding="utf-8"?>
<!-- Generator: Adobe Illustrator 25.2.3, SVG Export Plug-In . SVG Version: 6.00 Build 0)  -->
<svg version="1.1" id="Layer_2" xmlns="http://www.w3.org/2000/svg" xmlns:xlink="http://www.w3.org/1999/xlink" x="0px" y="0px"
	 viewBox="0 0 793.2 636.3" style="enable-background:new 0 0 793.2 636.3;" xml:space="preserve">
<style type="text/css">
	.st0{fill:#AB0A3D;}
	.st1{fill:#CFD0D9;}
	.st2{fill:#4B5875;}
	.st3{fill:#0A3254;}
	.st4{fill:#FFFFFF;}
</style>
<g id="background_shapes">
	<path class="st0" d="M608.1,398.4c0-25,0-48,0-73l173.6-198.7H604.9l-0.3-40.3c-62.2-31.4-133-40.3-201.9-41.8
		c-73.5-1-148.6,10.8-215.5,41.9v40.9H15.7l168.5,197.1v74.9c29.7,25.4,74.7,51.7,110.8,72.9c0.4,0.2,95.7,125.7,101.7,136.7
		c0,0,7-9.5,17.3-23.5c14.1-19.2,30.1-40.8,43.4-58.8c9.7-13.1,23.6-31.8,40.8-54.7C555.1,439.4,570.7,427.2,608.1,398.4z"/>
	<path class="st1" d="M743.8,143.7H589V95.9l-13.8-5.7c-4.2-1.7-8.7-3.4-13.7-5.1c-5.6-2-10.5-3.6-14.9-4.9
		c-21.6-6.6-46.3-11.6-73.5-15c-24.1-3-49.9-4.5-76.5-4.5h0h-0.5h0c-26.6,0-52.3,1.5-76.5,4.5c-27.2,3.4-52,8.4-73.5,15
		c-4.4,1.3-9.3,2.9-14.9,4.9c-5,1.7-9.5,3.4-13.7,5.1l-13.8,5.7v47.8H51.3l152.3,191.9v50.4l8.8,7.1c10.4,8.4,41.7,28.8,75.9,49.2
		l109.3,137.7l110.3-139.1c27.5-15.3,51.8-31.4,72.3-47.9l8.8-7.1v-47.2L743.8,143.7z"/>
	<path class="st2" d="M396.8,431.3c-25.7-10.2-48-22.2-71.5-34.8c-2.6-1.4-5.2-2.8-7.9-4.2c-23.3-12.5-44-25.5-61.5-38.8V137.8
		c2.7-0.9,6.3-2.1,10.8-3.4c18.4-5.6,39.6-9.9,62.9-12.8c20.9-2.6,44.1-4,67.2-4c22.8,0.1,45,1.4,66.2,4
		c23.3,2.9,44.5,7.2,62.9,12.8c4.4,1.4,8.1,2.5,10.8,3.4v215.6c-17.5,13.2-38.2,26.3-61.5,38.8c-4.5,2.4-9,4.9-13.4,7.3
		C440.5,411,420.5,421.9,396.8,431.3z"/>
	<g>
		<path class="st0" d="M314.4,397.1c-23.4-12.5-45-26-63.9-40.3V132c3-1,6.8-2.2,11.5-3.6c18.8-5.7,40.9-10.3,65.2-13.3
			c21.6-2.7,45.7-4.1,69.8-4.2V68.4c-26.2,0-52.1,1.5-75,4.4c-26.5,3.3-50.6,8.2-71.2,14.5c-4.1,1.2-8.8,2.8-14.4,4.7
			c-4.7,1.6-9.1,3.3-13.3,5l-13.1,5.4v279.7l8.3,6.7c22.8,18.4,151.1,97,178.7,99.3v-50.3C367.2,425.9,341.8,411.8,314.4,397.1z"/>
		<path class="st3" d="M478.2,397.1c23.4-12.5,45-26,63.9-40.3V132c-3-1-6.8-2.2-11.5-3.6c-18.8-5.7-40.9-10.3-65.2-13.3
			c-21.6-2.7-44.7-4.1-68.8-4.2V68.4c26.2,0,51.1,1.5,74,4.4c26.5,3.3,50.6,8.2,71.2,14.5c4.1,1.2,8.8,2.8,14.4,4.7
			c4.7,1.6,9.1,3.3,13.3,5l13.1,5.4v279.7l-8.3,6.7c-22.8,18.4-49.4,35.4-78.2,50.9c-25.7,13.8-81,45.1-99.4,48.4v-50.3
			C426.4,425.9,450.8,411.8,478.2,397.1z"/>
	</g>
	<path class="st2" d="M396.1,61.1c133.3,0,192.3,37.1,192.3,37.1v45.5l155.2-0.3L587.7,322.7v64.6c0,0-31.3,24.2-46,33.7
		c-19.9,12.9-47,27.4-49,28.3l0-0.1c-0.1,0.1-0.2,0.1-0.2,0.1c0,0,0,0,0.1,0l-95.4,128.8l-92.1-125c0,0-32.2-19.1-54.2-33.3
		c-20.6-13.2-46.3-32.4-46.3-32.4v-70.4L52,145.5h151.6V97.2C203.6,97.2,268.8,61.1,396.1,61.1 M396.1,54
		C329.5,54,280,64,250.2,72.4c-32.6,9.2-49.3,18.3-50,18.7l-3.6,2v4.1v41.2H52H36.3l10.4,11.7l150.9,169.4v67.7v3.5l2.8,2.1
		c0.3,0.2,26.1,19.4,46.7,32.6c19.5,12.6,47.1,29.1,53.2,32.7l91.3,123.9l5.7,7.7l5.7-7.7l94.4-127.4c6.7-3.5,30.2-16.3,48.2-27.9
		c14.9-9.6,45.2-33.1,46.5-34.1l2.7-2.1v-3.5v-61.9l154.1-177.2l10.2-11.7l-15.5,0l-148.1,0.2V98.2v-3.9l-3.3-2.1
		c-0.6-0.4-15.9-9.9-47.9-19.4C515.1,64.3,465.8,54,396.1,54L396.1,54z"/>
</g>
<g id="cavaliers_text">
	<path class="st3" d="M729.1,288.5c-0.1-0.1-0.3-0.2-0.4-0.4c-3.8-3.1-7.8-6.2-11.8-9.2c-1-0.9-1.8-1.7-2.5-2.6
		c6.4-8.2,12.2-16,14.1-20.8c1.7-1.8,2.8-4.2,3.2-6.8c0.6-4.4,1.1-8.8,1.6-13.1c1.7-3.7,2.9-5.7,3.6-6.8c2.6-3.6,3-8.3,1.2-12.4
		c-1.8-4-5.6-6.8-10-7.3c-0.3,0-3.6-0.5-13-5.6c-0.1,0-0.2-0.1-0.2-0.1c-9-4.6-16.7-6.8-23.7-6.8c-14.7,0-27.5,6.5-37,18.7
		c-5.1,6.6-8.8,14.2-11,22.7c0-0.1,0-0.1-0.1-0.2c-3.6-7.9-10.9-13.9-21.6-17.8c-7.1-2.6-14.1-4-20.8-4c-2.4,0-6.1,0.3-17,2.6
		c-1.4,0.3-2.7,0.6-3.8,0.9c-3.3-1.3-6.4-2-9.3-2c-3.8,0-6.8,0.8-9.2,1.9c-2.3-0.4-4.7-0.3-6.9,0.6c-0.7,0.3-1.1,0.3-1.2,0.3
		c-0.4,0-2.6-0.1-8.9-2.1c-6.7-2-12.1-3.1-16.5-3.1c-3.2,0-6.6,0.3-10.3,0.9c-0.8,0.1-1.6,0.4-2.3,0.6c-0.8,0.3-1.7,0.7-3.4,1.6
		c-3.1-1.4-6.7-2.2-10.8-2.2c-3.6,0-7.2,0.9-10.7,2.6c-1.6-0.9-3.5-1.5-5.5-1.5c-0.1,0-0.3-0.1-0.5-0.1c-1.8-0.4-3.3-0.5-4.6-0.5
		c-3.5,0-6.8,0.7-9.8,2c-3.3-1.5-5.9-2.1-8.4-2.1c-1.6,0-3.4,0.2-5.5,0.7c-0.1,0-0.2,0.1-0.3,0.1c-2.2,0.1-4.3,0.9-6.1,2
		c-8.1,0-16.4,0-24.8,0c-1.8-1.1-3.9-1.7-6.1-1.8c-0.1,0-0.4,0-0.8-0.1c-1.9-0.3-3.3-0.5-4.6-0.5c0,0,0,0,0,0
		c-2.4,0-4.9,0.5-8.1,1.8c-3.3-1.6-6.7-2.4-10.1-2.4c-2.4,0-5,0.6-9.3,2c-1,0.3-1.9,0.8-2.7,1.3c-7.4,0.1-14.8,0.2-22.2,0.2
		c-1.5-1.2-3.3-2-5.2-2.4c-3.3-0.7-6.3-1-9.1-1c-0.7,0-1.4,0.1-2,0.2c-1.9,0.3-3.9,1-6.5,2.4c-4.4-1.8-6.9-2.5-9.5-2.5
		c0,0-0.1,0-0.1,0c-1.6,0-3.2,0.3-5.4,0.8c-0.1,0-0.2,0-0.3,0.1c-1.9,0.2-3.6,0.8-5.2,1.8c-1.4-1.2-3-2.1-4.9-2.6
		c-2.2-0.6-4.6-0.6-6.7,0c-1.5-0.3-2.8-0.4-4.1-0.4c-3.1,0-5.7,1.1-8.3,2.7c-3.3-1.7-6.4-2.6-9.5-2.5c-4.1,0-8.2,1.5-12.2,4.3
		c-0.3,0.2-0.5,0.4-0.8,0.6c-4.4,0.1-8.7,0.1-13,0.2c-2.3-2.3-6.3-4.7-12.7-4.7c-3.3,0-6.7,0.9-10.4,2.7c-3.4-1.8-6.3-2.6-9.2-2.5
		c-1.1,0-2.3,0.2-3.4,0.5c-2.5,0.7-4.9,1.5-7.4,2.2c-1.2,0.3-2.3,0.9-3.3,1.5c-1.3-0.9-2.8-1.6-4.5-2c-3.5-0.8-6.6-1.1-9.5-1.1
		c-0.8,0-1.6,0.1-2.4,0.3c-1.9,0.4-3.8,1.2-6.3,2.6c-3.6-1.7-6.5-2.6-9.6-2.6c-1.8,0-3.6,0.4-5.9,1.1c0,0-0.1,0-0.1,0
		c-2.7,0.4-5.1,1.6-7,3.5c-1.2,0.4-1.5,1-1.9,1.5c-5.1,7.3-8.9,12.7-11.8,16.5c-0.2-2.8-0.3-5-0.5-6.7c-0.5-6.9-3.2-14-8.1-21
		c-5.1-7.3-10.4-12-16.4-14.5c0,0-0.1,0-0.1-0.1c-8.4-3.3-16.9-5-25.4-5c-6.5,0-9.1,0.2-10.5,0.4c-0.1,0-0.1,0-0.2,0
		c-11,1.5-21,8.3-29.9,20c-8.5,11.2-12.8,23.2-12.8,35.5v31.6c-0.2,0.5-0.5,1.4-1,2.8c-2.1,5.3-2.7,7.4-2.7,9.9
		c0,2.7,0.7,5.5,2.8,10.6c0.5,1.2,0.8,2,1,2.5v36.4c0,0.8,0.1,1.5,0.2,2.3l2,10.5c4.7,25.8,22.6,39.9,50.4,39.9
		c12.4,0,22.6-2.4,30.4-7.2c24.7-8.2,115.9-34.6,268.6-34.6c116.3,0,212.4,20.9,238.3,27.1c1.6,1.4,3.3,2.4,5.1,2.9
		c2.8,0.9,5.8,0.7,8.5-0.4c0.1,0,0.1,0,0.2,0c1,0.3,3.9,1.3,10.6,4.7c12.2,6.2,17.1,7.4,21.1,7.4h8.7c16.6,0,30-5.4,39.8-16.1
		c10.3-10.9,15.5-26.4,15.5-46.2C748.2,315,741.8,299.7,729.1,288.5z"/>
	<g>
		<path class="st4" d="M241.4,341.5c-11.2-13.8-16.9-28.8-16.8-44.7l0-6.3c0-1.8-0.8-3.4-2.3-4.5c-2.7-2-6.7-6.8-10.4-18.7
			c-2.8-8.8-4.2-17.3-4.2-25c0-1.6,0.4-4.5,2-9.1c0.5-1.5,0.4-3.1-0.4-4.5c-0.8-1.4-2.1-2.4-3.6-2.7c-2.9-0.7-5.5-0.9-7.9-0.9
			c-0.4,0-0.7,0-1,0.1c-1.6,0.3-3.3,1.2-6,3c-0.5,0.3-0.8,0.5-1.1,0.7c-0.5-0.2-1.3-0.5-2.3-1c-3.9-1.9-5.9-2.5-7.7-2.5
			c-1.1,0-2.3,0.3-3.9,0.8c-0.5,0.2-0.8,0.2-0.9,0.3c-1.8,0.1-3.3,1.1-4.3,2.6c-1,1.6-1.1,3.6-0.2,5.3c1.4,2.9,2.1,5.7,2.1,8.7
			c0,8.3-1.5,17.1-4.4,27c-3.2,10.4-7.2,18.1-11.7,22.9c-1.2,1.3-1.7,3-1.4,4.7c0.3,2,0.5,4.2,0.5,6.5c0,14.8-5.7,32-17.3,52.6
			c-1.5,2.6-0.6,5.9,1.9,7.4c1.8,1.1,3.9,1.6,6.3,1.6c1,0,2.1-0.1,3.3-0.3c1.3-0.2,2.6-0.5,3.8-0.7c0.9-0.2,1.7-0.5,2.4-1.1
			c0.4-0.3,0.8-0.7,3-2.9c2.8,1.5,5.9,2.1,9.2,1.5c2.9-0.5,5-1.2,6.6-2.3c1.5-1,2.4-2.7,2.4-4.6l0-3c0-1.7-0.5-3.3-1.6-5
			c-0.5-7.6-0.2-13.5,0.9-17.7c3.3-12.7,9.7-14.7,14.2-15.2c4.5-0.4,7.6,1.1,10.1,5.1c2.6,4,3.9,9.5,3.9,16.3c0,0.7-0.4,3.7-1.5,14
			c-0.2,1.7,0.4,3.4,1.6,4.6c1.2,1.2,2.9,1.8,4.6,1.5c2.3-0.3,4.6-0.6,6.9-0.9c2.2-0.3,3.9-1.7,6.1-4c3.5,1.7,6.6,2.4,9.5,2
			c3.5-0.4,6.6-1.9,9.2-4.4C243,346.9,243.2,343.7,241.4,341.5z M193.6,291.5c-1.6-0.4-2.9-0.6-4.1-0.5c-0.9,0.1-1.8,0.3-2.8,0.8
			c0.5-2.9,1.4-6.4,2.7-10.2c0.2-0.7,0.5-1.4,0.7-2c0.3,0.7,0.5,1.4,0.7,2C192.5,286.2,193.3,289.3,193.6,291.5z"/>
		<path class="st4" d="M143.1,318.6h-3.2c-2.3,0-4.4,1.2-7,3.4c-4.1-4.8-8.7-7.3-13.8-7.3c-4.1,0-6.3,1.8-7.6,3.4
			c-1.1,1.4-1.5,3.3-0.9,5c3.1,9.8,3.5,13.2,3.5,14.2c0,8.3-1.5,16-12.2,16c-2.5,0-9.1,0-11.7-16.2V309c1.7-7,2.5-10.2,2.9-11.7
			c0.7-0.9,1-2,1-3.2c0-1.1-0.2-2.3-2.1-8.4c-1.3-4-1.7-5.7-1.8-6.4v-24.7c1.6-17.9,9.1-17.9,11.9-17.9c3.3,0,5.9,1.2,8.3,3.8
			c2.5,2.7,3.7,6.2,3.7,10.7c0,2.4-0.6,7.3-3.5,17.1c-0.5,1.7-0.2,3.5,0.9,4.8s2.7,2.2,4.4,2.2h5.4c2.4,0,4.5-1.3,9.2-5.6
			c1-0.9,1.7-1.5,2.2-2c0.4,0.2,1,0.5,1.6,0.9c4,2.2,5.9,2.9,7.7,2.9c4.7,0,7.2-3.4,7.2-6.8c0-0.7-0.1-1.5-0.4-2.1
			c-1-2.3-1.8-4.2-2.3-5.7c-0.5-10.9-0.9-18.1-1.2-21.9c-0.4-5.7-2.7-11.6-6.9-17.6c-4.3-6.2-8.6-10.1-13.4-12
			c-7.6-3-15.2-4.5-22.8-4.5c-4.5,0-7.7,0.1-9.7,0.4c-9.1,1.3-17.6,7.1-25.3,17.3c-7.6,10-11.4,20.5-11.4,31.3v32.6
			c-0.1,0.3-0.4,1.5-1.5,4.3c-2,5.2-2.2,6.3-2.2,7.4c0,1.4,0.4,3.3,2.3,8c1,2.5,1.3,3.6,1.5,4v37.5c0,0.3,0,0.7,0.1,1l2,10.5
			c4.1,22.4,19.1,34.2,43.5,34.2c14.5,0,25.4-3.6,32.3-10.5c8.1-8,12-20.7,12-39c0,0,0-1,1-3.7c1.2-3.1,1.7-5.5,1.7-7.5v-4.5
			C148.6,321.1,146.1,318.6,143.1,318.6z"/>
		<path class="st4" d="M724.5,293.8c-0.1-0.1-0.1-0.1-0.2-0.2c-3.8-3.1-7.8-6.2-11.8-9.2c-3.8-3.4-6.1-6.8-6.8-10
			c-0.3-1.5-1.3-2.8-2.6-3.6c-1.3-0.8-2.9-0.9-4.4-0.5c-1.4,0.5-2.9,0.7-4.5,0.7c-3.8,0-6.9-1.5-9.6-4.9c-3-3.6-4.4-8.1-4.4-13.9
			c0-15.7,7.1-17.8,14-17.8c5.1,0,9.5,2,13.4,6.1c3.2,4.1,5.6,7.4,7.4,9.8c1.3,1.8,3.6,2.7,5.8,2.2c2.2-0.5,3.8-2.4,4.1-4.6
			c0.6-4.7,1.2-9.4,1.7-14c1.7-3.9,3.3-7,4.8-9.1c1.1-1.6,1.3-3.7,0.5-5.4c-0.8-1.8-2.5-3-4.4-3.2c-1.7-0.2-6.1-1.3-15.6-6.4
			c0,0-0.1,0-0.1-0.1c-8-4.1-14.7-6-20.6-6c-12.6,0-23.2,5.4-31.4,16c-7.9,10.2-11.9,23.1-11.9,38.3c0,7.9,1.1,14.7,3.4,20.2
			c1.7,4.4,4.9,9.5,9.7,15.7c0.2,0.3,0.4,0.5,0.7,0.7c3.7,3.3,7.4,6.6,11.1,9.8c4.8,4.7,6.2,8,6.5,9.9c0.3,1.8,1.4,3.3,3,4.1
			s3.5,0.7,5.1-0.1c0,0,0.6-0.3,2.3-0.3c4.6,0,8.5,2,11.9,6c3.6,4.3,5.4,9.7,5.4,16.3c0,13.4-4.9,19.1-16.4,19.1
			c-12.9,0-24-7.2-33.9-22.1c-1.3-1.9-3.6-2.8-5.8-2.3c-2.2,0.5-3.9,2.3-4.2,4.6l-1,7c-0.1,0.8-0.1,1.6,0.2,2.3
			c1,3.4,1.9,6.2,2.6,8.5c-0.8,0.8-1.7,1.7-2.6,2.5c-0.2,0.1-0.3,0.3-0.4,0.5c-2.9,3.4-4.3,6.5-4.3,9.6c0,5.7,3.4,7.3,4.8,7.8
			c1.5,0.5,3,0.3,4.4-0.5c0.2-0.1,1.1-0.2,2.9-0.2c0.3,0,2.9,0.3,13,5.5c11.6,5.9,15.6,6.7,17.9,6.7h8.7c14.6,0,26.3-4.7,34.7-13.8
			c9-9.5,13.6-23.5,13.6-41.5C741.2,317.1,735.6,303.6,724.5,293.8z"/>
		<path class="st4" d="M310.8,223.3c-1.5-0.4-3-0.1-4.2,0.6c-0.1,0-0.2,0-0.3-0.1c-1.8-0.5-3.2-0.7-4.3-0.7c-1.9,0-3.7,0.8-7.5,3.5
			c-0.3,0.2-0.6,0.4-0.8,0.6l-0.7-0.5c-3.4-2.4-6.1-3.4-8.8-3.4c-2.7,0-5.5,1.1-8.4,3.2c-2.3,1.7-2.9,4.8-1.5,7.2
			c1.4,2.4,2.1,5.8,2.1,9.9c0,6.3-1.3,12.1-3.8,17.8c-1,2-2.1,4.1-3.5,6.4c0,0-0.1,0.1-0.1,0.1l-0.6,1.1c-0.5,0.8-0.7,1.8-0.7,2.7
			c0.1,5.2,0.3,9.4,0.7,12.5c-0.9,3.6-2,7.5-3.4,11.8c-0.5,1.4-0.9,2.7-1.3,3.8c-2.7-6.2-4-12.6-4-19.1c0-2.7,0.2-5.4,0.7-8.3
			c0.3-1.6-0.2-3.2-1.2-4.5c-4.8-5.6-7.2-13.2-7.1-22.5c0-3.8,0.9-8.1,2.6-12.9c0.6-1.6,0.4-3.4-0.6-4.9c-1.2-1.8-3.7-4-8.7-3.9
			c-3.1,0-6.5,1.3-10.5,4c-3.8-2.7-6.6-3.8-9-3.7c-0.5,0-1,0.1-1.5,0.2c-2.5,0.8-4.9,1.5-7.4,2.3c-1.6,0.5-2.8,1.6-3.4,3.1
			s-0.6,3.2,0.2,4.6c8.8,17.1,13.7,30,15,39.5l0,12c0,1,0.3,2.1,0.8,2.9c2.9,4.6,5.5,8,7.9,10.3c6.3,12.9,9.4,24.3,9.3,34.8
			c0,0.9-0.1,3.5-0.8,10.4c-0.2,1.9,0.6,3.7,2.1,4.8l1,0.8c1,0.8,2.2,1.2,3.4,1.2c0.2,0,0.4,0,0.6,0c1.5-0.2,3.1-0.3,4.6-0.5
			c1.8-0.2,3.5-1.1,6.6-3.7c0,0,0,0,0.1-0.1c2.8,1.8,5.9,2.6,9.1,2.3c4.6-0.4,6.9-2.6,8.1-4.3c0.6-1,0.9-2.1,0.8-3.3
			c-0.8-12.9-0.3-16.6-0.1-17.6c3.2-13.7,4.5-18,5-19.4c2.4-6.7,6-12.6,10.7-17.4c1-1,1.6-2.4,1.6-3.8l0-10.1c0.2-2.5,0.6-4.8,1-6.9
			c1.3-4.2,2.3-7,2.9-8.6c0,0,0-0.1,0.1-0.1c3.8-10.6,7.3-18,10.3-21.9c0.7-1,1.1-2.1,1.1-3.3l0-3.5
			C314.9,226.1,313.2,223.9,310.8,223.3z"/>
		<path class="st4" d="M390.5,332.6c-11.5-14.1-17-28-17-42.5l0-5.8c0-1.8-0.8-3.4-2.3-4.5c-4-2.9-7.5-8.8-10.5-17.5
			c-2.8-8.1-4.2-15.7-4.2-22.5c0-1.4,0.3-3.8,1.9-7.9c0.6-1.5,0.5-3.2-0.3-4.6c-0.8-1.4-2.1-2.4-3.7-2.8c-2.9-0.6-5.5-0.9-7.8-0.9
			c-0.3,0-0.6,0-0.9,0.1c-1.5,0.3-3.2,1-6,2.6c-0.5,0.3-1,0.6-1.3,0.7c-0.5-0.2-1.4-0.5-2.5-1c-4.3-1.9-6.1-2.3-7.5-2.3
			c-1,0-2.2,0.2-3.7,0.6c-0.6,0.2-0.9,0.2-1,0.2c-1.8,0.1-3.5,1.1-4.5,2.7c-1,1.7-1,3.7-0.1,5.4c1.4,2.4,2,4.8,2,7.3
			c0,7.2-1.5,15.1-4.4,23.5c-3.2,8.9-7,15.4-11.5,19.3c-1.5,1.3-2.1,3.2-1.8,5.1c0.3,1.7,0.5,3.5,0.5,5.5c0,13-5.6,27.4-17.2,44
			c-0.9,1.2-1.2,2.8-0.9,4.3c0.3,1.5,1.2,2.8,2.5,3.6c2,1.2,4.6,1.9,7.5,1.9c0.5,0,1,0,1.6-0.1l3.9-0.3c0.9-0.1,1.7-0.3,2.4-0.8
			c0.4-0.3,0.8-0.5,3.1-2.4c2.7,1.7,5.8,2.4,9.1,2.2c2.9-0.2,5-0.6,6.6-1.4c1.9-0.9,3-2.8,3-4.9l0-2.6c0-1.6-0.5-3.3-1.6-4.9
			c-0.5-6.5-0.2-11.5,0.9-14.9c2.5-8.1,6.7-11.8,13.9-12c4.7-0.1,8,1.6,10.6,5.5c2.6,3.8,3.9,8.8,3.9,14.8c0,0.5-0.3,2.8-1.5,12.6
			c-0.2,1.6,0.3,3.2,1.4,4.4c1.1,1.2,2.6,1.8,4.2,1.8c2.3-0.1,4.6-0.1,7-0.2c2.2-0.1,4-1.2,6.2-3.1c3.5,1.9,6.5,2.8,9.3,2.8
			c0,0,0.1,0,0.1,0c3.6,0,6.7-1.1,9.4-3.3c1.1-0.9,1.9-2.2,2-3.7C391.8,335.2,391.4,333.7,390.5,332.6z M335.6,283.4
			c0.5-2.5,1.4-5.3,2.6-8.4c0.2-0.6,0.5-1.2,0.7-1.8c0.3,0.8,0.6,1.5,0.9,2.2c1.4,3.6,2.1,6.1,2.5,7.9c-1.4-0.4-2.5-0.6-3.5-0.5
			C337.8,282.7,336.8,282.9,335.6,283.4z"/>
		<path class="st4" d="M454.7,334.9c0-1.7-0.8-3.3-2.1-4.3c0.2-0.4,0.3-0.9,0.3-1.3c0.2-1.3,0.2-2.6,0.2-3.9c0-4.6-1.1-8.8-3.2-12.6
			c-0.8-1.4-2.2-2.4-3.8-2.7c-1.6-0.3-3.3,0.1-4.5,1.1c-3,2.5-5.4,4.6-7.3,6.3c-1,0.3-3.1,0.8-7.1,0.7c-4.9-0.1-6.5-1-6.8-1.2
			c-0.2-0.5-0.8-2.6-0.8-8.9c0-10.1,0.9-14.1,1.5-15.6c0.1-0.1,0.1-0.3,0.1-0.4c0.1-0.2,0.4-0.8,1.2-2.5c1.6-3,2.1-4.6,2.1-6.2
			c0-1.7-0.6-3.3-2-5.7c-0.6-1-0.8-1.4-0.9-1.6c-1.4-4.6-2.1-10.4-2.1-17.2c0-5.7,0.6-11.6,1.7-17.3c0-0.1,0.2-0.9,1.3-4
			c1-2.9,1.4-4.7,1.4-6.2c0-1.4-0.2-2.5-0.7-3.6c-0.9-1.9-2.8-3.1-4.9-3.1c0,0-0.4,0-1.6-0.2c-1.5-0.3-2.6-0.4-3.5-0.4c0,0,0,0,0,0
			c-1.5,0-3.8,0.4-8.5,2.7c-0.1-0.1-0.3-0.2-0.4-0.3c-3-2-6.2-3-9.3-3c-1.6,0-3.7,0.5-7.2,1.7c-1.4,0.5-2.6,1.6-3.2,3s-0.6,3,0,4.4
			c3.2,7.4,4.8,16.1,4.8,25.7c0,3.1-0.6,8.7-1.8,16.4c-0.1,0.2-0.3,0.9-1.1,2.6c-1,2.3-1.5,3.6-1.7,4.7c0,0.2-0.1,0.4-0.1,0.7
			c0,0,0,0,0,0c0,0,0,0,0,0c0,0.1,0,0.2,0,0.3c0,0,0,0,0,0c0,0,0,0,0,0c0,1,0.2,1.9,0.7,2.7c0.3,1,0.8,3.1,1.8,7.6
			c1.5,6.5,2.2,11.5,2.2,14.6c0,10.4-1.6,19.5-4.8,26.9c-0.6,1.4-0.6,3.1,0.1,4.5c0.7,1.4,1.9,2.5,3.4,2.9c3.4,1,5.5,1.4,7,1.4
			c0,0,0,0,0,0c2.3,0,4.4-0.3,6.3-0.8c0.8-0.2,1.5-0.6,2-1.1c0.1-0.1,0.5-0.3,1.3-0.9c1,0.3,2.2,0.8,3.8,1.3
			c5.2,1.7,8.9,2.6,11.9,2.6c0.1,0,0.3,0,0.4,0c3.5,0,7.7-0.7,12.9-2.2c6.1-1.7,8-1.7,8.4-1.7c1.4,0,2.9,0.5,4.5,1.3
			c1.7,0.8,3.7,0.8,5.4-0.2c1.6-1,2.6-2.8,2.6-4.7L454.7,334.9z M403.6,341.6c0.1-0.1,0.2-0.2,0.4-0.3
			C403.9,341.3,403.8,341.5,403.6,341.6z"/>
		<path class="st4" d="M488.8,330.5c-1.5-4.3-1.7-5.4-1.7-5.6c0-0.1,0-0.2-0.1-0.3c-0.8-4.2-1.2-9.4-1.2-15.6
			c0-6.5,0.9-12.7,2.7-18.6c0.1-0.1,0.2-0.3,0.3-0.5c0.9-1.2,2-3.2,2-5.4c0-1.5-0.5-2.9-2.3-6.7c-1.2-2.4-1.4-3.3-1.5-3.5
			c0-0.1,0-0.2,0-0.3c-0.8-4-1.2-9.4-1.2-15.9c0-5.4,0.4-10,1.1-13.8c0.2-0.8,0.9-3,1.9-6.7c1.2-3.9,1.5-6.6,1-8.9
			c-0.5-2.5-2.7-4.3-5.3-4.4c0,0-0.4,0-1.3-0.2c-1.4-0.3-2.5-0.4-3.4-0.4c0,0-0.1,0-0.1,0c-3,0-5.8,0.7-8.2,2.2
			c-0.3,0.2-0.6,0.4-0.9,0.6l-0.3,0.3c-4.6-2.6-6.9-3.2-8.7-3.2c-1.1,0-2.4,0.2-3.9,0.5c-0.7,0.2-1.1,0.2-1.2,0.2
			c-2.1,0-4,1.2-4.9,3.1c0,0,0,0,0,0.1c-1.4,1.6-1.7,3.9-0.8,5.8c3.1,6.8,4.8,15.2,4.8,24.9c0,5.9-0.4,11-1.2,15.1
			c0,0.2-0.3,1-1.4,3.7c-1.7,4-2,5.2-2,6.4c0,0,0,0,0,0c0,1.1,0.3,2.1,0.9,3c0.2,0.4,0.4,1.1,0.9,2.3c1.1,2.9,1.5,4.3,1.6,4.9
			c0,0,0,0.1,0,0.1c0.8,3.7,1.2,8.8,1.3,15.1c0,8.8-0.6,12.8-1.1,14.7c0,0.1-0.1,0.2-0.1,0.3c-0.1,0.6-0.5,2.2-1.8,6.3
			c-1.3,4.4-1.8,6.9-1.6,8.9c0.3,2.2,1.8,4,4,4.6c2.1,0.6,4.1,0.9,6.1,1c2.3,0.1,5.3-0.7,9.7-2.5c0.4,0.2,1,0.6,1.8,1
			c3.8,2.3,5.4,3,7,3.1c0.2,0,0.4,0,0.6,0c2,0,4.2-0.6,6.4-1.7c2.1-0.9,4.2-3.1,4.2-6.8c0,0,0,0,0,0
			C490.9,337.1,490.8,336.3,488.8,330.5z"/>
		<path class="st4" d="M565.4,340.3c-0.6-0.6-1.1-1.3-1.7-1.9c0.2-0.6,0.4-1.4,0.7-2.5c1-3.7,0.2-8.7-2.6-16.4
			c-0.6-1.6-1.9-2.8-3.4-3.3c-1.6-0.5-3.3-0.3-4.7,0.6c-3.2,2.1-5.8,3.8-7.8,5.1l-1.4,0.9c-2.5,0.7-5.5,0.9-8.7,0.6
			c-4.7-0.4-7.9-1.5-8.6-3c-0.1-0.4-0.8-2.7-0.8-11.8c0-8.5,0.4-10.6,0.5-11c0.3-0.8,1.2-2.8,7.7-2.5c3.4,0.2,6.1,0.8,8.1,1.7
			c1.7,1.3,2.7,1.9,3.6,2.3c0.5,0.2,1.1,0.4,1.7,0.4l2.5,0.2c1.7,0.1,3.4-0.6,4.5-1.8c1.1-1.3,1.6-3,1.3-4.7c-0.2-1.2-0.8-2.8-2-5.2
			c-0.2-0.4-0.3-0.8-0.5-1c0.1-0.3,0.3-0.6,0.5-0.9c1.4-2.5,2.1-4.5,2.3-6.2c0.3-1.9-0.5-3.9-2.1-5.1s-3.6-1.5-5.4-0.8
			c-5.6,2.3-7.5,2.8-8,3c-0.4,0-0.7,0.1-1.1,0.2c-0.2,0-1.4,0.2-4.9,0c-5.1-0.3-7.6-1.4-8.1-2.3c-0.1-0.5-0.7-2.9-0.8-11.9
			c0-8.4,0.5-10.7,0.7-11.1c0.8-1.4,3.8-2.1,8.1-2c6.9,0.2,12.4,2.6,16.9,7.5c1.8,1.9,4.6,2.4,6.9,1c1.9-0.5,3.4-1.9,3.9-3.9
			c1-3.5,1.4-6.3,1.4-8.5c0-1.2-0.2-2.7-1.4-6.2c-0.3-0.9-0.5-1.5-0.6-2c1.4-1.8,2.1-3.2,2.5-4.6c0.5-2-0.2-4.1-1.8-5.4
			c-1.6-1.3-3.7-1.7-5.7-0.9c-1.3,0.5-2.6,0.8-3.8,0.8c-1.5,0-4.5-0.5-10.8-2.5c-6.1-1.9-10.9-2.9-14.6-2.9c-2.8,0-5.8,0.3-9,0.9
			c-0.4,0.1-0.7,0.2-1.1,0.3c-0.7,0.3-1.9,0.9-5.4,3c-0.3,0.2-0.5,0.3-0.8,0.5c-0.4-0.4-0.8-0.8-1.3-1.2c-2.4-1.6-5.5-2.4-9.3-2.4
			c-2.5,0-5.2,0.7-7.8,2c-1.8,1-2.9,2.8-2.9,4.9l0,2.7c0,1.3,0.4,2.5,1.3,3.5c0.2,0.4,1.2,2.4,2.5,9.9c0,0,0,0.1,0,0.1
			c1.5,7.3,1.8,10.9,1.8,12.6c0,3.7-0.6,8.8-1.9,14.9c0,0.1-0.2,0.8-1.2,3.2c-1.3,3.2-1.8,4.6-1.8,5.9c0,1.7,0.3,5,2.7,13.8
			c1.5,5.6,2.3,10,2.3,13.3c0,1.7-0.3,5.6-1.9,15c-0.2,1.1-1,4.3-3.8,12.5c-0.6,1.8-0.3,3.9,1,5.4c2.2,2.6,5.4,4.1,9.5,4.4
			c2.6,0.2,5.6-0.5,9-2.1c0.5-0.2,0.9-0.4,1.2-0.6c1.1,0.7,2.6,1.5,4.4,2.6c0.3,0.2,0.5,0.3,0.8,0.4c3.2,1.3,7.1,2.1,11.7,2.5
			c0.8,0.1,1.6,0.1,2.5,0.1c3.2,0,7.1-0.5,11.8-1.4c6.5-1.3,9.4-1.2,10.5-1.1c0.5,0.1,2.2,0.3,7.2,1.4c2.3,0.5,4.7-0.5,5.9-2.5
			C567.2,344.7,567,342.1,565.4,340.3z"/>
		<path class="st4" d="M653,357c-5.4-8.9-8.5-20.9-9.3-35.6c-0.1-1.6-0.9-3.1-2.2-4.1c-1.4-1.1-2.5-2.8-3.2-5.1l-1.1-7.2
			c-0.9-6.1-3.6-9.8-6.5-12.1c3.6-2.2,6.2-5.3,7.6-9.2c0.6-1.5,1.3-4.3,2.2-12.6c0-0.1,0.1-0.2,0.2-0.4c1-1.9,1.4-3.3,1.4-4.7
			c0-1.5-0.4-3.1-1.4-4.9c-0.1-0.2-0.2-0.4-0.2-0.5l-1-10.1c0-0.3-0.1-0.6-0.2-0.9c-0.8-3-1.7-5.6-2.5-7.7c0,0,0-0.1,0-0.1
			c-2.8-6.4-8.7-11.4-17.6-14.8c-6.3-2.4-12.6-3.7-18.5-3.8c-1.8,0-5.2,0.2-15.4,2.6c-2.5,0.6-4.4,1-5.7,1.4
			c-0.1-0.1-0.3-0.1-0.5-0.2c-3.1-1.5-5.9-2.2-8.4-2.3c-4.9-0.1-7.9,2.1-9.6,3.9c-1.5,1.7-1.9,4.1-0.8,6.2
			c3.5,6.9,5.3,16.2,5.3,27.5c0,5.3-0.7,10.9-2.2,16.7c-0.3,0.6-0.8,1.6-1.5,3.2c-1.6,3.4-2.1,4.8-2.1,6.3c0,1.3,0.4,2.8,2.4,8
			c1.6,4,2.1,5.5,2.2,5.9c0.8,4.2,1.2,8.5,1.2,12.8c0,5.1-1,12.3-2.9,21.2c-0.1,0.2-0.3,0.8-1.1,2.5c-1.3,2.8-1.8,4.3-1.8,5.7l0,2.2
			c0,2.2,1.3,4.1,3.2,5c3.2,1.4,5.5,2.2,7.4,2.5c2.3,0.3,5.2-0.3,9.4-1.8c3.9,2.5,7,3.9,9.9,4.3c3.2,0.4,6.4-0.4,9.3-2.4
			c2.4-1.7,3.1-4.9,1.6-7.4c-1.3-2.1-3.1-6.8-4.5-17.3c-0.9-6.5-1.4-12.6-1.4-18c0-7.8,0.7-9.7,0.8-9.9c0.8-1.6,5-1.4,6.3-1.3
			c5.9,0.5,7.4,2.8,8.1,5c0.2,0.6,0.6,2.4,0.2,6.7c-0.6,6.5-0.6,6.7-0.6,7c0,0.7,0.1,1.3,0.3,1.9c1.4,3.6,2.6,6.5,3.9,8.7
			c0.9,2.1,1.4,4.8,1.4,7.8c0,2.4-0.3,4.3-0.9,5.8l-1.5,3c-0.9,1.9-0.7,4.1,0.6,5.8c5.2,6.8,12.9,11,22.7,12.7
			c2.1,0.4,4.5,0.5,7.4,0.5c1.5,0,3.2,0,5-0.1c1.9-0.1,3.7-1.2,4.6-2.9C654,360.7,654,358.6,653,357z M597.9,253.6
			c0.6-0.6,1.8-1.4,4.2-1.4c0.1,0,0.2,0,0.4,0c4.7,0.1,7.4,1.6,7.4,8.4c0,0.5,0,1.1-0.1,1.7l-0.8,1.4c-0.9,1.6-0.9,3.5-0.1,5.1
			c0,0.4,0.1,0.8,0.2,1.2c0.5,2.2,0.8,4.2,0.8,6c0,1.7-0.2,3.9-1.3,5c-1,0.9-3,1.3-5.8,1c-2.4-0.2-8-0.6-8-15.7
			C594.7,260.1,595.8,255.5,597.9,253.6z"/>
	</g>
	<g>
		<path class="st0" d="M237.1,344.9c-1.7,1.6-3.7,2.6-6,2.8c-2.5,0.3-5.6-0.8-9.5-3.2c-0.5,0.1-1.5,0.9-3.1,2.6
			c-1.6,1.7-2.6,2.5-3.1,2.6c-2.3,0.3-4.6,0.6-7,0.9c1.1-9.1,1.6-14,1.6-14.6c0-7.9-1.6-14.4-4.8-19.4c-3.6-5.7-8.7-8.3-15.3-7.6
			c-9.5,0.9-15.9,7.3-19,19.2c-1.3,4.9-1.6,11.7-1,20.2c0,0.5,0.3,1.1,0.8,1.8c0.5,0.8,0.8,1.5,0.8,2.1c0,1,0,2,0,3
			c-0.9,0.6-2.4,1.1-4.4,1.4c-2.3,0.4-4.4,0-6.3-1.3c-1.9-1.2-2.7-1.9-2.6-1.9c-0.4,0.1-1.3,0.9-2.7,2.6c-1.8,1.9-2.8,2.9-3.1,3.1
			c-1.3,0.2-2.6,0.5-3.9,0.7c-2.4,0.4-4.4,0.2-5.8-0.6c11.9-21.2,18-39.1,18-55.3c0-2.6-0.2-5.1-0.6-7.4c5.2-5.5,9.5-13.8,13-25.1
			c3.1-10.3,4.7-19.8,4.7-28.6c0-3.8-0.9-7.5-2.7-11.1c0.4,0,1.1-0.2,2.1-0.5c1-0.3,1.8-0.5,2.3-0.5c0.8,0,2.5,0.6,5.2,1.9
			c2.7,1.3,4.4,1.9,5.2,1.9c0.4,0,1.6-0.7,3.6-2c2-1.3,3.4-2,4.2-2.2c1.9,0,4.1,0.2,6.6,0.8c-1.6,4.3-2.3,8-2.3,10.9
			c0,8.3,1.5,17.2,4.5,26.7c3.4,10.7,7.5,17.9,12.4,21.5c0,2,0,4.2,0,6.3C219,313.8,225,330.1,237.1,344.9z M199.3,296.8
			c0-1,0-1.9,0-2.9c0-3.3-1.1-8-3.3-14.3c-1-2.8-2.5-7-4.4-12.7c-0.5-0.9-1.4-1.3-2.5-1.2c-1,3.1-2.7,7.7-4.9,14.1
			c-2.3,7-3.5,12.7-3.5,17.1c0,0.5,0.4,1.2,1.3,2.2c1-0.1,1.9-0.2,2.9-0.3c0.5,0,1.4-0.4,2.5-1.1c1.2-0.7,2-1.1,2.5-1.1
			c0.6-0.1,1.7,0.2,3.2,0.6c1.5,0.5,2.5,0.7,3.2,0.6C197.8,297.6,198.8,297.3,199.3,296.8z"/>
		<path class="st0" d="M309.3,232.1c-3.4,4.4-7.1,12.2-11.1,23.4c-0.7,1.7-1.7,4.7-3.1,9.2c-0.5,2.5-0.9,5.2-1.2,8.1
			c0,2.2,0,5.7,0,10.3c-5.3,5.4-9.3,11.9-12,19.4c-0.9,2.5-2.6,9.2-5.2,19.9c-0.7,2.7-0.7,9.1,0,19.2c-0.7,1-1.9,1.6-3.9,1.8
			c-2.1,0.2-4-0.3-5.9-1.6c-1.9-1.2-2.7-1.9-2.6-1.9c-0.5,0-1.7,0.9-3.7,2.5c-1.9,1.6-3.2,2.4-3.7,2.5c-1.6,0.2-3.1,0.3-4.6,0.5
			c-0.3-0.3-0.6-0.5-1-0.8c0.5-5.7,0.8-9.4,0.8-10.9c0-11.6-3.4-24.3-10.4-38.2c-2.2-1.9-4.8-5.1-7.7-9.8c0-2.9,0-7,0-12.3
			c-1.3-10.3-6.4-24-15.6-41.6c2.5-0.8,4.9-1.5,7.4-2.3c1.7,0,4.6,1.7,8.9,5.1c4.5-3.5,8.1-5.3,10.7-5.3c2.1,0,3.4,0.5,4.1,1.4
			c-2,5.4-2.9,10.4-2.9,14.8c0,10.7,2.8,19.4,8.5,26.1c-0.5,3.1-0.8,6.2-0.8,9.2c0,10.8,3.2,21.2,9.8,31.1c1.8-2.1,3.9-6.8,6.2-14.1
			c1.6-4.8,2.8-9.2,3.7-13.2c-0.4-3-0.6-7.4-0.7-12.9c0.2-0.4,0.4-0.7,0.6-1.1c1.4-2.4,2.7-4.7,3.7-6.8c2.9-6.4,4.3-13,4.3-20.1
			c0-5.1-0.9-9.4-2.9-12.7c1.9-1.4,3.7-2.1,5.2-2.1c1.4,0,3.3,0.8,5.6,2.4c1.2,0.8,2.3,1.6,3.5,2.4c0.5,0,2-0.8,4.4-2.5
			c2.4-1.7,3.8-2.5,4.4-2.5c0.6,0,1.6,0.2,2.9,0.5c1.3,0.3,2.2,0.5,2.7,0.5c0.8,0,1.4-0.3,1.7-1
			C309.3,229.8,309.3,230.9,309.3,232.1z"/>
		<path class="st0" d="M386.2,336.1c-1.7,1.4-3.7,2-6,2.1c-2.5,0-5.6-1.3-9.5-3.9c-0.5,0-1.6,0.7-3.1,2.1c-1.6,1.4-2.6,2.1-3.1,2.1
			c-2.3,0.1-4.7,0.1-7,0.2c1-8.2,1.6-12.6,1.6-13.1c0-7.3-1.6-13.3-4.8-18c-3.6-5.4-8.7-8.1-15.3-7.9c-9.6,0.3-15.9,5.6-19,15.9
			c-1.3,4.3-1.6,10.2-1,17.8c0,0.4,0.3,1,0.8,1.7c0.5,0.7,0.8,1.4,0.8,1.9c0,0.9,0,1.8,0,2.6c-0.9,0.5-2.4,0.7-4.5,0.9
			c-2.3,0.1-4.4-0.4-6.3-1.7c-1.9-1.3-2.7-1.9-2.6-1.9c-0.4,0-1.3,0.7-2.7,2c-1.8,1.5-2.9,2.3-3.1,2.5c-1.3,0.1-2.6,0.2-3.9,0.3
			c-2.5,0.2-4.4-0.2-5.8-1c12.1-17.4,18.1-32.9,18.1-47.1c0-2.3-0.2-4.5-0.6-6.5c5.2-4.6,9.5-11.8,13-21.6c3.1-9,4.7-17.5,4.7-25.3
			c0-3.4-0.9-6.7-2.7-10c0.4,0,1.1-0.1,2.1-0.4c1-0.3,1.8-0.4,2.3-0.4c0.8,0,2.5,0.6,5.2,1.8c2.7,1.2,4.5,1.8,5.2,1.8
			c0.4,0,1.6-0.6,3.6-1.7c2-1.2,3.4-1.8,4.2-1.9c1.9,0,4.1,0.3,6.6,0.8c-1.6,3.9-2.3,7.2-2.3,9.9c0,7.5,1.5,15.7,4.5,24.4
			c3.4,9.9,7.6,16.6,12.5,20.2c0,1.9,0,3.8,0,5.8C367.9,305.8,374,321.1,386.2,336.1z M348.2,289c0-0.9,0-1.8,0-2.6
			c0-3-1.1-7.3-3.3-13.1c-1-2.5-2.5-6.4-4.4-11.7c-0.5-0.8-1.4-1.2-2.5-1.2c-1,2.7-2.7,6.9-4.9,12.5c-2.3,6.1-3.5,11.2-3.5,15.1
			c0,0.4,0.5,1.1,1.4,2c1,0,1.9-0.1,2.9-0.1c0.5,0,1.4-0.3,2.5-0.9c1.2-0.6,2-0.9,2.5-0.9c0.6,0,1.7,0.2,3.2,0.7
			c1.5,0.5,2.6,0.8,3.2,0.7C346.7,289.6,347.6,289.4,348.2,289z"/>
		<path class="st0" d="M449.2,337.2c-2.3-1.2-4.6-1.8-6.8-1.8c-1.8-0.1-5.1,0.6-10,1.9c-4.9,1.4-8.8,2-11.8,2
			c-2.3,0-5.7-0.8-10.2-2.3c-4.5-1.5-6.4-2.2-5.9-2.2c-0.4,0-1.1,0.4-2.1,1.2c-1.4,0.9-2.2,1.5-2.3,1.6c-1.4,0.4-3,0.6-4.9,0.6
			c-0.9,0-2.7-0.4-5.4-1.2c3.5-8.2,5.2-17.9,5.2-29.1c0-3.6-0.8-8.9-2.3-15.8c-1.6-6.9-2.3-10-2.3-9c0-0.4,0.4-1.5,1.3-3.4
			c0.8-1.9,1.3-3.1,1.5-3.8c1.3-8.2,1.9-14,1.9-17.5c0-10.4-1.7-19.7-5.2-27.9c2.7-0.9,4.5-1.4,5.4-1.4c2.1,0,4.2,0.7,6.3,2.1
			c2.1,1.4,3.1,2.1,3,2.1c4.4-2.4,7.4-3.6,8.9-3.6c0.5,0,1.4,0.1,2.5,0.3c1.2,0.2,2,0.3,2.5,0.3c0.1,0.3,0.2,0.7,0.2,1.2
			c0,0.8-0.4,2.3-1.1,4.4c-0.9,2.5-1.4,4.1-1.5,4.8c-1.2,6.1-1.8,12.3-1.8,18.4c0,7.5,0.8,13.8,2.4,19c0.1,0.4,0.6,1.3,1.4,2.6
			c0.8,1.3,1.2,2.3,1.2,2.8c0,0.5-0.5,1.7-1.5,3.6c-1,1.9-1.6,3.1-1.7,3.6c-1.2,3.3-1.9,9.2-1.9,17.6c0,6.4,0.6,10.4,1.7,12
			c1.5,2.3,5.3,3.5,11.2,3.6c4.6,0.1,8-0.4,10.2-1.5c1.8-1.8,4.4-4,7.7-6.7c1.7,3,2.5,6.3,2.5,10c0,1.1-0.1,2.2-0.2,3.2
			c-0.5,1.1-1,2.1-1.5,3.2c0,0.8,1.1,1.9,3.3,3.1C449.2,335.7,449.2,336.4,449.2,337.2z"/>
		<path class="st0" d="M485.4,338.1c0,1-0.3,1.6-1,1.8c-1.7,0.9-3.2,1.2-4.5,1.2c-0.5,0-2-0.8-4.6-2.3c-2.5-1.5-4-2.3-4.6-2.3
			c-4.7,2.1-7.8,3.1-9.5,3c-1.6-0.1-3.2-0.3-4.9-0.8c-0.1-1.1,0.3-3.3,1.4-6.6c1-3.3,1.7-5.6,1.9-6.8c0.9-3.2,1.3-8.6,1.3-16.2
			c0-6.8-0.5-12.2-1.4-16.3c-0.3-1.4-0.9-3.3-1.9-5.8c-1-2.5-1.5-3.6-1.5-3.4c0-0.4,0.5-1.8,1.5-4.3c1-2.5,1.6-4.1,1.7-4.7
			c0.9-4.4,1.3-9.8,1.3-16.2c0-10.6-1.8-19.6-5.3-27.2c0.3-0.3,0.5-0.7,0.8-1.2c0.5,0,1.3-0.1,2.4-0.4c1.1-0.3,2-0.4,2.6-0.4
			c1.4,0,4.5,1.4,9.1,4.3c0.5,0,1.2-0.5,2.1-1.4c0.5-0.5,1-0.9,1.5-1.4c1.5-0.9,3.4-1.4,5.4-1.4c0.5,0,1.3,0.1,2.3,0.3
			c1,0.2,1.8,0.3,2.3,0.3c0.3,1.2,0,3.3-0.9,6.1c-1.2,4.2-1.9,6.5-2,6.9c-0.9,4.2-1.3,9.3-1.3,15.1c0,7,0.5,12.6,1.3,17
			c0.1,1,0.8,2.6,2,5.1c1.2,2.4,1.8,3.8,1.8,4.3c0,0.5-0.3,1.3-1,2.3c-0.7,1-1,1.6-1,1.9c-2,6.5-3,13.3-2.9,20.3
			c0,6.5,0.5,12.1,1.3,16.6c0.1,1,0.8,3.2,2,6.7C484.8,335.7,485.4,337.7,485.4,338.1z"/>
		<path class="st0" d="M561.3,343.9c-4-0.9-6.5-1.4-7.8-1.5c-2.6-0.3-6.7,0.1-12.2,1.2c-5.5,1.1-9.8,1.5-12.8,1.2
			c-4.1-0.4-7.5-1.1-10.2-2.2c-4.7-2.8-6.8-4.1-6.6-4.1c-0.3,0-1.7,0.6-4.2,1.8c-2.5,1.2-4.6,1.7-6.2,1.6c-2.6-0.2-4.5-1-5.7-2.5
			c2.3-6.6,3.7-11,4.1-13.3c1.3-7.9,2-13.2,2-16c0-3.7-0.8-8.6-2.5-14.7c-1.7-6.1-2.5-10.2-2.5-12.4c0-0.4,0.4-1.7,1.3-3.8
			c0.9-2.1,1.4-3.5,1.5-4.2c1.3-6.6,2-11.9,2-16.1c0-2.9-0.6-7.5-1.9-13.7c-1.2-6.9-2.5-11-3.7-12.4c0-0.9,0-1.8,0-2.7
			c1.8-0.9,3.5-1.4,5.1-1.4c2.7,0,4.8,0.5,6.4,1.5c0,0.3,0.5,0.8,1.5,1.7c1,0.8,1.7,1.3,2.2,1.3c0.4,0,1.8-0.7,4.2-2.1
			c2.4-1.4,3.9-2.3,4.6-2.6c2.9-0.5,5.5-0.8,8-0.8c3.1,0,7.5,0.9,13,2.7c5.5,1.8,9.7,2.7,12.4,2.7c1.9,0,3.9-0.4,5.9-1.2
			c-0.1,0.6-0.6,1.4-1.5,2.6c-0.9,1.1-1.3,2-1.3,2.6c0,0.7,0.4,2.2,1.1,4.4c0.8,2.2,1.1,3.7,1.1,4.4c0,1.7-0.4,4.1-1.2,7.1
			c-0.3,0-0.8,0.2-1.4,0.6c-5.5-6.1-12.4-9.1-20.8-9.3c-7-0.2-11.4,1.6-13.2,5.1c-0.8,1.6-1.2,6.1-1.2,13.5c0,7.8,0.4,12.5,1.3,14.2
			c1.7,3.3,5.9,5.1,12.8,5.4c3.4,0.2,5.7,0.1,6.8-0.3c0.7,0,3.8-1.1,9.5-3.3c-0.1,1-0.7,2.4-1.7,4.3c-1,1.9-1.5,2.9-1.5,3.2
			c0,0.6,0.4,1.8,1.3,3.7c0.9,1.9,1.4,3.2,1.5,3.9c-0.8-0.1-1.6-0.1-2.5-0.2c-0.4-0.2-1.3-0.8-2.7-1.9c-2.8-1.5-6.3-2.3-10.7-2.5
			c-7.1-0.4-11.5,1.7-13.2,6.2c-0.5,1.5-0.8,5.8-0.8,12.9c0,7.5,0.4,12.2,1.3,14c1.7,3.6,6.1,5.7,13.2,6.3c4.3,0.4,8.1,0,11.5-1.1
			c2.1-1.3,5.3-3.5,9.9-6.4c2.3,6.2,3.2,10.6,2.5,12.9c-0.9,3.2-1.4,5-1.4,5.5C558.9,341.2,560.1,342.5,561.3,343.9z"/>
		<path class="st0" d="M648.3,359.8c-4.7,0.3-8.5,0.2-11.2-0.3c-8.5-1.5-14.9-5-19.3-10.7c0.5-1.1,1-2.1,1.5-3.2
			c0.9-2.1,1.3-4.8,1.3-8c0-4-0.7-7.4-1.9-10.3c-1.2-2-2.4-4.7-3.7-8.2c0-0.1,0.2-2.3,0.6-6.5c0.4-3.9,0.2-6.9-0.4-8.9
			c-1.7-5.3-6-8.3-12.9-8.8c-6.1-0.5-10,1-11.7,4.4c-0.9,1.8-1.3,5.9-1.3,12.3c0,5.8,0.5,12,1.4,18.8c1.2,9.2,3,15.6,5.2,19.4
			c-1.8,1.2-3.6,1.7-5.4,1.5c-2.4-0.3-5.7-2-9.9-5.1c-4.6,1.9-7.8,2.7-9.5,2.5c-1.3-0.2-3.2-0.8-5.8-2c0-0.7,0-1.4,0-2.2
			c0-0.4,0.4-1.5,1.2-3.3c0.8-1.8,1.3-3,1.4-3.5c2-9.5,3.1-17,3-22.5c0-4.8-0.5-9.5-1.4-14.1c-0.3-1-1.1-3.3-2.4-6.7
			c-1.4-3.4-2-5.4-2-6c0-0.4,0.5-1.7,1.5-3.9c1-2.2,1.6-3.4,1.7-3.7c1.7-6.4,2.5-12.6,2.5-18.6c0-12.2-2-22.2-5.9-29.9
			c1.3-1.4,3.1-2.1,5.4-2.1c1.7,0,3.7,0.6,6.1,1.7c2.4,1.1,3.6,1.7,3.8,1.7c-3.2-0.1-1.2-0.9,6-2.5c7.2-1.7,11.9-2.5,14.1-2.5
			c5.3,0.1,10.8,1.2,16.7,3.4c7.5,2.9,12.3,6.9,14.5,11.9c0.8,1.9,1.6,4.2,2.3,7c0.3,3.4,0.7,6.8,1,10.3c0,0.5,0.3,1.2,0.8,2.3
			c0.5,1,0.8,1.9,0.8,2.5c0,0.5-0.3,1.2-0.8,2.2c-0.5,1-0.8,1.7-0.8,2.2c-0.6,6-1.3,9.8-1.9,11.5c-1.2,3.3-3.5,5.7-6.9,7.3
			c-2.8,0.8-5.7,1.7-8.5,2.7c0.9,1.1,3.2,2.4,6.8,3.8c4.1,1.6,6.6,5,7.4,10.2c0.4,2.5,0.8,5,1.2,7.5c1,3.7,2.8,6.4,5.2,8.3
			C639,337.5,642.3,350.1,648.3,359.8z M615.3,267.8c0-1.1-0.5-1.5-1.5-1.5c0.4-0.8,0.9-1.6,1.3-2.4c0.1-1.2,0.2-2.3,0.2-3.4
			c0-9-4.2-13.6-12.7-13.9c-9-0.3-13.4,6.3-13.4,19.7c0,13.4,4.4,20.5,13.1,21.1c8.7,0.7,13-3.1,13-11.5c0-2.3-0.3-4.7-1-7.3
			C614.7,268.4,615,268.1,615.3,267.8z"/>
		<path class="st0" d="M735.7,334c0,16.6-4,29.2-12.1,37.7c-7.4,8.1-17.7,12.1-30.7,12.1h-8.7c-2.3,0-7.5-2-15.5-6.1
			c-8-4-13.2-6.1-15.5-6.1c-2.8,0-4.7,0.3-5.7,1c-0.7-0.2-1-1.1-1-2.6c0-1.7,1-3.7,3-6.1c1.8-1.7,3.5-3.4,5.2-5.1
			c-1-2.6-2.2-6.4-3.7-11.5l1-7c10.9,16.4,23.8,24.6,38.5,24.6c14.6,0,21.9-8.2,21.9-24.6c0-7.9-2.2-14.5-6.7-19.8
			c-4.5-5.3-9.9-8-16.1-8c-2.2,0-3.8,0.3-5,1c-0.7-4-3.4-8.4-8.2-13.1c-3.6-3.2-7.4-6.5-11.2-9.9c-4.5-5.7-7.5-10.5-8.9-14.4
			c-2-4.9-3-11-3-18.2c0-14,3.6-25.7,10.8-35s16.2-13.9,27.1-13.9c4.9,0,11,1.8,18.1,5.4c7.9,4.3,13.8,6.6,17.6,7
			c-1.8,2.6-3.7,6.2-5.7,10.9c-0.5,4.9-1.1,9.8-1.7,14.7c-1.8-2.6-4.4-6-7.7-10.2c-5-5.3-10.8-8-17.6-8c-13,0-19.5,7.8-19.5,23.3
			c0,7,1.9,12.8,5.7,17.4c3.8,4.6,8.4,6.9,13.9,6.9c2.1,0,4.2-0.3,6.2-1c1,4.5,3.9,8.8,8.7,13.1c4,3,7.9,6.1,11.9,9.3
			C730.7,306.6,735.7,318.7,735.7,334z"/>
		<path class="st0" d="M143.8,264.7c0,0.9-0.6,1.3-1.7,1.3c-0.7,0-2.4-0.7-5.1-2.2c-2.7-1.5-4.3-2.2-4.8-2.2c-0.7,0-2.5,1.4-5.4,4.2
			c-3,2.8-4.8,4.2-5.4,4.2h-5.4c2.5-8.4,3.7-14.7,3.7-18.7c0-5.9-1.7-10.7-5.1-14.4c-3.4-3.7-7.5-5.5-12.3-5.5
			c-10.3,0-16.1,7.7-17.4,23.2v25.4c0.2,1.3,0.9,3.8,2.1,7.6c1.2,3.8,1.8,6,1.8,6.7c0-1.7-1.3,3.1-4,14.3v29.2
			c2.2,14.2,7.9,21.3,17.2,21.3c11.8,0,17.7-7.2,17.7-21.5c0-2.7-1.2-8-3.7-15.8c0.7-0.8,1.7-1.3,3.2-1.3c4.6,0,8.8,3.2,12.6,9.6
			c0.7-0.2,2-1.2,4.1-3c2.1-1.8,3.4-2.7,4.1-2.7h3.2v4.5c0,1.3-0.5,3.1-1.4,5.6c-0.9,2.4-1.4,4.3-1.4,5.6c0,16.6-3.5,28.3-10.4,35.1
			c-5.9,6-15.4,8.9-28.5,8.9c-21.8,0-34.5-9.9-38.1-29.7l-2-10.5v-38c0-0.6-0.6-2.5-1.9-5.6c-1.2-3.1-1.9-5.1-1.9-5.9
			c0-0.4,0.6-2.2,1.9-5.4c1.2-3.2,1.9-5.2,1.9-6.1v-32.9c0-9.6,3.4-18.9,10.3-27.9c6.8-9,14.1-14.1,21.7-15.2
			c1.6-0.2,4.6-0.3,8.9-0.3c6.9,0,13.9,1.4,20.8,4.2c3.6,1.5,7.3,4.8,10.9,10.1c3.6,5.2,5.6,10.2,5.9,14.8
			c0.3,3.8,0.7,11.4,1.2,22.7C141.7,259.7,142.6,262,143.8,264.7z"/>
	</g>
</g>
<g id="kcc_text">
	<g>
		<path class="st3" d="M236.4,112c0.5-0.2,1-0.4,1.5-0.5c1.5-3.1,3-6.2,4.5-9.3c1.3-0.5,2.6-0.9,3.9-1.4c-1.9,3.7-3.7,7.5-5.5,11.2
			c2.9,2.2,5.8,4.3,8.7,6.5c-1.3,0.5-2.7,1-4,1.5c-2.4-1.8-4.8-3.6-7.2-5.5c-0.5,0.2-1,0.4-1.5,0.5c0.4,2.6,0.7,5.1,1.1,7.7
			c-1.1,0.4-2.1,0.8-3.2,1.2c-0.8-6-1.7-12-2.5-17.9c1.1-0.4,2.1-0.8,3.2-1.2C235.7,107.1,236,109.5,236.4,112L236.4,112z"/>
		<path class="st3" d="M257.9,114.2C257.8,114.2,257.8,114.2,257.9,114.2c-0.5,1.9-2.2,2.5-3.6,2.9c-2.7,0.8-4.5,0.8-4.8-2.7
			c-0.3-3,1.1-4.3,4.1-5.2c1.4-0.4,2.9-0.9,3.7,0.4c0,0,0.1,0,0.1,0c-0.1-0.5-0.1-1.1-0.2-1.6c-0.2-2-0.4-2.7-2.8-2
			c-1.2,0.4-2.2,0.8-2.1,2.4c-0.9,0.3-1.9,0.6-2.8,0.9c-0.3-3.7,2-4.6,4.7-5.4c3.8-1.2,5.4-1,5.8,3.2c0.2,2.6,0.5,5.3,0.7,7.9
			c-0.9,0.3-1.9,0.6-2.8,0.9C257.9,115.3,257.9,114.8,257.9,114.2C257.9,114.2,257.9,114.2,257.9,114.2z M252.3,113.6L252.3,113.6
			c0.2,1.8,0.9,1.7,2.8,1.2c1.5-0.5,2.6-0.9,2.4-2.8c-0.1-1.8-1.4-1.4-2.8-1C253.3,111.4,252.2,111.8,252.3,113.6L252.3,113.6z"/>
		<path class="st3" d="M264.8,101c0,0.6,0.1,1.3,0.1,1.9c0,0,0.1,0,0.1,0c0.5-2,2-2.6,3.7-3.1c3.2-0.8,4.2,0.3,4.3,3.4
			c0.1,2.8,0.3,5.6,0.4,8.4c-1,0.3-1.9,0.5-2.9,0.8c-0.1-2.7-0.3-5.4-0.4-8c-0.1-1.8-0.5-2.4-2.4-1.9c-2.5,0.7-2.8,2-2.7,4.3
			c0.1,2.3,0.2,4.6,0.4,7c-1,0.3-1.9,0.5-2.9,0.8c-0.2-4.2-0.4-8.5-0.7-12.7C262.8,101.5,263.8,101.3,264.8,101
			C264.8,101,264.8,101,264.8,101z"/>
		<path class="st3" d="M278.8,102.5c0.2-0.1,0.5-0.1,0.7-0.2c1.1-1.9,2.2-3.8,3.3-5.7c1.1-0.3,2.2-0.5,3.3-0.8
			c-1.4,2.3-2.8,4.6-4.2,7c1.8,1.8,3.5,3.7,5.3,5.5c-1.2,0.3-2.3,0.5-3.5,0.8c-1.4-1.6-2.7-3.2-4.1-4.8c-0.2,0.1-0.5,0.1-0.7,0.2
			c0,1.9,0.1,3.8,0.1,5.7c-1,0.2-1.9,0.4-2.9,0.7c-0.1-6-0.2-12.1-0.4-18.1c1-0.2,1.9-0.4,2.9-0.7C278.7,95.6,278.7,99,278.8,102.5
			L278.8,102.5z"/>
		<path class="st3" d="M296.3,104.9C296.3,104.9,296.3,104.9,296.3,104.9c-0.7,1.8-2.5,2.2-3.9,2.5c-2.8,0.5-4.5,0.3-4.5-3.1
			c0-3,1.6-4.2,4.6-4.8c1.5-0.3,3-0.6,3.6,0.7c0,0,0.1,0,0.1,0c0-0.5,0-1.1,0-1.6c0-2.1-0.1-2.8-2.5-2.3c-1.3,0.3-2.3,0.6-2.3,2.2
			c-1,0.2-2,0.4-2.9,0.6c0.1-3.7,2.5-4.3,5.3-4.9c3.9-0.8,5.5-0.5,5.5,3.8c0,2.7-0.1,5.3-0.1,8c-1,0.2-1.9,0.4-2.9,0.6
			C296.2,106,296.3,105.5,296.3,104.9C296.3,104.9,296.3,104.9,296.3,104.9z M290.9,103.7L290.9,103.7c0,1.8,0.7,1.8,2.6,1.4
			c1.6-0.3,2.7-0.7,2.7-2.5c0-1.8-1.2-1.6-2.7-1.3C292.1,101.7,290.9,101.9,290.9,103.7L290.9,103.7z"/>
		<path class="st3" d="M304.7,97.3c0.2,0,0.5-0.1,0.7-0.1c1.2-1.8,2.4-3.7,3.7-5.5c1.1-0.2,2.2-0.4,3.3-0.6
			c-1.5,2.2-3.1,4.5-4.6,6.7c1.6,1.9,3.3,3.9,4.9,5.8c-1.2,0.2-2.4,0.4-3.5,0.6c-1.3-1.7-2.6-3.3-3.8-5c-0.2,0-0.5,0.1-0.7,0.1
			c-0.1,1.9-0.2,3.8-0.2,5.7c-1,0.2-2,0.3-2.9,0.5c0.2-6,0.5-12.1,0.7-18.1c1-0.2,2-0.3,3-0.5C305,90.4,304.8,93.9,304.7,97.3
			L304.7,97.3z"/>
		<path class="st3" d="M324.7,98c-0.3,4-2.5,4.5-6,5c-4.7,0.7-5.6-0.7-5.3-5.6c0.3-4.5,1.1-6.6,6.1-7.3c5.1-0.7,5.6,0.7,5.3,6.2
			c-2.8,0.4-5.6,0.8-8.5,1.2c-0.2,2.7-0.2,3.6,2.5,3.2c1.6-0.2,2.8-0.4,2.9-2.3C322.7,98.2,323.7,98.1,324.7,98
			C324.7,98,324.7,98,324.7,98z M322,94.7C322,94.7,322,94.7,322,94.7c0.2-2.6-0.2-2.7-2.6-2.4c-2.6,0.4-2.7,0.9-2.9,3.2
			C318.3,95.2,320.1,95,322,94.7C322,94.7,322,94.7,322,94.7z"/>
		<path class="st3" d="M338.1,96.4c-0.4,4-2.6,4.4-6.1,4.8c-4.7,0.5-5.6-0.9-5.1-5.8c0.4-4.5,1.3-6.6,6.3-7.2
			c5.1-0.6,5.6,0.9,5.1,6.4c-2.8,0.3-5.7,0.6-8.5,1c-0.3,2.7-0.3,3.6,2.4,3.3c1.6-0.2,2.8-0.3,3-2.2
			C336.1,96.6,337.1,96.5,338.1,96.4C338.1,96.4,338.1,96.4,338.1,96.4z M335.5,93.1L335.5,93.1c0.3-2.6-0.1-2.7-2.6-2.5
			c-2.6,0.3-2.8,0.9-3,3.1C331.8,93.5,333.6,93.3,335.5,93.1L335.5,93.1z"/>
		<path class="st3" d="M359.6,86.8c0-0.3,0.1-0.7,0.1-1c0.3-2.1-0.5-2.2-3.5-2c-3.4,0.3-4.1,0.9-4.6,4.4c-0.2,1.3-0.4,2.7-0.5,4
			c-0.5,3.6-0.1,4.3,3.4,4c2.7-0.2,4-0.4,4.3-2.9c0-0.3,0.1-0.7,0.1-1c1.1-0.1,2.3-0.2,3.4-0.2c-0.1,0.4-0.1,0.8-0.2,1.2
			c-0.7,5.4-3.7,5.4-8.1,5.9c-6.3,0.7-7.1-1.3-6.5-6.5c0.2-1.4,0.4-2.7,0.5-4.1c0.8-5.7,3.2-7.2,8.4-7.6c4.4-0.3,7-0.5,6.5,4.7
			c0,0.3-0.1,0.7-0.1,1C361.9,86.6,360.7,86.7,359.6,86.8L359.6,86.8z"/>
		<path class="st3" d="M376,91.6c-0.8,4.8-1.7,6.4-6.9,6.7c-5.2,0.2-5.6-1.3-4.8-6.1c0.8-4.9,1.7-6.5,6.9-6.7
			C376.4,85.2,376.8,86.7,376,91.6C376,91.6,376,91.6,376,91.6z M367.3,92L367.3,92c-0.5,3.3-0.4,4.1,2.2,3.9c2.7-0.1,3-0.9,3.5-4.2
			c0.6-3.4,0.5-4.1-2.2-4C368.1,87.8,367.8,88.6,367.3,92L367.3,92z"/>
		<path class="st3" d="M382.2,85.2c-0.1,0.6-0.2,1.2-0.4,1.8c0,0,0.1,0,0.1,0c1-1.6,2.7-2,4.3-2c1.6,0,3.3,0.3,3.3,2.1
			c0,0,0.1,0,0.1,0c0.9-1.7,2.7-2.2,4.4-2.3c3.2,0,4.1,1.1,3.5,4.1c-0.6,2.8-1.1,5.6-1.7,8.4c-1,0-2,0-3,0c0.5-2.7,1.1-5.4,1.6-8.1
			c0.2-1.6,0-2.2-1.7-2.2c-2.4,0-3.1,1.1-3.5,3.3c-0.5,2.3-0.9,4.7-1.4,7c-1,0-2,0-3,0.1c0.5-2.7,1.1-5.4,1.6-8.1
			c0.2-1.6,0-2.2-1.7-2.1c-2.4,0-3.1,1.1-3.5,3.4c-0.5,2.3-0.9,4.7-1.4,7c-1,0-2,0-3,0.1c0.8-4.2,1.6-8.3,2.4-12.5
			C380.3,85.2,381.3,85.2,382.2,85.2C382.2,85.2,382.2,85.2,382.2,85.2z"/>
	</g>
	<g>
		<path class="st4" d="M247.7,117.1c-2.8-2.1-5.6-4.2-8.4-6.3c1.8-3.6,3.6-7.3,5.4-10.9l-0.5-0.5l-4.1,1.5l-0.1,0.1
			c-1.5,3.1-3,6.1-4.5,9.2l-0.9,0.3l-1-7.3l-3.9,1.4l0,0.3c0.9,6,1.7,12,2.5,17.9l0.1,0.5l3.9-1.4l-1.1-7.7l1-0.4
			c2.3,1.8,4.7,3.6,7,5.3l0.2,0.1l4.9-1.8L247.7,117.1z"/>
		<path class="st4" d="M258.4,106c-0.2-2-0.6-3.2-1.5-3.8c-1.1-0.7-2.6-0.5-4.8,0.2c-2.4,0.7-5.4,1.6-5,5.8l0,0.5l3.6-1.1l0-0.3
			c-0.1-1.4,0.6-1.7,1.8-2.1c1-0.3,1.5-0.3,1.8-0.2c0.3,0.2,0.4,0.9,0.5,1.8l0.1,0.8c-1-0.6-2.3-0.2-3.4,0.2
			c-2.8,0.9-4.6,2.2-4.3,5.6c0.1,1.5,0.6,2.5,1.3,3c0.4,0.3,1,0.4,1.5,0.4c0.8,0,1.6-0.2,2.4-0.5c1-0.3,2.3-0.7,3.1-1.8l0,0.6
			l3.6-1.1L258.4,106z M251.1,113.6c-0.2-0.1-0.3-0.5-0.4-1.1v0c-0.1-1.4,0.6-1.7,2.2-2.2c0.5-0.1,1.1-0.3,1.5-0.3
			c0.2,0,0.3,0,0.5,0.1c0.2,0.1,0.3,0.4,0.4,0.9c0.1,1.4-0.5,1.9-2.2,2.4C252.2,113.6,251.4,113.8,251.1,113.6z"/>
		<path class="st4" d="M271.3,102.2c-0.1-1.8-0.5-2.9-1.3-3.5c-0.8-0.6-1.9-0.6-3.5-0.2c-1.3,0.3-2.6,0.8-3.4,2l0-0.9l-3.6,1
			l0.7,13.4l3.6-1l-0.4-7.3c-0.1-2.3,0.2-3.3,2.4-3.9c0.8-0.2,1.2-0.2,1.5,0c0.2,0.2,0.4,0.7,0.4,1.6l0.4,8.5l3.6-1L271.3,102.2z"/>
		<path class="st4" d="M285.4,107.1c-1.7-1.8-3.4-3.6-5.1-5.3c1.4-2.2,2.7-4.5,4.1-6.7l0.5-0.8l-4.3,1l-0.1,0.1
			c-1.1,1.9-2.2,3.7-3.2,5.6l-0.1,0L277,90.7l-3.7,0.8l0.4,18.9l3.6-0.8l-0.1-5.7l0.2,0c1.3,1.5,2.7,3.1,4,4.6l0.1,0.2l4.4-1
			L285.4,107.1z"/>
		<path class="st4" d="M296.5,93.1c-1-0.8-2.6-0.7-4.8-0.3c-2.5,0.5-5.5,1.1-5.6,5.2l0,0.5l3.7-0.7l0-0.3c0-1.4,0.8-1.6,2-1.9
			c1-0.2,1.6-0.2,1.8,0c0.3,0.2,0.3,1,0.3,1.9l0,0.8c-0.9-0.7-2.3-0.4-3.4-0.2c-2.9,0.6-4.8,1.7-4.9,5.2c0,1.5,0.3,2.6,1,3.1
			c0.5,0.4,1.2,0.6,2,0.6c0.6,0,1.3-0.1,1.9-0.2c1-0.2,2.4-0.5,3.3-1.4l-0.1,0.6l3.7-0.7l0.1-8.3C297.6,95,297.3,93.8,296.5,93.1z
			 M293.9,101.7c0,1.4-0.7,1.8-2.4,2.1c-0.9,0.2-1.7,0.3-2,0.1c-0.2-0.1-0.3-0.5-0.2-1.1v0c0-1.4,0.8-1.7,2.4-2
			c0.4-0.1,0.9-0.2,1.3-0.2c0.3,0,0.5,0,0.6,0.2C293.8,100.9,293.9,101.2,293.9,101.7z"/>
		<path class="st4" d="M311,102.4c-1.6-1.9-3.2-3.7-4.8-5.6c1.5-2.2,3-4.3,4.5-6.5l0.5-0.7l-4.4,0.7l-0.1,0.1
			c-1.2,1.8-2.4,3.6-3.6,5.4l-0.1,0l0.4-10.4l-3.7,0.6l0,0.3c-0.2,6-0.5,12.1-0.7,18.1l0,0.5l3.7-0.6l0.2-5.7l0.2,0
			c1.2,1.6,2.5,3.2,3.7,4.8l0.1,0.2l4.4-0.7L311,102.4z"/>
		<path class="st4" d="M322.2,89.2c-0.9-0.8-2.2-1-4.8-0.6c-5.1,0.7-6.1,3-6.5,7.7c-0.2,2.5-0.1,4.4,1,5.4c0.6,0.6,1.4,0.8,2.7,0.8
			c0.6,0,1.2-0.1,2-0.2c3.7-0.5,6-1.2,6.3-5.3l0-0.5l-3.7,0.5l0,0.3c-0.1,1.5-0.8,1.6-2.6,1.9c-1,0.1-1.6,0.1-1.8-0.1
			c-0.3-0.3-0.3-1.1-0.2-2.4c2.7-0.4,5.4-0.8,8.2-1.2l0.3,0l0-0.3C323.4,92.1,323.3,90.2,322.2,89.2z M314.9,94.1
			c0.1-1.7,0.4-2.1,2.5-2.4c0.5-0.1,1-0.1,1.3-0.1c0.3,0,0.5,0,0.7,0.2c0.2,0.2,0.3,0.9,0.2,1.7C318,93.6,316.5,93.8,314.9,94.1z"/>
		<path class="st4" d="M335.9,87.7c-0.8-0.8-2.2-1-4.7-0.7c-5.2,0.6-6.2,2.8-6.7,7.5c-0.2,2.5-0.2,4.4,0.9,5.4
			c0.6,0.6,1.5,0.9,2.9,0.9c0.5,0,1.1,0,1.7-0.1c3.8-0.4,6.1-1,6.5-5.2l0-0.5l-3.7,0.4l0,0.3c-0.1,1.5-0.8,1.6-2.6,1.8
			c-1,0.1-1.6,0.1-1.8-0.2c-0.3-0.3-0.3-1.1-0.2-2.4c2.7-0.3,5.5-0.6,8.2-0.9l0.3,0l0-0.3C336.9,90.6,336.9,88.7,335.9,87.7z
			 M328.4,92.3c0.2-1.7,0.4-2.1,2.6-2.3c0.5-0.1,0.9-0.1,1.3-0.1c0.4,0,0.6,0,0.7,0.2c0.2,0.2,0.2,0.9,0.2,1.7
			C331.5,91.9,330,92.1,328.4,92.3z"/>
		<path class="st4" d="M360.6,80.4c-1.2-1.2-3.3-1-6-0.8c-5.2,0.4-7.9,1.7-8.8,7.9l-0.5,4.1c-0.3,2.7-0.3,4.7,0.9,5.9
			c0.8,0.8,2,1.1,3.8,1.1c0.6,0,1.4,0,2.2-0.1l0.7-0.1c4.1-0.5,7-0.8,7.7-6.2l0.2-1.6l-4.2,0.3l-0.2,1.3c-0.3,2.2-1.2,2.4-4,2.6
			c-1.7,0.1-2.5,0-2.9-0.4c-0.4-0.5-0.4-1.5-0.2-3.2l0.5-4c0.4-3.3,1-3.8,4.3-4.1c1.5-0.1,2.6-0.2,3,0.2c0.2,0.2,0.2,0.6,0.1,1.3
			l-0.2,1.4l4.2-0.3l0.2-1.3C361.7,82.5,361.4,81.2,360.6,80.4z"/>
		<path class="st4" d="M374,85.1c-0.8-0.9-2.2-1.2-4.8-1.1c-5.3,0.2-6.4,1.9-7.3,7c-0.4,2.8-0.5,4.4,0.4,5.5
			c0.7,0.8,1.8,1.1,3.8,1.1c0.3,0,0.6,0,1,0c5.3-0.3,6.4-1.9,7.3-7v0C374.8,87.9,374.9,86.2,374,85.1z M370.6,90.7
			c-0.5,3.3-0.8,3.8-3.2,3.9c-1,0-1.6,0-1.8-0.3c-0.4-0.4-0.2-1.6,0-3.2c0.6-3.3,0.8-3.9,3.2-4c1.1,0,1.6,0,1.8,0.3
			C371,87.8,370.9,88.8,370.6,90.7z"/>
		<path class="st4" d="M395.5,84.5c-0.6-0.7-1.7-1-3.5-1c-1.9,0-3.3,0.6-4.2,1.8c-0.1-0.3-0.3-0.5-0.5-0.8c-0.6-0.6-1.6-0.9-3-0.9
			c-1.6,0-2.9,0.4-3.8,1.2l0.2-1l-3.7,0.1l-0.1,0.3c-0.8,4.2-1.6,8.3-2.4,12.5l-0.1,0.5l3.8-0.1l1.4-7.3c0.4-2.1,1-3,3.2-3.1
			c0.6,0,1,0.1,1.2,0.3c0.2,0.2,0.2,0.7,0.1,1.4l-1.7,8.6l3.7-0.1l1.4-7.3c0.4-2.1,1-3,3.2-3c0.6,0,1,0.1,1.2,0.3
			c0.2,0.2,0.2,0.7,0.1,1.4c-0.5,2.7-1.1,5.4-1.6,8.1l-0.1,0.5l3.8-0.1l0.1-0.3c0.6-2.8,1.1-5.6,1.7-8.4
			C396.2,86.3,396.1,85.2,395.5,84.5z"/>
		<path class="st4" d="M417.2,84.9c-0.6-0.8-1.6-1.1-3.4-1.2c-1.9,0-3.4,0.5-4.3,1.6c-0.1-0.3-0.2-0.6-0.5-0.8c-0.6-0.6-1.6-1-3-1
			c-1.6,0-2.9,0.3-3.8,1.1l0.2-1l-3.7-0.1l-0.1,0.3c-1,4.1-1.9,8.2-2.9,12.4l-0.1,0.5l3.8,0.1l1.7-7.3c0.5-2.1,1.1-3,3.3-2.9
			c0.6,0,1,0.1,1.2,0.3c0.2,0.2,0.2,0.7,0.1,1.4c-0.6,2.7-1.3,5.4-1.9,8.1l-0.1,0.5l3.8,0.1l1.7-7.3c0.5-2.1,1.1-3,3.3-2.9
			c0.6,0,1,0.1,1.2,0.3c0.2,0.2,0.2,0.7,0,1.4c-0.6,2.7-1.3,5.4-1.9,8.1l-0.1,0.5l3.8,0.1l0.1-0.3c0.7-2.8,1.3-5.6,2-8.3
			C417.9,86.8,417.8,85.7,417.2,84.9z"/>
		<path class="st4" d="M428.1,84.5l-0.1,0.3c-0.6,2.4-1.3,4.7-1.9,7.1c-0.5,2.1-1.4,2.8-3.5,2.7c-0.7,0-1.1-0.1-1.2-0.3
			c-0.2-0.3-0.1-0.8,0.1-1.7c0.7-2.6,1.4-5.2,2.1-7.7l0.1-0.4l-3.8-0.2l-0.1,0.3c-0.8,3-1.6,5.9-2.3,8.9c-0.3,1.2-0.2,2.2,0.3,2.9
			c0.6,0.8,1.7,1.2,3.3,1.3c1.1,0.1,2.6,0,3.9-1l-0.3,1.1l3.6,0.2l0.1-0.3c1.1-4.1,2.2-8.2,3.3-12.3l0.1-0.4L428.1,84.5z"/>
		<path class="st4" d="M444.4,86.6c-0.6-0.8-1.6-1.2-3.3-1.3c-1.3-0.1-2.7-0.1-3.8,0.8l0.3-0.9l-3.8-0.3l-0.1,0.3
			c-1.2,4.1-2.3,8.1-3.5,12.2l-0.1,0.4l3.7,0.3l2-7c0.6-2.2,1.3-3.1,3.6-2.9c0.8,0.1,1.2,0.2,1.4,0.4c0.2,0.3,0.1,0.8-0.1,1.6
			c-0.8,2.6-1.5,5.2-2.2,7.7l-0.1,0.4l3.7,0.3l0.1-0.3c0.8-2.7,1.6-5.4,2.3-8C445,88.6,444.9,87.4,444.4,86.6z"/>
		<path class="st4" d="M447.4,85.9l3.8,0.3l-0.1,0.4c-1.3,4-2.5,8.1-3.7,12.1l-0.1,0.3l-3.7-0.3l0.1-0.4c1.2-4,2.5-8.1,3.7-12.1
			L447.4,85.9z M449,80.7l-1,3.2l3.8,0.3l1-3.2L449,80.7z"/>
		<path class="st4" d="M457,89.9l4.7,0.5l1-2.9L458,87l0.9-2.7l-3.7-0.4l-0.9,2.7l-1.6-0.2l-1,2.9l1.6,0.2l-1.9,5.8
			c-0.5,1.7-0.6,2.7-0.1,3.4c0.5,0.7,1.5,1.1,3.4,1.3c0.4,0,0.7,0.1,1.1,0.1c2.6,0,3.9-1.3,5-4.7L461,95l-3.4-0.4l-0.2,0.6
			c-0.4,1.3-0.7,1.9-1.8,1.8c-0.5-0.1-0.6-0.2-0.6-0.2c-0.1-0.1,0.1-0.6,0.2-1.1L457,89.9z"/>
		<path class="st4" d="M472.5,88.7l-0.1,0.2c-1.8,2.9-3.5,5.8-5.3,8.7l0.4-9.6l-3.8-0.5l-0.1,13.3l1.2,0.2c-0.7,1.2-1.4,2.3-2.8,2.2
			c-0.1,0-0.3-0.1-0.4-0.1l-0.5-0.1l-1,2.9l0.4,0.1c0.2,0,0.3,0.1,0.5,0.1c0.3,0.1,0.5,0.1,0.8,0.1c0.3,0,0.6,0.1,0.9,0.1
			c3,0,4.3-2.1,5.8-4.5c2.5-4,5-8,7.6-12.1l0.3-0.5L472.5,88.7z"/>
		<path class="st4" d="M499.2,88.7c-0.9-1.4-3-1.8-5.6-2.2c-5.1-0.9-8.1-0.2-10.4,5.6l-1.5,3.9c-1,2.5-1.4,4.5-0.6,6
			c0.8,1.3,2.5,2,5.6,2.4l0.7,0.1c1.2,0.1,2.2,0.3,3.2,0.3c2.5,0,4.4-0.8,5.7-4.5l0.6-1.5l-4.1-0.7l-0.5,1.2
			c-0.8,2.1-1.7,2.1-4.5,1.6c-1.7-0.3-2.4-0.6-2.7-1c-0.3-0.5,0-1.6,0.6-3.2l1.5-3.7c1.2-3.1,1.9-3.5,5.1-3c1.5,0.2,2.6,0.5,2.8,0.9
			c0.1,0.2,0.1,0.7-0.2,1.3l-0.5,1.4l4.1,0.7L499,93C499.7,91,499.7,89.6,499.2,88.7z"/>
		<path class="st4" d="M511,96.5c-0.5-1-1.9-1.7-4.4-2.2c-5.2-1-6.7,0.3-8.7,5.1c-1.1,2.6-1.6,4.2-0.9,5.4c0.5,1,1.9,1.7,4.4,2.2
			c1.1,0.2,2,0.3,2.8,0.3c3,0,4.3-1.6,5.9-5.4C511.1,99.3,511.6,97.7,511,96.5z M502.4,104.1c-1-0.2-1.5-0.4-1.7-0.7
			c-0.3-0.5,0.2-1.6,0.8-3.1c1.3-3.1,1.7-3.5,4.1-3.1c1,0.2,1.5,0.4,1.7,0.8c0.2,0.5-0.1,1.4-0.8,3.2
			C505.1,104.1,504.7,104.6,502.4,104.1z"/>
		<path class="st4" d="M516.4,91.1l-0.1,0.3c-2.5,5.5-5,11-7.5,16.5l-0.2,0.4l3.7,0.8l0.1-0.3c2.5-5.5,5-11,7.5-16.5l0.2-0.4
			L516.4,91.1z"/>
		<path class="st4" d="M521.9,92.3l-0.1,0.3c-2.6,5.5-5.1,11-7.7,16.4l-0.2,0.4l3.6,0.8l0.1-0.3c2.5-5.5,5.1-11,7.7-16.4l0.2-0.4
			L521.9,92.3z"/>
		<path class="st4" d="M534.7,102.2c-0.5-1.1-1.7-1.7-4.1-2.4c-5-1.3-6.8,0.4-8.9,4.6c-1.1,2.2-1.7,4-1.1,5.4
			c0.5,1.1,1.7,1.8,4.1,2.4c1.3,0.3,2.5,0.6,3.5,0.6c1.8,0,3.1-0.8,4.3-3.1l0.2-0.4l-3.6-0.9l-0.1,0.3c-0.7,1.3-1.4,1.2-3.1,0.8
			c-1-0.2-1.5-0.5-1.6-0.8c-0.2-0.4,0.1-1.1,0.7-2.3c2.7,0.7,5.3,1.4,8,2l0.3,0.1l0.1-0.3C534.6,105.3,535.3,103.5,534.7,102.2z
			 M526.1,103.9c0.8-1.6,1.1-1.8,3.3-1.2c0.9,0.2,1.7,0.5,1.8,0.8c0.1,0.3-0.1,0.9-0.4,1.6C529.1,104.6,527.6,104.2,526.1,103.9z"/>
		<path class="st4" d="M545.7,104.2l-0.5,1c-0.4-1.2-1.7-1.8-2.9-2.1c-4.9-1.4-6.5,1.7-8.2,4.9c-1.2,2.2-1.8,3.8-1.2,5.1
			c0.4,1,1.4,1.7,3.1,2.2c1.1,0.3,2.5,0.6,3.9,0l-0.5,1c-0.9,1.7-1.4,2-3.8,1.4c-0.6-0.2-1.2-0.4-1.4-0.7c-0.1-0.2,0-0.6,0.3-1.2
			l0.2-0.4l-3.4-1l-0.1,0.2c-0.8,1.4-1.1,2.5-0.7,3.4c0.5,1.3,2.1,1.9,3.8,2.4c1.4,0.4,2.5,0.6,3.5,0.6c2.4,0,3.8-1.2,5.3-4.1
			c2-3.7,4-7.4,6-11.2l0.2-0.4L545.7,104.2z M541.9,106.1c0.9,0.3,1.5,0.6,1.6,1c0.2,0.6-0.1,1.5-0.8,2.7c-1.4,2.6-2,3.7-4.6,3
			c-0.7-0.2-1.2-0.5-1.3-0.8c-0.3-0.7,0.3-1.8,1.1-3.3l0,0C539.5,105.7,540.3,105.6,541.9,106.1z"/>
		<path class="st4" d="M560.5,110.2c-0.4-1.1-1.6-1.8-4-2.6c-4.9-1.6-6.8-0.1-9.2,4c-1.3,2.2-2,3.9-1.5,5.3c0.4,1.1,1.6,1.9,3.9,2.6
			c1.5,0.5,2.8,0.9,3.9,0.9c1.6,0,2.9-0.7,4.1-2.8l0.2-0.4l-3.5-1.2l-0.2,0.3c-0.7,1.3-1.4,1.1-3.1,0.6c-0.9-0.3-1.4-0.6-1.6-0.9
			c-0.2-0.4,0.2-1.1,0.8-2.2c2.6,0.9,5.2,1.7,7.8,2.6l0.3,0.1l0.2-0.3C560.3,113.3,561,111.6,560.5,110.2z M551.8,111.3
			c0.9-1.5,1.3-1.7,3.3-1c0.9,0.3,1.6,0.6,1.8,0.9c0.1,0.3-0.2,0.9-0.6,1.6C554.8,112.3,553.3,111.8,551.8,111.3z"/>
	</g>
</g>
<g>
	<path class="st3" d="M237,205.2c-4.8,16.9,15.1,23.2,28.5,22.1c27.3-2.2,24.5-27.1,14-35.2c0,0,1.6,12-10,10.4
		c-10.8-1.6-3.7-13.4-3.7-13.4s48-4.3,126,1.3c61.3,4.3,132.6,26.9,132.6,26.9c31.6-22.8,121.5-21.2,121.5-21.2
		C491,128,265.3,166.2,265.3,166.2c-8-36-91.3-42-100.4,10.4l-3.4-0.5c-16.9-1.5-17.3,5.3-17.3,5.3s-4.1,1.8-4.3,3.4
		c-0.2,1.5-0.5,1.4,0.3,2.6c0.8,1.3,5.6,2,5.6,2c6.3,6.8,14.9,3,21.5,0.9c2,7.5,12.7,7.4,12.7,7.4c2.8,0.7,0.2-5-1.1-8.1
		c43.7,0.8,61-1.3,61-1C239.9,192.6,238.5,199.8,237,205.2z M204.8,156.8c3.6-0.3,9.1-0.7,12.6-0.3c10.6,1.1,18.3,6.7,20.7,13.3
		c-0.6-0.9-21.4,1.5-23.7,1.7c-6.6,0.6-13.1,1.5-19.6,2.5c-5.2,0.8-10.9,2.3-16,2.7C178.5,161,197.9,157.3,204.8,156.8z"/>
	<g>
		<path class="st0" d="M239,201.7c-4.8,16.9,15.1,23.2,28.5,22.1c27.3-2.2,24.5-27.1,14-35.2c0,0,1.6,12-10,10.4
			c-10.8-1.6-3.7-13.4-3.7-13.4s48-4.3,126,1.3c61.3,4.3,132.6,26.9,132.6,26.9c31.6-22.8,121.5-21.2,121.5-21.2
			c-154.8-68.1-380.5-29.9-380.5-29.9c-8-36-91.3-42-100.4,10.4l-3.4-0.5c-16.9-1.5-17.3,5.3-17.3,5.3s-4.1,1.8-4.3,3.4
			c-0.2,1.5-0.5,1.4,0.3,2.6c0.8,1.3,5.6,2,5.6,2c6.3,6.8,14.9,3,21.5,0.9c2,7.5,12.7,7.4,12.7,7.4c2.8,0.7,0.2-5-1.1-8.1
			c43.7,0.8,61-1.3,61-1C241.9,189.1,240.5,196.3,239,201.7z M206.8,153.3c3.6-0.3,9.1-0.7,12.6-0.3c10.6,1.1,18.3,6.7,20.7,13.3
			c-0.6-0.9-21.4,1.5-23.7,1.7c-6.6,0.6-13.1,1.5-19.6,2.5c-5.2,0.8-10.9,2.3-16,2.7C180.5,157.5,199.9,153.8,206.8,153.3z"/>
		<path class="st4" d="M269.2,170.5c0-3.6-0.6-5.9-0.6-5.9s194.4-31.5,354.4,28.7c0,0-62.7-1.9-100.9,17.8c0,0-79.3-37.3-253.8-33.4
			C268.3,177.7,269.1,175.9,269.2,170.5z"/>
		<g>
			<path class="st4" d="M236.4,166.9c-0.2-0.2-0.4-0.3-0.6-0.3c0,0,0,0-0.1,0c-0.7-0.1-1.1,0-1.5,0.2c-1.2,0.8-0.8,3.7-0.3,7.7
				l0.3,2.2l0,0.1c-0.1,0.2-0.2,0.8,0.1,1.1c0,0,0.1,0.1,0.4,0.2c0.1,0,0.2,0,0.4,0c0,0,1.1,0,1.7-0.1
				C237.4,175.2,238.2,168.6,236.4,166.9z"/>
			<path class="st4" d="M229.3,166.9c-0.2-0.2-0.4-0.3-0.6-0.3c0,0,0,0-0.1,0c-0.7-0.1-1.1,0-1.5,0.2c-1.2,0.8-0.8,3.7-0.3,7.7
				l0.3,2.2l0,0.1c-0.1,0.2-0.2,0.8,0.2,1.1c0,0,0.1,0.1,0.4,0.2c0.1,0,0.2,0,0.4,0c0,0,1.1,0,1.7-0.1
				C230.4,175.2,231.2,168.5,229.3,166.9z"/>
			<path class="st4" d="M221.9,167.2c-0.2-0.2-0.4-0.3-0.6-0.3c0,0,0,0-0.1,0c-0.7-0.1-1.1,0-1.5,0.2c-1.2,0.8-0.8,3.7-0.3,7.7
				l0.3,2.2l0,0.1c-0.1,0.2-0.2,0.8,0.1,1.1c0,0,0.1,0.1,0.4,0.2c0.1,0,0.2,0,0.4,0c0,0,1.1,0,1.7-0.1
				C223,175.5,223.7,168.8,221.9,167.2z"/>
			<path class="st4" d="M212.5,167.8c0.3-0.2,0.8-0.3,1.5-0.2c0,0,0,0,0.1,0c0.2,0,0.5,0.1,0.7,0.3c1.8,1.6,1.1,7.8,0.6,10.3
				c-0.6,0-1.7,0-1.7,0c-0.1,0-0.3,0-0.4,0c-0.2,0-0.3-0.1-0.4-0.2c-0.3-0.3-0.2-0.8-0.1-1l0-0.1l-0.3-2.1L212.5,167.8z"/>
			<path class="st4" d="M207.6,169.1c-0.2-0.2-0.4-0.3-0.7-0.3c0,0-0.1,0-0.1,0c-0.7-0.1-1.1,0-1.4,0.2c-1,0.7-0.6,3,0,6.3l0.3,1.9
				l0,0.1c0,0.1-0.1,0.6,0.1,0.8c0.1,0.1,0.2,0.1,0.4,0.2c0.1,0,0.2,0,0.4,0c0,0,1.1,0,1.6,0C208.7,175.9,209.2,170.6,207.6,169.1z"
				/>
			<path class="st4" d="M200.6,169.7c-0.2-0.2-0.4-0.3-0.6-0.3c0,0,0,0,0,0c-0.8-0.1-1.1,0.1-1.3,0.2c-0.9,0.6-0.5,2.8,0,5.7
				l0.3,1.7l0,0.1c0,0.1-0.1,0.5,0.1,0.7c0.1,0.1,0.2,0.1,0.4,0.1c0.1,0,0.2,0,0.3,0c0,0,0.9,0,1.4,0
				C201.6,175.9,202.1,171.1,200.6,169.7z"/>
			<path class="st4" d="M194.4,170.6c-0.2-0.2-0.4-0.2-0.5-0.2c0,0,0,0,0,0l0,0c-0.7-0.1-1,0.1-1.1,0.2c-0.8,0.6-0.4,2.6,0,5.1
				l0.3,1.5l0,0.1c-0.1,0.1-0.1,0.5,0.1,0.6c0.1,0.1,0.2,0.1,0.3,0.1c0.1,0,0.2,0,0.3,0c0,0,0.7,0,1.2,0
				C195.2,176.1,195.7,171.8,194.4,170.6z"/>
			<path class="st4" d="M188.2,171.8c-0.1-0.1-0.3-0.2-0.4-0.2c0,0,0,0,0,0c-0.5-0.1-0.8,0-0.9,0.1c-0.6,0.5-0.3,2.1,0,4.3l0.2,1.3
				l0,0.1c0,0.1-0.1,0.4,0,0.5c0,0,0.1,0.1,0.2,0.1c0.1,0,0.2,0,0.2,0c0,0,0.6,0,1,0C188.9,176.3,189.3,172.8,188.2,171.8z"/>
		</g>
		<path class="st4" d="M178.8,186.3c-7.1-10.6-4.2-28.1,8.9-34.9c14.3-7.5,42.2-10.7,54.7,1.4c3.8,3.6,5.1,9.7,5.8,14.1
			c0.7,3.7,0.2,7.4,0,11c-0.3,4.6-1,9-2.2,13.4c-1.9,6.6-4.9,13.8,1.2,19.9c4.7,4.8,15.6,6.9,23.3,4.3c9.6-3.2,13.1-10.2,11.4-17.6
			c0.4,1.7-6.5,4.3-8.1,4.5c-7.8,1.3-15.1-3.8-15.4-9.1c-0.4-6.4,2.6-11.5,3.4-17.8c1.5-12.1-2.2-25.1-15.3-32.9
			c-16.4-9.8-42.6-8.4-57.4,0.9c-12.8,8.2-19.6,18.8-16.9,36.2C173.1,185.3,178.8,186.3,178.8,186.3z"/>
		<path class="st3" d="M274.9,205.3c-2.1,0.3-4.2,0.4-6.3,0.1c-2.4-0.3-4.8-1.1-7-2.3c-7.8-4.3-7.8-11.8-6.7-17.9
			c2.4-13.7,6.6-30-11-40.4c-15.4-9.2-39.8-7.5-53.1,1.8c4.7-3.3,14.3-4.6,23.3-4.6c31.3-0.1,40,15.5,39.1,31.9
			c-0.3,6.7-1.9,13.7-3.9,20.1c-1.5,5-3.5,11,1.1,15.7c2,2,5.5,3.4,9.3,3.9c3.1,0.4,6.3,0.3,8.9-0.6c5-1.7,8.1-4.7,9.2-8.5
			C276.2,204.9,274.9,205.3,274.9,205.3z"/>
		<path class="st4" d="M162.7,180l1.9-1.1c0,0-6.7,1.1-4.2-0.6c1.4-0.9-4.4-5-8.5-2.9c-0.2,0.1,0.2-0.5,0.2-0.5
			c0.3-0.5,1.1-0.9,1.7-1.2c1.5-0.7,3.5-1.3,5.4-0.6c1.7,0.6,2.7,2,4.1,2.9c1.3,0.8,0.8-1.5,0.7-1.8c-1.2-3.4-7.2-4.7-10.8-2.6
			c-1.4,0.8-2.3,2-3.1,3.2c0,0,0,0,0.1,0c-0.5,0.8-0.9,1.8-1.3,3C148.8,177.7,153.1,183.9,162.7,180z"/>
		<path class="st3" d="M270.2,170.5c0,0,4.5-2.1,11.5-2.5c38.8-2.4,165.6-7.8,236.3,17.2c0,0-115.2-22.2-236.2-13.7
			C278.8,171.7,270.2,170.5,270.2,170.5z"/>
	</g>
</g>
</svg>
