<?xml version="1.0" encoding="utf-8"?>
<!-- Generator: Adobe Illustrator 25.2.3, SVG Export Plug-In . SVG Version: 6.00 Build 0)  -->
<svg version="1.1" id="Layer_2" xmlns="http://www.w3.org/2000/svg" xmlns:xlink="http://www.w3.org/1999/xlink" x="0px" y="0px"
   viewBox="0 0 730.5 477.3" style="enable-background:new 0 0 730.5 477.3;" xml:space="preserve">
<style type="text/css">
  .st0{fill:#4B5875;}
  .st1{fill:#CFD0D9;}
  .st2{fill:#c61f48;}
  .st3{fill:#0f3b63;}
  .st4{fill:#fff;}
</style>
<g id="shield">
  <path class="st0" d="M222.4,93.7c0,0,83.7-21.2,141.2-21.2s142.5,22.5,142.5,22.5v217.2c0,0-47.5,35-63.8,43.8
    s-77.5,37.5-77.5,37.5s-52.5-25-66.2-32.5s-77.5-48.8-77.5-48.8S222.4,92.4,222.4,93.7z"/>
  <path class="st1" d="M543.8,48.9c-4.2-1.7-8.7-3.4-13.7-5.1c-5.6-2-10.5-3.6-14.9-4.9c-21.6-6.6-46.3-11.6-73.5-15
    c-24.1-3-49.9-4.5-76.5-4.5h0h-0.5h0c-26.6,0-52.3,1.5-76.5,4.5c-27.2,3.4-52,8.4-73.5,15c-4.4,1.3-9.3,2.9-14.9,4.9
    c-5,1.7-9.5,3.4-13.7,5.1l-13.8,5.7v290.1l8.8,7.1c23.5,19,155,100.2,183.6,102.5l0.1,0v0.1l0.4-0.1l0.1,0v0l0.1,0
    c16.2-2.9,59.7-26.6,88.5-42.3c5.3-2.9,10.2-5.5,14.3-7.7c31-16.6,58.2-34.3,80.8-52.5l8.8-7.1V54.6L543.8,48.9z M293.9,355.1
    c-2.6-1.4-5.2-2.8-7.9-4.2c-23.3-12.5-44-25.5-61.5-38.8V96.4c2.7-0.9,6.3-2.1,10.8-3.4c18.4-5.6,39.6-9.9,62.9-12.8
    c20.9-2.6,44.1-4,67.2-4c22.8,0.1,45,1.4,66.2,4c23.3,2.9,44.5,7.2,62.9,12.8c4.4,1.4,8.1,2.5,10.8,3.4v215.6
    c-17.5,13.2-38.2,26.3-61.5,38.8c-4.5,2.4-9,4.9-13.4,7.3c-21.2,11.5-41.3,22.4-65,31.8C339.7,379.7,317.5,367.8,293.9,355.1z"/>
  <path class="st2" d="M283.1,355.8c-23.4-12.5-45-26-63.9-40.3V90.7c3-1,6.8-2.2,11.5-3.6c18.8-5.7,40.9-10.3,65.2-13.3
    c21.6-2.7,45.7-4.1,69.8-4.2V27.1c-26.2,0-52.1,1.5-75,4.4c-26.5,3.3-50.6,8.2-71.2,14.5c-4.1,1.2-8.8,2.8-14.4,4.7
    c-4.7,1.6-9.1,3.3-13.3,5L178.7,61v279.7l8.3,6.7c22.8,18.4,151.1,97,178.7,99.3v-50.3C335.8,384.6,310.4,370.4,283.1,355.8z"/>
  <path class="st3" d="M446.8,355.8c23.4-12.5,45-26,63.9-40.3V90.7c-3-1-6.8-2.2-11.5-3.6c-18.8-5.7-40.9-10.3-65.2-13.3
    c-21.6-2.7-44.7-4.1-68.8-4.2V27.1c26.2,0,51.1,1.5,74,4.4c26.5,3.3,50.6,8.2,71.2,14.5c4.1,1.2,8.8,2.8,14.4,4.7
    c4.7,1.6,9.1,3.3,13.3,5l13.1,5.4v279.7l-8.3,6.7c-22.8,18.4-49.4,35.4-78.2,50.9c-25.7,13.8-81,45.1-99.4,48.4v-50.3
    C395,384.6,419.4,370.4,446.8,355.8z"/>
</g>
<g id="kcc_text">
  <g id="blue_kcc-text_background">
    <path class="st3" d="M218.3,77.7c-2.8-2.1-5.6-4.2-8.4-6.3c1.8-3.6,3.6-7.3,5.4-10.9l-0.5-0.5l-4.1,1.5l-0.1,0.1
      c-1.5,3.1-3,6.1-4.5,9.2l-0.9,0.3l-1-7.3l-3.9,1.4l0,0.3c0.9,6,1.7,12,2.5,17.9l0.1,0.5l3.9-1.4l-1.1-7.7l1-0.4
      c2.3,1.8,4.7,3.6,7,5.3l0.2,0.1l4.9-1.8L218.3,77.7z"/>
    <path class="st3" d="M229,66.7c-0.2-2-0.6-3.2-1.5-3.8c-1.1-0.7-2.6-0.5-4.8,0.2c-2.4,0.7-5.4,1.6-5,5.8l0,0.5l3.6-1.1l0-0.3
      c-0.1-1.4,0.6-1.7,1.8-2.1c1-0.3,1.5-0.3,1.8-0.2c0.3,0.2,0.4,0.9,0.5,1.8l0.1,0.8c-1-0.6-2.3-0.2-3.4,0.2
      c-2.8,0.9-4.6,2.2-4.3,5.6c0.1,1.5,0.6,2.5,1.3,3c0.4,0.3,1,0.4,1.5,0.4c0.8,0,1.6-0.2,2.4-0.5c1-0.3,2.3-0.7,3.1-1.8l0,0.6
      l3.6-1.1L229,66.7z M221.7,74.3c-0.2-0.1-0.3-0.5-0.4-1.1v0c-0.1-1.4,0.6-1.7,2.2-2.2c0.5-0.1,1.1-0.3,1.5-0.3
      c0.2,0,0.3,0,0.5,0.1c0.2,0.1,0.3,0.4,0.4,0.9c0.1,1.4-0.5,1.9-2.2,2.4C222.8,74.3,222,74.5,221.7,74.3z"/>
    <path class="st3" d="M241.9,62.9c-0.1-1.8-0.5-2.9-1.3-3.5c-0.8-0.6-1.9-0.6-3.5-0.2c-1.3,0.3-2.6,0.8-3.4,2l0-0.9l-3.6,1
      l0.7,13.4l3.6-1l-0.4-7.3c-0.1-2.3,0.2-3.3,2.4-3.9c0.8-0.2,1.2-0.2,1.5,0c0.2,0.2,0.4,0.7,0.4,1.6l0.4,8.5l3.6-1L241.9,62.9z"/>
    <path class="st3" d="M256.1,67.8c-1.7-1.8-3.4-3.6-5.1-5.3c1.4-2.2,2.7-4.5,4.1-6.7l0.5-0.8l-4.3,1l-0.1,0.1
      c-1.1,1.9-2.2,3.7-3.2,5.6l-0.1,0l-0.2-10.4l-3.7,0.8l0.4,18.9l3.6-0.8l-0.1-5.7l0.2,0c1.3,1.5,2.7,3.1,4,4.6l0.1,0.2l4.4-1
      L256.1,67.8z"/>
    <path class="st3" d="M267.1,53.8c-1-0.8-2.6-0.7-4.8-0.3c-2.5,0.5-5.5,1.1-5.6,5.2l0,0.5l3.7-0.7l0-0.3c0-1.4,0.8-1.6,2-1.9
      c1-0.2,1.6-0.2,1.8,0c0.3,0.2,0.3,1,0.3,1.9l0,0.8c-0.9-0.7-2.3-0.4-3.4-0.2c-2.9,0.6-4.8,1.7-4.9,5.2c0,1.5,0.3,2.6,1,3.1
      c0.5,0.4,1.2,0.6,2,0.6c0.6,0,1.3-0.1,1.9-0.2c1-0.2,2.4-0.5,3.3-1.4l-0.1,0.6l3.7-0.7l0.1-8.3C268.3,55.7,267.9,54.5,267.1,53.8z
       M264.5,62.3c0,1.4-0.7,1.8-2.4,2.1c-0.9,0.2-1.7,0.3-2,0.1c-0.2-0.1-0.3-0.5-0.2-1.1v0c0-1.4,0.8-1.7,2.4-2
      c0.4-0.1,0.9-0.2,1.3-0.2c0.3,0,0.5,0,0.6,0.2C264.4,61.6,264.5,61.9,264.5,62.3z"/>
    <path class="st3" d="M281.6,63.1c-1.6-1.9-3.2-3.7-4.8-5.6c1.5-2.2,3-4.3,4.5-6.5l0.5-0.7l-4.4,0.7l-0.1,0.1
      c-1.2,1.8-2.4,3.6-3.6,5.4l-0.1,0l0.4-10.4l-3.7,0.6l0,0.3c-0.2,6-0.5,12.1-0.7,18.1l0,0.5l3.7-0.6l0.2-5.7l0.2,0
      c1.2,1.6,2.5,3.2,3.7,4.8l0.1,0.2l4.4-0.7L281.6,63.1z"/>
    <path class="st3" d="M292.9,49.9c-0.9-0.8-2.2-1-4.8-0.6c-5.1,0.7-6.1,3-6.5,7.7c-0.2,2.5-0.1,4.4,1,5.4c0.6,0.6,1.4,0.8,2.7,0.8
      c0.6,0,1.2-0.1,2-0.2c3.7-0.5,6-1.2,6.3-5.3l0-0.5l-3.7,0.5l0,0.3c-0.1,1.5-0.8,1.6-2.6,1.9c-1,0.1-1.6,0.1-1.8-0.1
      c-0.3-0.3-0.3-1.1-0.2-2.4c2.7-0.4,5.4-0.8,8.2-1.2l0.3,0l0-0.3C294,52.8,293.9,50.9,292.9,49.9z M285.5,54.7
      c0.1-1.7,0.4-2.1,2.5-2.4c0.5-0.1,1-0.1,1.3-0.1c0.3,0,0.5,0,0.7,0.2c0.2,0.2,0.3,0.9,0.2,1.7C288.7,54.3,287.1,54.5,285.5,54.7z"
      />
    <path class="st3" d="M306.5,48.3c-0.8-0.8-2.2-1-4.7-0.7c-5.2,0.6-6.2,2.8-6.7,7.5c-0.2,2.5-0.2,4.4,0.9,5.4
      c0.6,0.6,1.5,0.9,2.9,0.9c0.5,0,1.1,0,1.7-0.1c3.8-0.4,6.1-1,6.5-5.2l0-0.5l-3.7,0.4l0,0.3c-0.1,1.5-0.8,1.6-2.6,1.8
      c-1,0.1-1.6,0.1-1.8-0.2c-0.3-0.3-0.3-1.1-0.2-2.4c2.7-0.3,5.5-0.6,8.2-0.9l0.3,0l0-0.3C307.5,51.3,307.5,49.4,306.5,48.3z
       M299,53c0.2-1.7,0.4-2.1,2.6-2.3c0.5-0.1,0.9-0.1,1.3-0.1c0.4,0,0.6,0,0.7,0.2c0.2,0.2,0.2,0.9,0.2,1.7
      C302.2,52.6,300.6,52.8,299,53z"/>
    <path class="st3" d="M331.3,41c-1.2-1.2-3.3-1-6-0.8c-5.2,0.4-7.9,1.7-8.8,7.9l-0.5,4.1c-0.3,2.7-0.3,4.7,0.9,5.9
      c0.8,0.8,2,1.1,3.8,1.1c0.6,0,1.4,0,2.2-0.1l0.7-0.1c4.1-0.5,7-0.8,7.7-6.2l0.2-1.6l-4.2,0.3l-0.2,1.3c-0.3,2.2-1.2,2.4-4,2.6
      c-1.7,0.1-2.5,0-2.9-0.4c-0.4-0.5-0.4-1.5-0.2-3.2l0.5-4c0.4-3.3,1-3.8,4.3-4.1c1.5-0.1,2.6-0.2,3,0.2c0.2,0.2,0.2,0.6,0.1,1.3
      l-0.2,1.4l4.2-0.3l0.2-1.3C332.3,43.2,332.1,41.8,331.3,41z"/>
    <path class="st3" d="M344.6,45.8c-0.8-0.9-2.2-1.2-4.8-1.1c-5.3,0.2-6.4,1.9-7.3,7c-0.4,2.8-0.5,4.4,0.4,5.5
      c0.7,0.8,1.8,1.1,3.8,1.1c0.3,0,0.6,0,1,0c5.3-0.3,6.4-1.9,7.3-7v0C345.4,48.5,345.5,46.8,344.6,45.8z M341.2,51.3
      c-0.5,3.3-0.8,3.8-3.2,3.9c-1,0-1.6,0-1.8-0.3c-0.4-0.4-0.2-1.6,0-3.2c0.6-3.3,0.8-3.9,3.2-4c1.1,0,1.6,0,1.8,0.3
      C341.6,48.5,341.5,49.5,341.2,51.3z"/>
    <path class="st3" d="M366.1,45.2c-0.6-0.7-1.7-1-3.5-1c-1.9,0-3.3,0.6-4.2,1.8c-0.1-0.3-0.3-0.5-0.5-0.8c-0.6-0.6-1.6-0.9-3-0.9
      c-1.6,0-2.9,0.4-3.8,1.2l0.2-1l-3.7,0.1l-0.1,0.3c-0.8,4.2-1.6,8.3-2.4,12.5l-0.1,0.5l3.8-0.1l1.4-7.3c0.4-2.1,1-3,3.2-3.1
      c0.6,0,1,0.1,1.2,0.3c0.2,0.2,0.2,0.7,0.1,1.4l-1.7,8.6l3.7-0.1l1.4-7.3c0.4-2.1,1-3,3.2-3c0.6,0,1,0.1,1.2,0.3
      c0.2,0.2,0.2,0.7,0.1,1.4c-0.5,2.7-1.1,5.4-1.6,8.1l-0.1,0.5l3.8-0.1l0.1-0.3c0.6-2.8,1.1-5.6,1.7-8.4
      C366.8,47,366.7,45.9,366.1,45.2z"/>
  </g>
  <g id="white_kcc-text">
    <path class="st4" d="M216.3,75.7c-2.8-2.1-5.6-4.2-8.4-6.3c1.8-3.6,3.6-7.3,5.4-10.9l-0.5-0.5l-4.1,1.5l-0.1,0.1
      c-1.5,3.1-3,6.1-4.5,9.2l-0.9,0.3l-1-7.3l-3.9,1.4l0,0.3c0.9,6,1.7,12,2.5,17.9l0.1,0.5l3.9-1.4l-1.1-7.7l1-0.4
      c2.3,1.8,4.7,3.6,7,5.3l0.2,0.1l4.9-1.8L216.3,75.7z"/>
    <path class="st4" d="M227,64.7c-0.2-2-0.6-3.2-1.5-3.8c-1.1-0.7-2.6-0.5-4.8,0.2c-2.4,0.7-5.4,1.6-5,5.8l0,0.5l3.6-1.1l0-0.3
      c-0.1-1.4,0.6-1.7,1.8-2.1c1-0.3,1.5-0.3,1.8-0.2c0.3,0.2,0.4,0.9,0.5,1.8l0.1,0.8c-1-0.6-2.3-0.2-3.4,0.2
      c-2.8,0.9-4.6,2.2-4.3,5.6c0.1,1.5,0.6,2.5,1.3,3c0.4,0.3,1,0.4,1.5,0.4c0.8,0,1.6-0.2,2.4-0.5c1-0.3,2.3-0.7,3.1-1.8l0,0.6
      l3.6-1.1L227,64.7z M219.7,72.3c-0.2-0.1-0.3-0.5-0.4-1.1v0c-0.1-1.4,0.6-1.7,2.2-2.2c0.5-0.1,1.1-0.3,1.5-0.3
      c0.2,0,0.3,0,0.5,0.1c0.2,0.1,0.3,0.4,0.4,0.9c0.1,1.4-0.5,1.9-2.2,2.4C220.8,72.3,220,72.5,219.7,72.3z"/>
    <path class="st4" d="M239.9,60.9c-0.1-1.8-0.5-2.9-1.3-3.5c-0.8-0.6-1.9-0.6-3.5-0.2c-1.3,0.3-2.6,0.8-3.4,2l0-0.9l-3.6,1
      l0.7,13.4l3.6-1l-0.4-7.3c-0.1-2.3,0.2-3.3,2.4-3.9c0.8-0.2,1.2-0.2,1.5,0c0.2,0.2,0.4,0.7,0.4,1.6l0.4,8.5l3.6-1L239.9,60.9z"/>
    <path class="st4" d="M254.1,65.8c-1.7-1.8-3.4-3.6-5.1-5.3c1.4-2.2,2.7-4.5,4.1-6.7l0.5-0.8l-4.3,1l-0.1,0.1
      c-1.1,1.9-2.2,3.7-3.2,5.6l-0.1,0l-0.2-10.4l-3.7,0.8l0.4,18.9l3.6-0.8l-0.1-5.7l0.2,0c1.3,1.5,2.7,3.1,4,4.6l0.1,0.2l4.4-1
      L254.1,65.8z"/>
    <path class="st4" d="M265.1,51.8c-1-0.8-2.6-0.7-4.8-0.3c-2.5,0.5-5.5,1.1-5.6,5.2l0,0.5l3.7-0.7l0-0.3c0-1.4,0.8-1.6,2-1.9
      c1-0.2,1.6-0.2,1.8,0c0.3,0.2,0.3,1,0.3,1.9l0,0.8c-0.9-0.7-2.3-0.4-3.4-0.2c-2.9,0.6-4.8,1.7-4.9,5.2c0,1.5,0.3,2.6,1,3.1
      c0.5,0.4,1.2,0.6,2,0.6c0.6,0,1.3-0.1,1.9-0.2c1-0.2,2.4-0.5,3.3-1.4l-0.1,0.6l3.7-0.7l0.1-8.3C266.3,53.7,265.9,52.5,265.1,51.8z
       M262.5,60.3c0,1.4-0.7,1.8-2.4,2.1c-0.9,0.2-1.7,0.3-2,0.1c-0.2-0.1-0.3-0.5-0.2-1.1v0c0-1.4,0.8-1.7,2.4-2
      c0.4-0.1,0.9-0.2,1.3-0.2c0.3,0,0.5,0,0.6,0.2C262.4,59.6,262.5,59.9,262.5,60.3z"/>
    <path class="st4" d="M279.6,61.1c-1.6-1.9-3.2-3.7-4.8-5.6c1.5-2.2,3-4.3,4.5-6.5l0.5-0.7l-4.4,0.7l-0.1,0.1
      c-1.2,1.8-2.4,3.6-3.6,5.4l-0.1,0l0.4-10.4l-3.7,0.6l0,0.3c-0.2,6-0.5,12.1-0.7,18.1l0,0.5l3.7-0.6l0.2-5.7l0.2,0
      c1.2,1.6,2.5,3.2,3.7,4.8l0.1,0.2l4.4-0.7L279.6,61.1z"/>
    <path class="st4" d="M290.9,47.9c-0.9-0.8-2.2-1-4.8-0.6c-5.1,0.7-6.1,3-6.5,7.7c-0.2,2.5-0.1,4.4,1,5.4c0.6,0.6,1.4,0.8,2.7,0.8
      c0.6,0,1.2-0.1,2-0.2c3.7-0.5,6-1.2,6.3-5.3l0-0.5l-3.7,0.5l0,0.3c-0.1,1.5-0.8,1.6-2.6,1.9c-1,0.1-1.6,0.1-1.8-0.1
      c-0.3-0.3-0.3-1.1-0.2-2.4c2.7-0.4,5.4-0.8,8.2-1.2l0.3,0l0-0.3C292,50.8,291.9,48.9,290.9,47.9z M283.5,52.7
      c0.1-1.7,0.4-2.1,2.5-2.4c0.5-0.1,1-0.1,1.3-0.1c0.3,0,0.5,0,0.7,0.2c0.2,0.2,0.3,0.9,0.2,1.7C286.7,52.3,285.1,52.5,283.5,52.7z"
      />
    <path class="st4" d="M304.5,46.3c-0.8-0.8-2.2-1-4.7-0.7c-5.2,0.6-6.2,2.8-6.7,7.5c-0.2,2.5-0.2,4.4,0.9,5.4
      c0.6,0.6,1.5,0.9,2.9,0.9c0.5,0,1.1,0,1.7-0.1c3.8-0.4,6.1-1,6.5-5.2l0-0.5l-3.7,0.4l0,0.3c-0.1,1.5-0.8,1.6-2.6,1.8
      c-1,0.1-1.6,0.1-1.8-0.2c-0.3-0.3-0.3-1.1-0.2-2.4c2.7-0.3,5.5-0.6,8.2-0.9l0.3,0l0-0.3C305.5,49.3,305.5,47.4,304.5,46.3z
       M297,51c0.2-1.7,0.4-2.1,2.6-2.3c0.5-0.1,0.9-0.1,1.3-0.1c0.4,0,0.6,0,0.7,0.2c0.2,0.2,0.2,0.9,0.2,1.7
      C300.2,50.6,298.6,50.8,297,51z"/>
    <path class="st4" d="M329.3,39c-1.2-1.2-3.3-1-6-0.8c-5.2,0.4-7.9,1.7-8.8,7.9l-0.5,4.1c-0.3,2.7-0.3,4.7,0.9,5.9
      c0.8,0.8,2,1.1,3.8,1.1c0.6,0,1.4,0,2.2-0.1l0.7-0.1c4.1-0.5,7-0.8,7.7-6.2l0.2-1.6l-4.2,0.3l-0.2,1.3c-0.3,2.2-1.2,2.4-4,2.6
      c-1.7,0.1-2.5,0-2.9-0.4c-0.4-0.5-0.4-1.5-0.2-3.2l0.5-4c0.4-3.3,1-3.8,4.3-4.1c1.5-0.1,2.6-0.2,3,0.2c0.2,0.2,0.2,0.6,0.1,1.3
      l-0.2,1.4l4.2-0.3l0.2-1.3C330.3,41.2,330.1,39.8,329.3,39z"/>
    <path class="st4" d="M342.6,43.8c-0.8-0.9-2.2-1.2-4.8-1.1c-5.3,0.2-6.4,1.9-7.3,7c-0.4,2.8-0.5,4.4,0.4,5.5
      c0.7,0.8,1.8,1.1,3.8,1.1c0.3,0,0.6,0,1,0c5.3-0.3,6.4-1.9,7.3-7v0C343.4,46.5,343.5,44.8,342.6,43.8z M339.2,49.3
      c-0.5,3.3-0.8,3.8-3.2,3.9c-1,0-1.6,0-1.8-0.3c-0.4-0.4-0.2-1.6,0-3.2c0.6-3.3,0.8-3.9,3.2-4c1.1,0,1.6,0,1.8,0.3
      C339.6,46.5,339.5,47.5,339.2,49.3z"/>
    <path class="st4" d="M364.1,43.2c-0.6-0.7-1.7-1-3.5-1c-1.9,0-3.3,0.6-4.2,1.8c-0.1-0.3-0.3-0.5-0.5-0.8c-0.6-0.6-1.6-0.9-3-0.9
      c-1.6,0-2.9,0.4-3.8,1.2l0.2-1l-3.7,0.1l-0.1,0.3c-0.8,4.2-1.6,8.3-2.4,12.5l-0.1,0.5l3.8-0.1l1.4-7.3c0.4-2.1,1-3,3.2-3.1
      c0.6,0,1,0.1,1.2,0.3c0.2,0.2,0.2,0.7,0.1,1.4l-1.7,8.6l3.7-0.1l1.4-7.3c0.4-2.1,1-3,3.2-3c0.6,0,1,0.1,1.2,0.3
      c0.2,0.2,0.2,0.7,0.1,1.4c-0.5,2.7-1.1,5.4-1.6,8.1l-0.1,0.5l3.8-0.1l0.1-0.3c0.6-2.8,1.1-5.6,1.7-8.4
      C364.8,45,364.7,43.9,364.1,43.2z"/>
    <path class="st4" d="M385.9,43.6c-0.6-0.8-1.6-1.1-3.4-1.2c-1.9,0-3.4,0.5-4.3,1.6c-0.1-0.3-0.2-0.6-0.5-0.8c-0.6-0.6-1.6-1-3-1
      c-1.6,0-2.9,0.3-3.8,1.1l0.2-1l-3.7-0.1l-0.1,0.3c-1,4.1-1.9,8.2-2.9,12.4l-0.1,0.5l3.8,0.1l1.7-7.3c0.5-2.1,1.1-3,3.3-2.9
      c0.6,0,1,0.1,1.2,0.3c0.2,0.2,0.2,0.7,0.1,1.4c-0.6,2.7-1.3,5.4-1.9,8.1l-0.1,0.5l3.8,0.1l1.7-7.3c0.5-2.1,1.1-3,3.3-2.9
      c0.6,0,1,0.1,1.2,0.3c0.2,0.2,0.2,0.7,0,1.4c-0.6,2.7-1.3,5.4-1.9,8.1l-0.1,0.5l3.8,0.1l0.1-0.3c0.7-2.8,1.3-5.6,2-8.3
      C386.5,45.4,386.4,44.4,385.9,43.6z"/>
    <path class="st4" d="M396.7,43.2l-0.1,0.3c-0.6,2.4-1.3,4.7-1.9,7.1c-0.5,2.1-1.4,2.8-3.5,2.7c-0.7,0-1.1-0.1-1.2-0.3
      c-0.2-0.3-0.1-0.8,0.1-1.7c0.7-2.6,1.4-5.2,2.1-7.7l0.1-0.4l-3.8-0.2l-0.1,0.3c-0.8,3-1.6,5.9-2.3,8.9c-0.3,1.2-0.2,2.2,0.3,2.9
      c0.6,0.8,1.7,1.2,3.3,1.3c1.1,0.1,2.6,0,3.9-1l-0.3,1.1l3.6,0.2l0.1-0.3c1.1-4.1,2.2-8.2,3.3-12.3l0.1-0.4L396.7,43.2z"/>
    <path class="st4" d="M413,45.3c-0.6-0.8-1.6-1.2-3.3-1.3c-1.3-0.1-2.7-0.1-3.8,0.8l0.3-0.9l-3.8-0.3l-0.1,0.3
      c-1.2,4.1-2.3,8.1-3.5,12.2l-0.1,0.4l3.7,0.3l2-7c0.6-2.2,1.3-3.1,3.6-2.9c0.8,0.1,1.2,0.2,1.4,0.4c0.2,0.3,0.1,0.8-0.1,1.6
      c-0.8,2.6-1.5,5.2-2.2,7.7l-0.1,0.4l3.7,0.3l0.1-0.3c0.8-2.7,1.6-5.4,2.3-8C413.6,47.2,413.5,46.1,413,45.3z"/>
    <path class="st4" d="M415.9,44.9c-1.2,4-2.5,8.1-3.7,12.1l-0.1,0.4l3.7,0.3l0.1-0.3c1.2-4,2.5-8.1,3.7-12.1l0.1-0.4l-3.8-0.3
      L415.9,44.9z"/>
    <polygon class="st4" points="417.6,39.4 416.6,42.6 420.4,42.9 421.4,39.7     "/>
    <path class="st4" d="M425.6,48.6l4.7,0.5l1-2.9l-4.8-0.5l0.9-2.7l-3.7-0.4l-0.9,2.7l-1.6-0.2l-1,2.9l1.6,0.2l-1.9,5.8
      c-0.5,1.7-0.6,2.7-0.1,3.4c0.5,0.7,1.5,1.1,3.4,1.3c0.4,0,0.7,0.1,1.1,0.1c2.6,0,3.9-1.3,5-4.7l0.1-0.4l-3.4-0.4L426,54
      c-0.4,1.3-0.7,1.9-1.8,1.8c-0.5-0.1-0.6-0.2-0.6-0.2c-0.1-0.1,0.1-0.6,0.2-1.1L425.6,48.6z"/>
    <path class="st4" d="M441.1,47.4l-0.1,0.2c-1.8,2.9-3.5,5.8-5.3,8.7l0.4-9.6l-3.8-0.5l-0.1,13.3l1.2,0.2c-0.7,1.2-1.4,2.3-2.8,2.2
      c-0.1,0-0.3-0.1-0.4-0.1l-0.5-0.1l-1,2.9l0.4,0.1c0.2,0,0.3,0.1,0.5,0.1c0.3,0.1,0.5,0.1,0.8,0.1c0.3,0,0.6,0.1,0.9,0.1
      c3,0,4.3-2.1,5.8-4.5c2.5-4,5-8,7.6-12.1l0.3-0.5L441.1,47.4z"/>
    <path class="st4" d="M467.8,47.3c-0.9-1.4-3-1.8-5.6-2.2c-5.1-0.9-8.1-0.2-10.4,5.6l-1.5,3.9c-1,2.5-1.4,4.5-0.6,6
      c0.8,1.3,2.5,2,5.6,2.4l0.7,0.1c1.2,0.1,2.2,0.3,3.2,0.3c2.5,0,4.4-0.8,5.7-4.5l0.6-1.5l-4.1-0.7l-0.5,1.2
      c-0.8,2.1-1.7,2.1-4.5,1.6c-1.7-0.3-2.4-0.6-2.7-1c-0.3-0.5,0-1.6,0.6-3.2l1.5-3.7c1.2-3.1,1.9-3.5,5.1-3c1.5,0.2,2.6,0.5,2.8,0.9
      c0.1,0.2,0.1,0.7-0.2,1.3l-0.5,1.4l4.1,0.7l0.5-1.2C468.3,49.7,468.4,48.3,467.8,47.3z"/>
    <path class="st4" d="M479.6,55.2c-0.5-1-1.9-1.7-4.4-2.2c-5.2-1-6.7,0.3-8.7,5.1c-1.1,2.6-1.6,4.2-0.9,5.4c0.5,1,1.9,1.7,4.4,2.2
      c1.1,0.2,2,0.3,2.8,0.3c3,0,4.3-1.6,5.9-5.4C479.8,58,480.2,56.4,479.6,55.2z M471,62.8c-1-0.2-1.5-0.4-1.7-0.7
      c-0.3-0.5,0.2-1.6,0.8-3.1c1.3-3.1,1.7-3.5,4.1-3.1c1,0.2,1.5,0.4,1.7,0.8c0.2,0.5-0.1,1.4-0.8,3.2
      C473.7,62.8,473.3,63.2,471,62.8z"/>
    <path class="st4" d="M485,49.7l-0.1,0.3c-2.5,5.5-5,11-7.5,16.5l-0.2,0.4l3.7,0.8l0.1-0.3c2.5-5.5,5-11,7.5-16.5l0.2-0.4L485,49.7
      z"/>
    <path class="st4" d="M490.5,51l-0.1,0.3c-2.6,5.5-5.1,11-7.7,16.4l-0.2,0.4l3.6,0.8l0.1-0.3c2.5-5.5,5.1-11,7.7-16.4l0.2-0.4
      L490.5,51z"/>
    <path class="st4" d="M503.3,60.9c-0.5-1.1-1.7-1.7-4.1-2.4c-5-1.3-6.8,0.4-8.9,4.6c-1.1,2.2-1.7,4-1.1,5.4
      c0.5,1.1,1.7,1.8,4.1,2.4c1.3,0.3,2.5,0.6,3.5,0.6c1.8,0,3.1-0.8,4.3-3.1l0.2-0.4l-3.6-0.9l-0.1,0.3c-0.7,1.3-1.4,1.2-3.1,0.8
      c-1-0.2-1.5-0.5-1.6-0.8c-0.2-0.4,0.1-1.1,0.7-2.3c2.7,0.7,5.3,1.4,8,2l0.3,0.1l0.1-0.3C503.3,64,503.9,62.2,503.3,60.9z
       M494.7,62.5c0.8-1.6,1.1-1.8,3.3-1.2c0.9,0.2,1.7,0.5,1.8,0.8c0.1,0.3-0.1,0.9-0.4,1.6C497.8,63.3,496.2,62.9,494.7,62.5z"/>
    <path class="st4" d="M514.4,62.9l-0.5,1c-0.4-1.2-1.7-1.8-2.9-2.1c-4.9-1.4-6.5,1.7-8.2,4.9c-1.2,2.2-1.8,3.8-1.2,5.1
      c0.4,1,1.4,1.7,3.1,2.2c1.1,0.3,2.5,0.6,3.9,0l-0.5,1c-0.9,1.7-1.4,2-3.8,1.4c-0.6-0.2-1.2-0.4-1.4-0.7c-0.1-0.2,0-0.6,0.3-1.2
      l0.2-0.4l-3.4-1l-0.1,0.2c-0.8,1.4-1.1,2.5-0.7,3.4c0.5,1.3,2.1,1.9,3.8,2.4c1.4,0.4,2.5,0.6,3.5,0.6c2.4,0,3.8-1.2,5.3-4.1
      c2-3.7,4-7.4,6-11.2l0.2-0.4L514.4,62.9z M510.5,64.8c0.9,0.3,1.5,0.6,1.6,1c0.2,0.6-0.1,1.5-0.8,2.7c-1.4,2.6-2,3.7-4.6,3
      c-0.7-0.2-1.2-0.5-1.3-0.8c-0.3-0.7,0.3-1.8,1.1-3.3l0,0C508.2,64.4,508.9,64.3,510.5,64.8z"/>
    <path class="st4" d="M529.1,68.9c-0.4-1.1-1.6-1.8-4-2.6c-4.9-1.6-6.8-0.1-9.2,4c-1.3,2.2-2,3.9-1.5,5.3c0.4,1.1,1.6,1.9,3.9,2.6
      c1.5,0.5,2.8,0.9,3.9,0.9c1.6,0,2.9-0.7,4.1-2.8l0.2-0.4l-3.5-1.2l-0.2,0.3c-0.7,1.3-1.4,1.1-3.1,0.6c-0.9-0.3-1.4-0.6-1.6-0.9
      c-0.2-0.4,0.2-1.1,0.8-2.2c2.6,0.9,5.2,1.7,7.8,2.6l0.3,0.1l0.2-0.3C528.9,72,529.7,70.2,529.1,68.9z M520.4,69.9
      c0.9-1.5,1.3-1.7,3.3-1c0.9,0.3,1.6,0.6,1.8,0.9c0.1,0.3-0.2,0.9-0.6,1.6C523.5,70.9,522,70.4,520.4,69.9z"/>
  </g>
</g>
<g id="cavaliers-text">
  <path id="blue_text_background" class="st3" d="M697.7,247.2c-0.1-0.1-0.3-0.2-0.4-0.4c-3.8-3.1-7.8-6.2-11.8-9.2
    c-1-0.9-1.8-1.7-2.5-2.6c6.4-8.2,12.2-16,14.1-20.8c1.7-1.8,2.8-4.2,3.2-6.8c0.6-4.4,1.1-8.8,1.6-13.1c1.7-3.7,2.9-5.7,3.6-6.8
    c2.6-3.6,3-8.3,1.2-12.4c-1.8-4-5.6-6.8-10-7.3c-0.3,0-3.6-0.5-13-5.6c-0.1,0-0.2-0.1-0.2-0.1c-9-4.6-16.7-6.8-23.7-6.8
    c-14.7,0-27.5,6.5-37,18.7c-5.1,6.6-8.8,14.2-11,22.7c0-0.1,0-0.1-0.1-0.2c-3.6-7.9-10.9-13.9-21.6-17.8c-7.1-2.6-14.1-4-20.8-4
    c-2.4,0-6.1,0.3-17,2.6c-1.4,0.3-2.7,0.6-3.8,0.9c-3.3-1.3-6.4-2-9.3-2c-3.8,0-6.8,0.8-9.2,1.9c-2.3-0.4-4.7-0.3-6.9,0.6
    c-0.7,0.3-1.1,0.3-1.2,0.3c-0.4,0-2.6-0.1-8.9-2.1c-6.7-2-12.1-3.1-16.5-3.1c-3.2,0-6.6,0.3-10.3,0.9c-0.8,0.1-1.6,0.4-2.3,0.6
    c-0.8,0.3-1.7,0.7-3.4,1.6c-3.1-1.4-6.7-2.2-10.8-2.2c-3.6,0-7.2,0.9-10.7,2.6c-1.6-0.9-3.5-1.5-5.5-1.5c-0.1,0-0.3-0.1-0.5-0.1
    c-1.8-0.4-3.3-0.5-4.6-0.5c-3.5,0-6.8,0.7-9.8,2c-3.3-1.5-5.9-2.1-8.4-2.1c-1.6,0-3.4,0.2-5.5,0.7c-0.1,0-0.2,0.1-0.3,0.1
    c-2.2,0.1-4.3,0.9-6.1,2c-8.1,0-16.4,0-24.8,0c-1.8-1.1-3.9-1.7-6.1-1.8c-0.1,0-0.4,0-0.8-0.1c-1.9-0.3-3.3-0.5-4.6-0.5
    c0,0,0,0,0,0c-2.4,0-4.9,0.5-8.1,1.8c-3.3-1.6-6.7-2.4-10.1-2.4c-2.4,0-5,0.6-9.3,2c-1,0.3-1.9,0.8-2.7,1.3
    c-7.4,0.1-14.8,0.2-22.2,0.2c-1.5-1.2-3.3-2-5.2-2.4c-3.3-0.7-6.3-1-9.1-1c-0.7,0-1.4,0.1-2,0.2c-1.9,0.3-3.9,1-6.5,2.4
    c-4.4-1.8-6.9-2.5-9.5-2.5c0,0-0.1,0-0.1,0c-1.6,0-3.2,0.3-5.4,0.8c-0.1,0-0.2,0-0.3,0.1c-1.9,0.2-3.6,0.8-5.2,1.8
    c-1.4-1.2-3-2.1-4.9-2.6c-2.2-0.6-4.6-0.6-6.7,0c-1.5-0.3-2.8-0.4-4.1-0.4c-3.1,0-5.7,1.1-8.3,2.7c-3.3-1.7-6.4-2.6-9.5-2.5
    c-4.1,0-8.2,1.5-12.2,4.3c-0.3,0.2-0.5,0.4-0.8,0.6c-4.4,0.1-8.7,0.1-13,0.2c-2.3-2.3-6.3-4.7-12.7-4.7c-3.3,0-6.7,0.9-10.4,2.7
    c-3.4-1.8-6.3-2.6-9.2-2.5c-1.1,0-2.3,0.2-3.4,0.5c-2.5,0.7-4.9,1.5-7.4,2.2c-1.2,0.3-2.3,0.9-3.3,1.5c-1.3-0.9-2.8-1.6-4.5-2
    c-3.5-0.8-6.6-1.1-9.5-1.1c-0.8,0-1.6,0.1-2.4,0.3c-1.9,0.4-3.8,1.2-6.3,2.6c-3.6-1.7-6.5-2.6-9.6-2.6c-1.8,0-3.6,0.4-5.9,1.1
    c0,0-0.1,0-0.1,0c-2.7,0.4-5.1,1.6-7,3.5c-1.2,0.4-1.5,1-1.9,1.5c-5.1,7.3-8.9,12.7-11.8,16.5c-0.2-2.8-0.3-5-0.5-6.7
    c-0.5-6.9-3.2-14-8.1-21c-5.1-7.3-10.4-12-16.4-14.5c0,0-0.1,0-0.1-0.1c-8.4-3.3-16.9-5-25.4-5c-6.5,0-9.1,0.2-10.5,0.4
    c-0.1,0-0.1,0-0.2,0c-11,1.5-21,8.3-29.9,20c-8.5,11.2-12.8,23.2-12.8,35.5V240c-0.2,0.5-0.5,1.4-1,2.8c-2.1,5.3-2.7,7.4-2.7,9.9
    c0,2.7,0.7,5.5,2.8,10.6c0.5,1.2,0.8,2,1,2.5v36.4c0,0.8,0.1,1.5,0.2,2.3l2,10.5c4.7,25.8,22.6,39.9,50.4,39.9
    c12.4,0,22.6-2.4,30.4-7.2c24.7-8.2,115.9-34.6,268.6-34.6c116.3,0,212.4,20.9,238.3,27.1c1.6,1.4,3.3,2.4,5.1,2.9
    c2.8,0.9,5.8,0.7,8.5-0.4c0.1,0,0.1,0,0.2,0c1,0.3,3.9,1.3,10.6,4.7c12.2,6.2,17.1,7.4,21.1,7.4h8.7c16.6,0,30-5.4,39.8-16.1
    c10.3-10.9,15.5-26.4,15.5-46.2C716.8,273.7,710.4,258.4,697.7,247.2z"/>
  <g id="white_text_background">
    <path class="st4" d="M111.7,277.3h-3.2c-2.3,0-4.4,1.2-7,3.4c-4.1-4.8-8.7-7.3-13.8-7.3c-4.1,0-6.3,1.8-7.6,3.4
      c-1.1,1.4-1.5,3.3-0.9,5c3.1,9.8,3.5,13.2,3.5,14.2c0,8.3-1.5,16-12.2,16c-2.5,0-9.1,0-11.7-16.2v-28.2c1.7-7,2.5-10.2,2.9-11.7
      c0.7-0.9,1-2,1-3.2c0-1.1-0.2-2.3-2.1-8.4c-1.3-4-1.7-5.7-1.8-6.4v-24.7c1.6-17.9,9.1-17.9,11.9-17.9c3.3,0,5.9,1.2,8.3,3.8
      c2.5,2.7,3.7,6.2,3.7,10.7c0,2.4-0.6,7.3-3.5,17.1c-0.5,1.7-0.2,3.5,0.9,4.8s2.7,2.2,4.4,2.2h5.4c2.4,0,4.5-1.3,9.2-5.6
      c1-0.9,1.7-1.5,2.2-2c0.4,0.2,1,0.5,1.6,0.9c4,2.2,5.9,2.9,7.7,2.9c4.7,0,7.2-3.4,7.2-6.8c0-0.7-0.1-1.5-0.4-2.1
      c-1-2.3-1.8-4.2-2.3-5.7c-0.5-10.9-0.9-18.1-1.2-21.9c-0.4-5.7-2.7-11.6-6.9-17.6c-4.3-6.2-8.6-10.1-13.4-12
      c-7.6-3-15.2-4.5-22.8-4.5c-4.5,0-7.7,0.1-9.7,0.4c-9.1,1.3-17.6,7.1-25.3,17.3c-7.6,10-11.4,20.5-11.4,31.3V241
      c-0.1,0.3-0.4,1.5-1.5,4.3c-2,5.2-2.2,6.3-2.2,7.4c0,1.4,0.4,3.3,2.3,8c1,2.5,1.3,3.6,1.5,4v37.5c0,0.3,0,0.7,0.1,1l2,10.5
      c4.1,22.4,19.1,34.2,43.5,34.2c14.5,0,25.4-3.6,32.3-10.5c8.1-8,12-20.7,12-39c0,0,0-1,1-3.7c1.2-3.1,1.7-5.5,1.7-7.5v-4.5
      C117.2,279.7,114.7,277.3,111.7,277.3z"/>
    <path class="st4" d="M210,300.1c-11.2-13.8-16.9-28.8-16.8-44.7l0-6.3c0-1.8-0.8-3.4-2.3-4.5c-2.7-2-6.7-6.8-10.4-18.7
      c-2.8-8.8-4.2-17.3-4.2-25c0-1.6,0.4-4.5,2-9.1c0.5-1.5,0.4-3.1-0.4-4.5c-0.8-1.4-2.1-2.4-3.6-2.7c-2.9-0.7-5.5-0.9-7.9-0.9
      c-0.4,0-0.7,0-1,0.1c-1.6,0.3-3.3,1.2-6,3c-0.5,0.3-0.8,0.5-1.1,0.7c-0.5-0.2-1.3-0.5-2.3-1c-3.9-1.9-5.9-2.5-7.7-2.5
      c-1.1,0-2.3,0.3-3.9,0.8c-0.5,0.2-0.8,0.2-0.9,0.3c-1.8,0.1-3.3,1.1-4.3,2.6c-1,1.6-1.1,3.6-0.2,5.3c1.4,2.9,2.1,5.7,2.1,8.7
      c0,8.3-1.5,17.1-4.4,27c-3.2,10.4-7.2,18.1-11.7,22.9c-1.2,1.3-1.7,3-1.4,4.7c0.3,2,0.5,4.2,0.5,6.5c0,14.8-5.7,32-17.3,52.6
      c-1.5,2.6-0.6,5.9,1.9,7.4c1.8,1.1,3.9,1.6,6.3,1.6c1,0,2.1-0.1,3.3-0.3c1.3-0.2,2.6-0.5,3.8-0.7c0.9-0.2,1.7-0.5,2.4-1.1
      c0.4-0.3,0.8-0.7,3-2.9c2.8,1.5,5.9,2.1,9.2,1.5c2.9-0.5,5-1.2,6.6-2.3c1.5-1,2.4-2.7,2.4-4.6l0-3c0-1.7-0.5-3.3-1.6-5
      c-0.5-7.6-0.2-13.5,0.9-17.7c3.3-12.7,9.7-14.7,14.2-15.2c4.5-0.4,7.6,1.1,10.1,5.1c2.6,4,3.9,9.5,3.9,16.3c0,0.7-0.4,3.7-1.5,14
      c-0.2,1.7,0.4,3.4,1.6,4.6c1.2,1.2,2.9,1.8,4.6,1.5c2.3-0.3,4.6-0.6,6.9-0.9c2.2-0.3,3.9-1.7,6.1-4c3.5,1.7,6.6,2.4,9.5,2
      c3.5-0.4,6.6-1.9,9.2-4.4C211.6,305.6,211.8,302.3,210,300.1z M162.2,250.1c-1.6-0.4-2.9-0.6-4.1-0.5c-0.9,0.1-1.8,0.3-2.8,0.8
      c0.5-2.9,1.4-6.4,2.7-10.2c0.2-0.7,0.5-1.4,0.7-2c0.3,0.7,0.5,1.4,0.7,2C161.1,244.8,161.9,248,162.2,250.1z"/>
    <path class="st4" d="M279.4,182c-1.5-0.4-3-0.1-4.2,0.6c-0.1,0-0.2,0-0.3-0.1c-1.8-0.5-3.2-0.7-4.3-0.7c-1.9,0-3.7,0.8-7.5,3.5
      c-0.3,0.2-0.6,0.4-0.8,0.6l-0.7-0.5c-3.4-2.4-6.1-3.4-8.8-3.4c-2.7,0-5.5,1.1-8.4,3.2c-2.3,1.7-2.9,4.8-1.5,7.2
      c1.4,2.4,2.1,5.8,2.1,9.9c0,6.3-1.3,12.1-3.8,17.8c-1,2-2.1,4.1-3.5,6.4c0,0-0.1,0.1-0.1,0.1l-0.6,1.1c-0.5,0.8-0.7,1.8-0.7,2.7
      c0.1,5.2,0.3,9.4,0.7,12.5c-0.9,3.6-2,7.5-3.4,11.8c-0.5,1.4-0.9,2.7-1.3,3.8c-2.7-6.2-4-12.6-4-19.1c0-2.7,0.2-5.4,0.7-8.3
      c0.3-1.6-0.2-3.2-1.2-4.5c-4.8-5.6-7.2-13.2-7.1-22.5c0-3.8,0.9-8.1,2.6-12.9c0.6-1.6,0.4-3.4-0.6-4.9c-1.2-1.8-3.7-4-8.7-3.9
      c-3.1,0-6.5,1.3-10.5,4c-3.8-2.7-6.6-3.8-9-3.7c-0.5,0-1,0.1-1.5,0.2c-2.5,0.8-4.9,1.5-7.4,2.3c-1.6,0.5-2.8,1.6-3.4,3.1
      s-0.6,3.2,0.2,4.6c8.8,17.1,13.7,30,15,39.5l0,12c0,1,0.3,2.1,0.8,2.9c2.9,4.6,5.5,8,7.9,10.3c6.3,12.9,9.4,24.3,9.3,34.8
      c0,0.9-0.1,3.5-0.8,10.4c-0.2,1.9,0.6,3.7,2.1,4.8l1,0.8c1,0.8,2.2,1.2,3.4,1.2c0.2,0,0.4,0,0.6,0c1.5-0.2,3.1-0.3,4.6-0.5
      c1.8-0.2,3.5-1.1,6.6-3.7c0,0,0,0,0.1-0.1c2.8,1.8,5.9,2.6,9.1,2.3c4.6-0.4,6.9-2.6,8.1-4.3c0.6-1,0.9-2.1,0.8-3.3
      c-0.8-12.9-0.3-16.6-0.1-17.6c3.2-13.7,4.5-18,5-19.4c2.4-6.7,6-12.6,10.7-17.4c1-1,1.6-2.4,1.6-3.8l0-10.1c0.2-2.5,0.6-4.8,1-6.9
      c1.3-4.2,2.3-7,2.9-8.6c0,0,0-0.1,0.1-0.1c3.8-10.6,7.3-18,10.3-21.9c0.7-1,1.1-2.1,1.1-3.3l0-3.5
      C283.5,184.8,281.8,182.6,279.4,182z"/>
    <path class="st4" d="M359.1,291.3c-11.5-14.1-17-28-17-42.5l0-5.8c0-1.8-0.8-3.4-2.3-4.5c-4-2.9-7.5-8.8-10.5-17.5
      c-2.8-8.1-4.2-15.7-4.2-22.5c0-1.4,0.3-3.8,1.9-7.9c0.6-1.5,0.5-3.2-0.3-4.6c-0.8-1.4-2.1-2.4-3.7-2.8c-2.9-0.6-5.5-0.9-7.8-0.9
      c-0.3,0-0.6,0-0.9,0.1c-1.5,0.3-3.2,1-6,2.6c-0.5,0.3-1,0.6-1.3,0.7c-0.5-0.2-1.4-0.5-2.5-1c-4.3-1.9-6.1-2.3-7.5-2.3
      c-1,0-2.2,0.2-3.7,0.6c-0.6,0.2-0.9,0.2-1,0.2c-1.8,0.1-3.5,1.1-4.5,2.7c-1,1.7-1,3.7-0.1,5.4c1.4,2.4,2,4.8,2,7.3
      c0,7.2-1.5,15.1-4.4,23.5c-3.2,8.9-7,15.4-11.5,19.3c-1.5,1.3-2.1,3.2-1.8,5.1c0.3,1.7,0.5,3.5,0.5,5.5c0,13-5.6,27.4-17.2,44
      c-0.9,1.2-1.2,2.8-0.9,4.3c0.3,1.5,1.2,2.8,2.5,3.6c2,1.2,4.6,1.9,7.5,1.9c0.5,0,1,0,1.6-0.1l3.9-0.3c0.9-0.1,1.7-0.3,2.4-0.8
      c0.4-0.3,0.8-0.5,3.1-2.4c2.7,1.7,5.8,2.4,9.1,2.2c2.9-0.2,5-0.6,6.6-1.4c1.9-0.9,3-2.8,3-4.9l0-2.6c0-1.6-0.5-3.3-1.6-4.9
      c-0.5-6.5-0.2-11.5,0.9-14.9c2.5-8.1,6.7-11.8,13.9-12c4.7-0.1,8,1.6,10.6,5.5c2.6,3.8,3.9,8.8,3.9,14.8c0,0.5-0.3,2.8-1.5,12.6
      c-0.2,1.6,0.3,3.2,1.4,4.4c1.1,1.2,2.6,1.8,4.2,1.8c2.3-0.1,4.6-0.1,7-0.2c2.2-0.1,4-1.2,6.2-3.1c3.5,1.9,6.5,2.8,9.3,2.8
      c0,0,0.1,0,0.1,0c3.6,0,6.7-1.1,9.4-3.3c1.1-0.9,1.9-2.2,2-3.7C360.4,293.9,360,292.4,359.1,291.3z M304.2,242.1
      c0.5-2.5,1.4-5.3,2.6-8.4c0.2-0.6,0.5-1.2,0.7-1.8c0.3,0.8,0.6,1.5,0.9,2.2c1.4,3.6,2.1,6.1,2.5,7.9c-1.4-0.4-2.5-0.6-3.5-0.5
      C306.4,241.4,305.4,241.6,304.2,242.1z"/>
    <path class="st4" d="M423.3,293.6c0-1.7-0.8-3.3-2.1-4.3c0.2-0.4,0.3-0.9,0.3-1.3c0.2-1.3,0.2-2.6,0.2-3.9c0-4.6-1.1-8.8-3.2-12.6
      c-0.8-1.4-2.2-2.4-3.8-2.7c-1.6-0.3-3.3,0.1-4.5,1.1c-3,2.5-5.4,4.6-7.3,6.3c-1,0.3-3.1,0.8-7.1,0.7c-4.9-0.1-6.5-1-6.8-1.2
      c-0.2-0.5-0.8-2.6-0.8-8.9c0-10.1,0.9-14.1,1.5-15.6c0.1-0.1,0.1-0.3,0.1-0.4c0.1-0.2,0.4-0.8,1.2-2.5c1.6-3,2.1-4.6,2.1-6.2
      c0-1.7-0.6-3.3-2-5.7c-0.6-1-0.8-1.4-0.9-1.6c-1.4-4.6-2.1-10.4-2.1-17.2c0-5.7,0.6-11.6,1.7-17.3c0-0.1,0.2-0.9,1.3-4
      c1-2.9,1.4-4.7,1.4-6.2c0-1.4-0.2-2.5-0.7-3.6c-0.9-1.9-2.8-3.1-4.9-3.1c0,0-0.4,0-1.6-0.2c-1.5-0.3-2.6-0.4-3.5-0.4c0,0,0,0,0,0
      c-1.5,0-3.8,0.4-8.5,2.7c-0.1-0.1-0.3-0.2-0.4-0.3c-3-2-6.2-3-9.3-3c-1.6,0-3.7,0.5-7.2,1.7c-1.4,0.5-2.6,1.6-3.2,3s-0.6,3,0,4.4
      c3.2,7.4,4.8,16.1,4.8,25.7c0,3.1-0.6,8.7-1.8,16.4c-0.1,0.2-0.3,0.9-1.1,2.6c-1,2.3-1.5,3.6-1.7,4.7c0,0.2-0.1,0.4-0.1,0.7
      c0,0,0,0,0,0c0,0,0,0,0,0c0,0.1,0,0.2,0,0.3c0,0,0,0,0,0c0,0,0,0,0,0c0,1,0.2,1.9,0.7,2.7c0.3,1,0.8,3.1,1.8,7.6
      c1.5,6.5,2.2,11.5,2.2,14.6c0,10.4-1.6,19.5-4.8,26.9c-0.6,1.4-0.6,3.1,0.1,4.5c0.7,1.4,1.9,2.5,3.4,2.9c3.4,1,5.5,1.4,7,1.4
      c0,0,0,0,0,0c2.3,0,4.4-0.3,6.3-0.8c0.8-0.2,1.5-0.6,2-1.1c0.1-0.1,0.5-0.3,1.3-0.9c1,0.3,2.2,0.8,3.8,1.3
      c5.2,1.7,8.9,2.6,11.9,2.6c0.1,0,0.3,0,0.4,0c3.5,0,7.7-0.7,12.9-2.2c6.1-1.7,8-1.7,8.4-1.7c1.4,0,2.9,0.5,4.5,1.3
      c1.7,0.8,3.7,0.8,5.4-0.2c1.6-1,2.6-2.8,2.6-4.7L423.3,293.6z M372.2,300.3c0.1-0.1,0.2-0.2,0.4-0.3
      C372.5,300,372.4,300.1,372.2,300.3z"/>
    <path class="st4" d="M457.4,289.2c-1.5-4.3-1.7-5.4-1.7-5.6c0-0.1,0-0.2-0.1-0.3c-0.8-4.2-1.2-9.4-1.2-15.6
      c0-6.5,0.9-12.7,2.7-18.6c0.1-0.1,0.2-0.3,0.3-0.5c0.9-1.2,2-3.2,2-5.4c0-1.5-0.5-2.9-2.3-6.7c-1.2-2.4-1.4-3.3-1.5-3.5
      c0-0.1,0-0.2,0-0.3c-0.8-4-1.2-9.4-1.2-15.9c0-5.4,0.4-10,1.1-13.8c0.2-0.8,0.9-3,1.9-6.7c1.2-3.9,1.5-6.6,1-8.9
      c-0.5-2.5-2.7-4.3-5.3-4.4c0,0-0.4,0-1.3-0.2c-1.4-0.3-2.5-0.4-3.4-0.4c0,0-0.1,0-0.1,0c-3,0-5.8,0.7-8.2,2.2
      c-0.3,0.2-0.6,0.4-0.9,0.6l-0.3,0.3c-4.6-2.6-6.9-3.2-8.7-3.2c-1.1,0-2.4,0.2-3.9,0.5c-0.7,0.2-1.1,0.2-1.2,0.2
      c-2.1,0-4,1.2-4.9,3.1c0,0,0,0,0,0.1c-1.4,1.6-1.7,3.9-0.8,5.8c3.1,6.8,4.8,15.2,4.8,24.9c0,5.9-0.4,11-1.2,15.1
      c0,0.2-0.3,1-1.4,3.7c-1.7,4-2,5.2-2,6.4c0,0,0,0,0,0c0,1.1,0.3,2.1,0.9,3c0.2,0.4,0.4,1.1,0.9,2.3c1.1,2.9,1.5,4.3,1.6,4.9
      c0,0,0,0.1,0,0.1c0.8,3.7,1.2,8.8,1.3,15.1c0,8.8-0.6,12.8-1.1,14.7c0,0.1-0.1,0.2-0.1,0.3c-0.1,0.6-0.5,2.2-1.8,6.3
      c-1.3,4.4-1.8,6.9-1.6,8.9c0.3,2.2,1.8,4,4,4.6c2.1,0.6,4.1,0.9,6.1,1c2.3,0.1,5.3-0.7,9.7-2.5c0.4,0.2,1,0.6,1.8,1
      c3.8,2.3,5.4,3,7,3.1c0.2,0,0.4,0,0.6,0c2,0,4.2-0.6,6.4-1.7c2.1-0.9,4.2-3.1,4.2-6.8c0,0,0,0,0,0
      C459.5,295.8,459.4,295,457.4,289.2z"/>
    <path class="st4" d="M534.1,298.9c-0.6-0.6-1.1-1.3-1.7-1.9c0.2-0.6,0.4-1.4,0.7-2.5c1-3.7,0.2-8.7-2.6-16.4
      c-0.6-1.6-1.9-2.8-3.4-3.3c-1.6-0.5-3.3-0.3-4.7,0.6c-3.2,2.1-5.8,3.8-7.8,5.1l-1.4,0.9c-2.5,0.7-5.5,0.9-8.7,0.6
      c-4.7-0.4-7.9-1.5-8.6-3c-0.1-0.4-0.8-2.7-0.8-11.8c0-8.5,0.4-10.6,0.5-11c0.3-0.8,1.2-2.8,7.7-2.5c3.4,0.2,6.1,0.8,8.1,1.7
      c1.7,1.3,2.7,1.9,3.6,2.3c0.5,0.2,1.1,0.4,1.7,0.4l2.5,0.2c1.7,0.1,3.4-0.6,4.5-1.8c1.1-1.3,1.6-3,1.3-4.7c-0.2-1.2-0.8-2.8-2-5.2
      c-0.2-0.4-0.3-0.8-0.5-1c0.1-0.3,0.3-0.6,0.5-0.9c1.4-2.5,2.1-4.5,2.3-6.2c0.3-1.9-0.5-3.9-2.1-5.1s-3.6-1.5-5.4-0.8
      c-5.6,2.3-7.5,2.8-8,3c-0.4,0-0.7,0.1-1.1,0.2c-0.2,0-1.4,0.2-4.9,0c-5.1-0.3-7.6-1.4-8.1-2.3c-0.1-0.5-0.7-2.9-0.8-11.9
      c0-8.4,0.5-10.7,0.7-11.1c0.8-1.4,3.8-2.1,8.1-2c6.9,0.2,12.4,2.6,16.9,7.5c1.8,1.9,4.6,2.4,6.9,1c1.9-0.5,3.4-1.9,3.9-3.9
      c1-3.5,1.4-6.3,1.4-8.5c0-1.2-0.2-2.7-1.4-6.2c-0.3-0.9-0.5-1.5-0.6-2c1.4-1.8,2.1-3.2,2.5-4.6c0.5-2-0.2-4.1-1.8-5.4
      c-1.6-1.3-3.7-1.7-5.7-0.9c-1.3,0.5-2.6,0.8-3.8,0.8c-1.5,0-4.5-0.5-10.8-2.5c-6.1-1.9-10.9-2.9-14.6-2.9c-2.8,0-5.8,0.3-9,0.9
      c-0.4,0.1-0.7,0.2-1.1,0.3c-0.7,0.3-1.9,0.9-5.4,3c-0.3,0.2-0.5,0.3-0.8,0.5c-0.4-0.4-0.8-0.8-1.3-1.2c-2.4-1.6-5.5-2.4-9.3-2.4
      c-2.5,0-5.2,0.7-7.8,2c-1.8,1-2.9,2.8-2.9,4.9l0,2.7c0,1.3,0.4,2.5,1.3,3.5c0.2,0.4,1.2,2.4,2.5,9.9c0,0,0,0.1,0,0.1
      c1.5,7.3,1.8,10.9,1.8,12.6c0,3.7-0.6,8.8-1.9,14.9c0,0.1-0.2,0.8-1.2,3.2c-1.3,3.2-1.8,4.6-1.8,5.9c0,1.7,0.3,5,2.7,13.8
      c1.5,5.6,2.3,10,2.3,13.3c0,1.7-0.3,5.6-1.9,15c-0.2,1.1-1,4.3-3.8,12.5c-0.6,1.8-0.3,3.9,1,5.4c2.2,2.6,5.4,4.1,9.5,4.4
      c2.6,0.2,5.6-0.5,9-2.1c0.5-0.2,0.9-0.4,1.2-0.6c1.1,0.7,2.6,1.5,4.4,2.6c0.3,0.2,0.5,0.3,0.8,0.4c3.2,1.3,7.1,2.1,11.7,2.5
      c0.8,0.1,1.6,0.1,2.5,0.1c3.2,0,7.1-0.5,11.8-1.4c6.5-1.3,9.4-1.2,10.5-1.1c0.5,0.1,2.2,0.3,7.2,1.4c2.3,0.5,4.7-0.5,5.9-2.5
      C535.8,303.3,535.6,300.7,534.1,298.9z"/>
    <path class="st4" d="M621.6,315.7c-5.4-8.9-8.5-20.9-9.3-35.6c-0.1-1.6-0.9-3.1-2.2-4.1c-1.4-1.1-2.5-2.8-3.2-5.1l-1.1-7.2
      c-0.9-6.1-3.6-9.8-6.5-12.1c3.6-2.2,6.2-5.3,7.6-9.2c0.6-1.5,1.3-4.3,2.2-12.6c0-0.1,0.1-0.2,0.2-0.4c1-1.9,1.4-3.3,1.4-4.7
      c0-1.5-0.4-3.1-1.4-4.9c-0.1-0.2-0.2-0.4-0.2-0.5l-1-10.1c0-0.3-0.1-0.6-0.2-0.9c-0.8-3-1.7-5.6-2.5-7.7c0,0,0-0.1,0-0.1
      c-2.8-6.4-8.7-11.4-17.6-14.8c-6.3-2.4-12.6-3.7-18.5-3.8c-1.8,0-5.2,0.2-15.4,2.6c-2.5,0.6-4.4,1-5.7,1.4
      c-0.1-0.1-0.3-0.1-0.5-0.2c-3.1-1.5-5.9-2.2-8.4-2.3c-4.9-0.1-7.9,2.1-9.6,3.9c-1.5,1.7-1.9,4.1-0.8,6.2
      c3.5,6.9,5.3,16.2,5.3,27.5c0,5.3-0.7,10.9-2.2,16.7c-0.3,0.6-0.8,1.6-1.5,3.2c-1.6,3.4-2.1,4.8-2.1,6.3c0,1.3,0.4,2.8,2.4,8
      c1.6,4,2.1,5.5,2.2,5.9c0.8,4.2,1.2,8.5,1.2,12.8c0,5.1-1,12.3-2.9,21.2c-0.1,0.2-0.3,0.8-1.1,2.5c-1.3,2.8-1.8,4.3-1.8,5.7l0,2.2
      c0,2.2,1.3,4.1,3.2,5c3.2,1.4,5.5,2.2,7.4,2.5c2.3,0.3,5.2-0.3,9.4-1.8c3.9,2.5,7,3.9,9.9,4.3c3.2,0.4,6.4-0.4,9.3-2.4
      c2.4-1.7,3.1-4.9,1.6-7.4c-1.3-2.1-3.1-6.8-4.5-17.3c-0.9-6.5-1.4-12.6-1.4-18c0-7.8,0.7-9.7,0.8-9.9c0.8-1.6,5-1.4,6.3-1.3
      c5.9,0.5,7.4,2.8,8.1,5c0.2,0.6,0.6,2.4,0.2,6.7c-0.6,6.5-0.6,6.7-0.6,7c0,0.7,0.1,1.3,0.3,1.9c1.4,3.6,2.6,6.5,3.9,8.7
      c0.9,2.1,1.4,4.8,1.4,7.8c0,2.4-0.3,4.3-0.9,5.8l-1.5,3c-0.9,1.9-0.7,4.1,0.6,5.8c5.2,6.8,12.9,11,22.7,12.7
      c2.1,0.4,4.5,0.5,7.4,0.5c1.5,0,3.2,0,5-0.1c1.9-0.1,3.7-1.2,4.6-2.9C622.6,319.4,622.6,317.3,621.6,315.7z M566.5,212.2
      c0.6-0.6,1.8-1.4,4.2-1.4c0.1,0,0.2,0,0.4,0c4.7,0.1,7.4,1.6,7.4,8.4c0,0.5,0,1.1-0.1,1.7l-0.8,1.4c-0.9,1.6-0.9,3.5-0.1,5.1
      c0,0.4,0.1,0.8,0.2,1.2c0.5,2.2,0.8,4.2,0.8,6c0,1.7-0.2,3.9-1.3,5c-1,0.9-3,1.3-5.8,1c-2.4-0.2-8-0.6-8-15.7
      C563.3,218.8,564.4,214.2,566.5,212.2z"/>
    <path class="st4" d="M693.1,252.5c-0.1-0.1-0.1-0.1-0.2-0.2c-3.8-3.1-7.8-6.2-11.8-9.2c-3.8-3.4-6.1-6.8-6.8-10
      c-0.3-1.5-1.3-2.8-2.6-3.6c-1.3-0.8-2.9-0.9-4.4-0.5c-1.4,0.5-2.9,0.7-4.5,0.7c-3.8,0-6.9-1.5-9.6-4.9c-3-3.6-4.4-8.1-4.4-13.9
      c0-15.7,7.1-17.8,14-17.8c5.1,0,9.5,2,13.4,6.1c3.2,4.1,5.6,7.4,7.4,9.8c1.3,1.8,3.6,2.7,5.8,2.2c2.2-0.5,3.8-2.4,4.1-4.6
      c0.6-4.7,1.2-9.4,1.7-14c1.7-3.9,3.3-7,4.8-9.1c1.1-1.6,1.3-3.7,0.5-5.4c-0.8-1.8-2.5-3-4.4-3.2c-1.7-0.2-6.1-1.3-15.6-6.4
      c0,0-0.1,0-0.1-0.1c-8-4.1-14.7-6-20.6-6c-12.6,0-23.2,5.4-31.4,16c-7.9,10.2-11.9,23.1-11.9,38.3c0,7.9,1.1,14.7,3.4,20.2
      c1.7,4.4,4.9,9.5,9.7,15.7c0.2,0.3,0.4,0.5,0.7,0.7c3.7,3.3,7.4,6.6,11.1,9.8c4.8,4.7,6.2,8,6.5,9.9c0.3,1.8,1.4,3.3,3,4.1
      s3.5,0.7,5.1-0.1c0,0,0.6-0.3,2.3-0.3c4.6,0,8.5,2,11.9,6c3.6,4.3,5.4,9.7,5.4,16.3c0,13.4-4.9,19.1-16.4,19.1
      c-12.9,0-24-7.2-33.9-22.1c-1.3-1.9-3.6-2.8-5.8-2.3c-2.2,0.5-3.9,2.3-4.2,4.6l-1,7c-0.1,0.8-0.1,1.6,0.2,2.3
      c1,3.4,1.9,6.2,2.6,8.5c-0.8,0.8-1.7,1.7-2.6,2.5c-0.2,0.1-0.3,0.3-0.4,0.5c-2.9,3.4-4.3,6.5-4.3,9.6c0,5.7,3.4,7.3,4.8,7.8
      c1.5,0.5,3,0.3,4.4-0.5c0.2-0.1,1.1-0.2,2.9-0.2c0.3,0,2.9,0.3,13,5.5c11.6,5.9,15.6,6.7,17.9,6.7h8.7c14.6,0,26.3-4.7,34.7-13.8
      c9-9.5,13.6-23.5,13.6-41.5C709.8,275.8,704.2,262.2,693.1,252.5z"/>
  </g>
  <g id="red_text">
    <path class="st2" d="M112.4,223.4c0,0.9-0.6,1.3-1.7,1.3c-0.7,0-2.4-0.7-5.1-2.2c-2.7-1.5-4.3-2.2-4.8-2.2c-0.7,0-2.5,1.4-5.4,4.2
      c-3,2.8-4.8,4.2-5.4,4.2h-5.4c2.5-8.4,3.7-14.7,3.7-18.7c0-5.9-1.7-10.7-5.1-14.4c-3.4-3.7-7.5-5.5-12.3-5.5
      c-10.3,0-16.1,7.7-17.4,23.2v25.4c0.2,1.3,0.9,3.8,2.1,7.6c1.2,3.8,1.8,6,1.8,6.7c0-1.7-1.3,3.1-4,14.3v29.2
      c2.2,14.2,7.9,21.3,17.2,21.3c11.8,0,17.7-7.2,17.7-21.5c0-2.7-1.2-8-3.7-15.8c0.7-0.8,1.7-1.3,3.2-1.3c4.6,0,8.8,3.2,12.6,9.6
      c0.7-0.2,2-1.2,4.1-3c2.1-1.8,3.4-2.7,4.1-2.7h3.2v4.5c0,1.3-0.5,3.1-1.4,5.6c-0.9,2.4-1.4,4.3-1.4,5.6c0,16.6-3.5,28.3-10.4,35.1
      c-5.9,6-15.4,8.9-28.5,8.9c-21.8,0-34.5-9.9-38.1-29.7l-2-10.5v-38c0-0.6-0.6-2.5-1.9-5.6c-1.2-3.1-1.9-5.1-1.9-5.9
      c0-0.4,0.6-2.2,1.9-5.4c1.2-3.2,1.9-5.2,1.9-6.1v-32.9c0-9.6,3.4-18.9,10.3-27.9c6.8-9,14.1-14.1,21.7-15.2
      c1.6-0.2,4.6-0.3,8.9-0.3c6.9,0,13.9,1.4,20.8,4.2c3.6,1.5,7.3,4.8,10.9,10.1c3.6,5.2,5.6,10.2,5.9,14.8
      c0.3,3.8,0.7,11.4,1.2,22.7C110.3,218.4,111.3,220.6,112.4,223.4z"/>
    <path class="st2" d="M205.7,303.6c-1.7,1.6-3.7,2.6-6,2.8c-2.5,0.3-5.6-0.8-9.5-3.2c-0.5,0.1-1.5,0.9-3.1,2.6
      c-1.6,1.7-2.6,2.5-3.1,2.6c-2.3,0.3-4.6,0.6-7,0.9c1.1-9.1,1.6-14,1.6-14.6c0-7.9-1.6-14.4-4.8-19.4c-3.6-5.7-8.7-8.3-15.3-7.6
      c-9.5,0.9-15.9,7.3-19,19.2c-1.3,4.9-1.6,11.7-1,20.2c0,0.5,0.3,1.1,0.8,1.8c0.5,0.8,0.8,1.5,0.8,2.1c0,1,0,2,0,3
      c-0.9,0.6-2.4,1.1-4.4,1.4c-2.3,0.4-4.4,0-6.3-1.3c-1.9-1.2-2.7-1.9-2.6-1.9c-0.4,0.1-1.3,0.9-2.7,2.6c-1.8,1.9-2.8,2.9-3.1,3.1
      c-1.3,0.2-2.6,0.5-3.9,0.7c-2.4,0.4-4.4,0.2-5.8-0.6c11.9-21.2,18-39.1,18-55.3c0-2.6-0.2-5.1-0.6-7.4c5.2-5.5,9.5-13.8,13-25.1
      c3.1-10.3,4.7-19.8,4.7-28.6c0-3.8-0.9-7.5-2.7-11.1c0.4,0,1.1-0.2,2.1-0.5c1-0.3,1.8-0.5,2.3-0.5c0.8,0,2.5,0.6,5.2,1.9
      c2.7,1.3,4.4,1.9,5.2,1.9c0.4,0,1.6-0.7,3.6-2c2-1.3,3.4-2,4.2-2.2c1.9,0,4.1,0.2,6.6,0.8c-1.6,4.3-2.3,8-2.3,10.9
      c0,8.3,1.5,17.2,4.5,26.7c3.4,10.7,7.5,17.9,12.4,21.5c0,2,0,4.2,0,6.3C187.6,272.5,193.6,288.7,205.7,303.6z M167.9,255.5
      c0-1,0-1.9,0-2.9c0-3.3-1.1-8-3.3-14.3c-1-2.8-2.5-7-4.4-12.7c-0.5-0.9-1.4-1.3-2.5-1.2c-1,3.1-2.7,7.7-4.9,14.1
      c-2.3,7-3.5,12.7-3.5,17.1c0,0.5,0.4,1.2,1.3,2.2c1-0.1,1.9-0.2,2.9-0.3c0.5,0,1.4-0.4,2.5-1.1c1.2-0.7,2-1.1,2.5-1.1
      c0.6-0.1,1.7,0.2,3.2,0.6c1.5,0.5,2.5,0.7,3.2,0.6C166.4,256.3,167.4,255.9,167.9,255.5z"/>
    <path class="st2" d="M278,190.8c-3.4,4.4-7.1,12.2-11.1,23.4c-0.7,1.7-1.7,4.7-3.1,9.2c-0.5,2.5-0.9,5.2-1.2,8.1
      c0,2.2,0,5.7,0,10.3c-5.3,5.4-9.3,11.9-12,19.4c-0.9,2.5-2.6,9.2-5.2,19.9c-0.7,2.7-0.7,9.1,0,19.2c-0.7,1-1.9,1.6-3.9,1.8
      c-2.1,0.2-4-0.3-5.9-1.6c-1.9-1.2-2.7-1.9-2.6-1.9c-0.5,0-1.7,0.9-3.7,2.5c-1.9,1.6-3.2,2.4-3.7,2.5c-1.6,0.2-3.1,0.3-4.6,0.5
      c-0.3-0.3-0.6-0.5-1-0.8c0.5-5.7,0.8-9.4,0.8-10.9c0-11.6-3.4-24.3-10.4-38.2c-2.2-1.9-4.8-5.1-7.7-9.8c0-2.9,0-7,0-12.3
      c-1.3-10.3-6.4-24-15.6-41.6c2.5-0.8,4.9-1.5,7.4-2.3c1.7,0,4.6,1.7,8.9,5.1c4.5-3.5,8.1-5.3,10.7-5.3c2.1,0,3.4,0.5,4.1,1.4
      c-2,5.4-2.9,10.4-2.9,14.8c0,10.7,2.8,19.4,8.5,26.1c-0.5,3.1-0.8,6.2-0.8,9.2c0,10.8,3.2,21.2,9.8,31.1c1.8-2.1,3.9-6.8,6.2-14.1
      c1.6-4.8,2.8-9.2,3.7-13.2c-0.4-3-0.6-7.4-0.7-12.9c0.2-0.4,0.4-0.7,0.6-1.1c1.4-2.4,2.7-4.7,3.7-6.8c2.9-6.4,4.3-13,4.3-20.1
      c0-5.1-0.9-9.4-2.9-12.7c1.9-1.4,3.7-2.1,5.2-2.1c1.4,0,3.3,0.8,5.6,2.4c1.2,0.8,2.3,1.6,3.5,2.4c0.5,0,2-0.8,4.4-2.5
      c2.4-1.7,3.8-2.5,4.4-2.5c0.6,0,1.6,0.2,2.9,0.5c1.3,0.3,2.2,0.5,2.7,0.5c0.8,0,1.4-0.3,1.7-1C278,188.5,278,189.6,278,190.8z"/>
    <path class="st2" d="M354.8,294.7c-1.7,1.4-3.7,2-6,2.1c-2.5,0-5.6-1.3-9.5-3.9c-0.5,0-1.6,0.7-3.1,2.1c-1.6,1.4-2.6,2.1-3.1,2.1
      c-2.3,0.1-4.7,0.1-7,0.2c1-8.2,1.6-12.6,1.6-13.1c0-7.3-1.6-13.3-4.8-18c-3.6-5.4-8.7-8.1-15.3-7.9c-9.6,0.3-15.9,5.6-19,15.9
      c-1.3,4.3-1.6,10.2-1,17.8c0,0.4,0.3,1,0.8,1.7c0.5,0.7,0.8,1.4,0.8,1.9c0,0.9,0,1.8,0,2.6c-0.9,0.5-2.4,0.7-4.5,0.9
      c-2.3,0.1-4.4-0.4-6.3-1.7c-1.9-1.3-2.7-1.9-2.6-1.9c-0.4,0-1.3,0.7-2.7,2c-1.8,1.5-2.9,2.3-3.1,2.5c-1.3,0.1-2.6,0.2-3.9,0.3
      c-2.5,0.2-4.4-0.2-5.8-1c12.1-17.4,18.1-32.9,18.1-47.1c0-2.3-0.2-4.5-0.6-6.5c5.2-4.6,9.5-11.8,13-21.6c3.1-9,4.7-17.5,4.7-25.3
      c0-3.4-0.9-6.7-2.7-10c0.4,0,1.1-0.1,2.1-0.4c1-0.3,1.8-0.4,2.3-0.4c0.8,0,2.5,0.6,5.2,1.8c2.7,1.2,4.5,1.8,5.2,1.8
      c0.4,0,1.6-0.6,3.6-1.7c2-1.2,3.4-1.8,4.2-1.9c1.9,0,4.1,0.3,6.6,0.8c-1.6,3.9-2.3,7.2-2.3,9.9c0,7.5,1.5,15.7,4.5,24.4
      c3.4,9.9,7.6,16.6,12.5,20.2c0,1.9,0,3.8,0,5.8C336.6,264.4,342.6,279.7,354.8,294.7z M316.8,247.7c0-0.9,0-1.8,0-2.6
      c0-3-1.1-7.3-3.3-13.1c-1-2.5-2.5-6.4-4.4-11.7c-0.5-0.8-1.4-1.2-2.5-1.2c-1,2.7-2.7,6.9-4.9,12.5c-2.3,6.1-3.5,11.2-3.5,15.1
      c0,0.4,0.5,1.1,1.4,2c1,0,1.9-0.1,2.9-0.1c0.5,0,1.4-0.3,2.5-0.9c1.2-0.6,2-0.9,2.5-0.9c0.6,0,1.7,0.2,3.2,0.7
      c1.5,0.5,2.6,0.8,3.2,0.7C315.3,248.3,316.3,248.1,316.8,247.7z"/>
    <path class="st2" d="M417.8,295.8c-2.3-1.2-4.6-1.8-6.8-1.8c-1.8-0.1-5.1,0.6-10,1.9c-4.9,1.4-8.8,2-11.8,2
      c-2.3,0-5.7-0.8-10.2-2.3c-4.5-1.5-6.4-2.2-5.9-2.2c-0.4,0-1.1,0.4-2.1,1.2c-1.4,0.9-2.2,1.5-2.3,1.6c-1.4,0.4-3,0.6-4.9,0.6
      c-0.9,0-2.7-0.4-5.4-1.2c3.5-8.2,5.2-17.9,5.2-29.1c0-3.6-0.8-8.9-2.3-15.8c-1.6-6.9-2.3-10-2.3-9c0-0.4,0.4-1.5,1.3-3.4
      c0.8-1.9,1.3-3.1,1.5-3.8c1.3-8.2,1.9-14,1.9-17.5c0-10.4-1.7-19.7-5.2-27.9c2.7-0.9,4.5-1.4,5.4-1.4c2.1,0,4.2,0.7,6.3,2.1
      c2.1,1.4,3.1,2.1,3,2.1c4.4-2.4,7.4-3.6,8.9-3.6c0.5,0,1.4,0.1,2.5,0.3c1.2,0.2,2,0.3,2.5,0.3c0.1,0.3,0.2,0.7,0.2,1.2
      c0,0.8-0.4,2.3-1.1,4.4c-0.9,2.5-1.4,4.1-1.5,4.8c-1.2,6.1-1.8,12.3-1.8,18.4c0,7.5,0.8,13.8,2.4,19c0.1,0.4,0.6,1.3,1.4,2.6
      c0.8,1.3,1.2,2.3,1.2,2.8s-0.5,1.7-1.5,3.6c-1,1.9-1.6,3.1-1.7,3.6c-1.2,3.3-1.9,9.2-1.9,17.6c0,6.4,0.6,10.4,1.7,12
      c1.5,2.3,5.3,3.5,11.2,3.6c4.6,0.1,8-0.4,10.2-1.5c1.8-1.8,4.4-4,7.7-6.7c1.7,3,2.5,6.3,2.5,10c0,1.1-0.1,2.2-0.2,3.2
      c-0.5,1.1-1,2.1-1.5,3.2c0,0.8,1.1,1.9,3.3,3.1C417.8,294.4,417.8,295.1,417.8,295.8z"/>
    <path class="st2" d="M454,296.8c0,1-0.3,1.6-1,1.8c-1.7,0.9-3.2,1.2-4.5,1.2c-0.5,0-2-0.8-4.6-2.3c-2.5-1.5-4-2.3-4.6-2.3
      c-4.7,2.1-7.8,3.1-9.5,3c-1.6-0.1-3.2-0.3-4.9-0.8c-0.1-1.1,0.3-3.3,1.4-6.6c1-3.3,1.7-5.6,1.9-6.8c0.9-3.2,1.3-8.6,1.3-16.2
      c0-6.8-0.5-12.2-1.4-16.3c-0.3-1.4-0.9-3.3-1.9-5.8c-1-2.5-1.5-3.6-1.5-3.4c0-0.4,0.5-1.8,1.5-4.3c1-2.5,1.6-4.1,1.7-4.7
      c0.9-4.4,1.3-9.8,1.3-16.2c0-10.6-1.8-19.6-5.3-27.2c0.3-0.3,0.5-0.7,0.8-1.2c0.5,0,1.3-0.1,2.4-0.4c1.1-0.3,2-0.4,2.6-0.4
      c1.4,0,4.5,1.4,9.1,4.3c0.5,0,1.2-0.5,2.1-1.4c0.5-0.5,1-0.9,1.5-1.4c1.5-0.9,3.4-1.4,5.4-1.4c0.5,0,1.3,0.1,2.3,0.3
      c1,0.2,1.8,0.3,2.3,0.3c0.3,1.2,0,3.3-0.9,6.1c-1.2,4.2-1.9,6.5-2,6.9c-0.9,4.2-1.3,9.3-1.3,15.1c0,7,0.5,12.6,1.3,17
      c0.1,1,0.8,2.6,2,5.1c1.2,2.4,1.8,3.8,1.8,4.3c0,0.5-0.3,1.3-1,2.3c-0.7,1-1,1.6-1,1.9c-2,6.5-3,13.3-2.9,20.3
      c0,6.5,0.5,12.1,1.3,16.6c0.1,1,0.8,3.2,2,6.7C453.4,294.4,454,296.4,454,296.8z"/>
    <path class="st2" d="M529.9,302.5c-4-0.9-6.5-1.4-7.8-1.5c-2.6-0.3-6.7,0.1-12.2,1.2c-5.5,1.1-9.8,1.5-12.8,1.2
      c-4.1-0.4-7.5-1.1-10.2-2.2c-4.7-2.8-6.8-4.1-6.6-4.1c-0.3,0-1.7,0.6-4.2,1.8c-2.5,1.2-4.6,1.7-6.2,1.6c-2.6-0.2-4.5-1-5.7-2.5
      c2.3-6.6,3.7-11,4.1-13.3c1.3-7.9,2-13.2,2-16c0-3.7-0.8-8.6-2.5-14.7c-1.7-6.1-2.5-10.2-2.5-12.4c0-0.4,0.4-1.7,1.3-3.8
      c0.9-2.1,1.4-3.5,1.5-4.2c1.3-6.6,2-11.9,2-16.1c0-2.9-0.6-7.5-1.9-13.7c-1.2-6.9-2.5-11-3.7-12.4c0-0.9,0-1.8,0-2.7
      c1.8-0.9,3.5-1.4,5.1-1.4c2.7,0,4.8,0.5,6.4,1.5c0,0.3,0.5,0.8,1.5,1.7c1,0.8,1.7,1.3,2.2,1.3c0.4,0,1.8-0.7,4.2-2.1
      c2.4-1.4,3.9-2.3,4.6-2.6c2.9-0.5,5.5-0.8,8-0.8c3.1,0,7.5,0.9,13,2.7c5.5,1.8,9.7,2.7,12.4,2.7c1.9,0,3.9-0.4,5.9-1.2
      c-0.1,0.6-0.6,1.4-1.5,2.6c-0.9,1.1-1.3,2-1.3,2.6c0,0.7,0.4,2.2,1.1,4.4c0.8,2.2,1.1,3.7,1.1,4.4c0,1.7-0.4,4.1-1.2,7.1
      c-0.3,0-0.8,0.2-1.4,0.6c-5.5-6.1-12.4-9.1-20.8-9.3c-7-0.2-11.4,1.6-13.2,5.1c-0.8,1.6-1.2,6.1-1.2,13.5c0,7.8,0.4,12.5,1.3,14.2
      c1.7,3.3,5.9,5.1,12.8,5.4c3.4,0.2,5.7,0.1,6.8-0.3c0.7,0,3.8-1.1,9.5-3.3c-0.1,1-0.7,2.4-1.7,4.3c-1,1.9-1.5,2.9-1.5,3.2
      c0,0.6,0.4,1.8,1.3,3.7c0.9,1.9,1.4,3.2,1.5,3.9c-0.8-0.1-1.6-0.1-2.5-0.2c-0.4-0.2-1.3-0.8-2.7-1.9c-2.8-1.5-6.3-2.3-10.7-2.5
      c-7.1-0.4-11.5,1.7-13.2,6.2c-0.5,1.5-0.8,5.8-0.8,12.9c0,7.5,0.4,12.2,1.3,14c1.7,3.6,6.1,5.7,13.2,6.3c4.3,0.4,8.1,0,11.5-1.1
      c2.1-1.3,5.3-3.5,9.9-6.4c2.3,6.2,3.2,10.6,2.5,12.9c-0.9,3.2-1.4,5-1.4,5.5C527.6,299.8,528.7,301.2,529.9,302.5z"/>
    <path class="st2" d="M616.9,318.5c-4.7,0.3-8.5,0.2-11.2-0.3c-8.5-1.5-14.9-5-19.3-10.7c0.5-1.1,1-2.1,1.5-3.2
      c0.9-2.1,1.3-4.8,1.3-8c0-4-0.7-7.4-1.9-10.3c-1.2-2-2.4-4.7-3.7-8.2c0-0.1,0.2-2.3,0.6-6.5c0.4-3.9,0.2-6.9-0.4-8.9
      c-1.7-5.3-6-8.3-12.9-8.8c-6.1-0.5-10,1-11.7,4.4c-0.9,1.8-1.3,5.9-1.3,12.3c0,5.8,0.5,12,1.4,18.8c1.2,9.2,3,15.6,5.2,19.4
      c-1.8,1.2-3.6,1.7-5.4,1.5c-2.4-0.3-5.7-2-9.9-5.1c-4.6,1.9-7.8,2.7-9.5,2.5c-1.3-0.2-3.2-0.8-5.8-2c0-0.7,0-1.4,0-2.2
      c0-0.4,0.4-1.5,1.2-3.3c0.8-1.8,1.3-3,1.4-3.5c2-9.5,3.1-17,3-22.5c0-4.8-0.5-9.5-1.4-14.1c-0.3-1-1.1-3.3-2.4-6.7
      c-1.4-3.4-2-5.4-2-6c0-0.4,0.5-1.7,1.5-3.9c1-2.2,1.6-3.4,1.7-3.7c1.7-6.4,2.5-12.6,2.5-18.6c0-12.2-2-22.2-5.9-29.9
      c1.3-1.4,3.1-2.1,5.4-2.1c1.7,0,3.7,0.6,6.1,1.7c2.4,1.1,3.6,1.7,3.8,1.7c-3.2-0.1-1.2-0.9,6-2.5c7.2-1.7,11.9-2.5,14.1-2.5
      c5.3,0.1,10.8,1.2,16.7,3.4c7.5,2.9,12.3,6.9,14.5,11.9c0.8,1.9,1.6,4.2,2.3,7c0.3,3.4,0.7,6.8,1,10.3c0,0.5,0.3,1.2,0.8,2.3
      c0.5,1,0.8,1.9,0.8,2.5c0,0.5-0.3,1.2-0.8,2.2c-0.5,1-0.8,1.7-0.8,2.2c-0.6,6-1.3,9.8-1.9,11.5c-1.2,3.3-3.5,5.7-6.9,7.3
      c-2.8,0.8-5.7,1.7-8.5,2.7c0.9,1.1,3.2,2.4,6.8,3.8c4.1,1.6,6.6,5,7.4,10.2c0.4,2.5,0.8,5,1.2,7.5c1,3.7,2.8,6.4,5.2,8.3
      C607.6,296.2,611,308.8,616.9,318.5z M584,226.5c0-1.1-0.5-1.5-1.5-1.5c0.4-0.8,0.9-1.6,1.3-2.4c0.1-1.2,0.2-2.3,0.2-3.4
      c0-9-4.2-13.6-12.7-13.9c-9-0.3-13.4,6.3-13.4,19.7c0,13.4,4.4,20.5,13.1,21.1c8.7,0.7,13-3.1,13-11.5c0-2.3-0.3-4.7-1-7.3
      C583.3,227.1,583.6,226.8,584,226.5z"/>
    <path class="st2" d="M704.3,292.7c0,16.6-4,29.2-12.1,37.7c-7.4,8.1-17.7,12.1-30.7,12.1h-8.7c-2.3,0-7.5-2-15.5-6.1
      c-8-4-13.2-6.1-15.5-6.1c-2.8,0-4.7,0.3-5.7,1c-0.7-0.2-1-1.1-1-2.6c0-1.7,1-3.7,3-6.1c1.8-1.7,3.5-3.4,5.2-5.1
      c-1-2.6-2.2-6.4-3.7-11.5l1-7c10.9,16.4,23.8,24.6,38.5,24.6c14.6,0,21.9-8.2,21.9-24.6c0-7.9-2.2-14.5-6.7-19.8
      c-4.5-5.3-9.9-8-16.1-8c-2.2,0-3.8,0.3-5,1c-0.7-4-3.4-8.4-8.2-13.1c-3.6-3.2-7.4-6.5-11.2-9.9c-4.5-5.7-7.5-10.5-8.9-14.4
      c-2-4.9-3-11-3-18.2c0-14,3.6-25.7,10.8-35c7.2-9.3,16.2-13.9,27.1-13.9c4.9,0,11,1.8,18.1,5.4c7.9,4.3,13.8,6.6,17.6,7
      c-1.8,2.6-3.7,6.2-5.7,10.9c-0.5,4.9-1.1,9.8-1.7,14.7c-1.8-2.6-4.4-6-7.7-10.2c-5-5.3-10.8-8-17.6-8c-13,0-19.5,7.8-19.5,23.3
      c0,7,1.9,12.8,5.7,17.4c3.8,4.6,8.4,6.9,13.9,6.9c2.1,0,4.2-0.3,6.2-1c1,4.5,3.9,8.8,8.7,13.1c4,3,7.9,6.1,11.9,9.3
      C699.3,265.3,704.3,277.3,704.3,292.7z"/>
  </g>
</g>
<g>
  <path class="st3" d="M205.6,163.8c-4.8,16.9,15.1,23.2,28.5,22.1c27.3-2.2,24.5-27.1,14-35.2c0,0,1.6,12-10,10.4
    c-10.8-1.6-3.7-13.4-3.7-13.4s48-4.3,126,1.3c61.3,4.3,132.6,26.9,132.6,26.9c31.6-22.8,121.5-21.2,121.5-21.2
    C459.6,86.6,234,124.9,234,124.9c-8-36-91.3-42-100.4,10.4l-3.4-0.5c-16.9-1.5-17.3,5.3-17.3,5.3s-4.1,1.8-4.3,3.4
    c-0.2,1.5-0.5,1.4,0.3,2.6c0.8,1.3,5.6,2,5.6,2c6.3,6.8,14.9,3,21.5,0.9c2,7.5,12.7,7.4,12.7,7.4c2.8,0.7,0.2-5-1.1-8.1
    c43.7,0.8,61-1.3,61-1C208.5,151.3,207.1,158.5,205.6,163.8z M173.5,115.5c3.6-0.3,9.1-0.7,12.6-0.3c10.6,1.1,18.3,6.7,20.7,13.3
    c-0.6-0.9-21.4,1.5-23.7,1.7c-6.6,0.6-13.1,1.5-19.6,2.5c-5.2,0.8-10.9,2.3-16,2.7C147.1,119.7,166.5,116,173.5,115.5z"/>
  <g>
    <path class="st2" d="M207.6,160.3c-4.8,16.9,15.1,23.2,28.5,22.1c27.3-2.2,24.5-27.1,14-35.2c0,0,1.6,12-10,10.4
      c-10.8-1.6-3.7-13.4-3.7-13.4s48-4.3,126,1.3c61.3,4.3,132.6,26.9,132.6,26.9c31.6-22.8,121.5-21.2,121.5-21.2
      C461.6,83.1,236,121.4,236,121.4c-8-36-91.3-42-100.4,10.4l-3.4-0.5c-16.9-1.5-17.3,5.3-17.3,5.3s-4.1,1.8-4.3,3.4
      c-0.2,1.5-0.5,1.4,0.3,2.6c0.8,1.3,5.6,2,5.6,2c6.3,6.8,14.9,3,21.5,0.9c2,7.5,12.7,7.4,12.7,7.4c2.8,0.7,0.2-5-1.1-8.1
      c43.7,0.8,61-1.3,61-1C210.5,147.8,209.1,155,207.6,160.3z M175.5,112c3.6-0.3,9.1-0.7,12.6-0.3c10.6,1.1,18.3,6.7,20.7,13.3
      c-0.6-0.9-21.4,1.5-23.7,1.7c-6.6,0.6-13.1,1.5-19.6,2.5c-5.2,0.8-10.9,2.3-16,2.7C149.1,116.2,168.5,112.5,175.5,112z"/>
    <path class="st4" d="M237.8,129.2c0-3.6-0.6-5.9-0.6-5.9S431.5,91.8,591.6,152c0,0-62.7-1.9-100.9,17.8c0,0-79.3-37.3-253.8-33.4
      C236.9,136.4,237.7,134.5,237.8,129.2z"/>
    <g>
      <path class="st4" d="M205,125.6c-0.2-0.2-0.4-0.3-0.6-0.3c0,0,0,0-0.1,0c-0.7-0.1-1.1,0-1.5,0.2c-1.2,0.8-0.8,3.7-0.3,7.7
        l0.3,2.2l0,0.1c-0.1,0.2-0.2,0.8,0.1,1.1c0,0,0.1,0.1,0.4,0.2c0.1,0,0.2,0,0.4,0c0,0,1.1,0,1.7-0.1
        C206.1,133.9,206.8,127.2,205,125.6z"/>
      <path class="st4" d="M198,125.6c-0.2-0.2-0.4-0.3-0.6-0.3c0,0,0,0-0.1,0c-0.7-0.1-1.1,0-1.5,0.2c-1.2,0.8-0.8,3.7-0.3,7.7
        l0.3,2.2l0,0.1c-0.1,0.2-0.2,0.8,0.2,1.1c0,0,0.1,0.1,0.4,0.2c0.1,0,0.2,0,0.4,0c0,0,1.1,0,1.7-0.1
        C199,133.9,199.8,127.2,198,125.6z"/>
      <path class="st4" d="M190.5,125.8c-0.2-0.2-0.4-0.3-0.6-0.3c0,0,0,0-0.1,0c-0.7-0.1-1.1,0-1.5,0.2c-1.2,0.8-0.8,3.7-0.3,7.7
        l0.3,2.2l0,0.1c-0.1,0.2-0.2,0.8,0.1,1.1c0,0,0.1,0.1,0.4,0.2c0.1,0,0.2,0,0.4,0c0,0,1.1,0,1.7-0.1
        C191.6,134.2,192.4,127.5,190.5,125.8z"/>
      <path class="st4" d="M181.1,126.5c0.3-0.2,0.8-0.3,1.5-0.2c0,0,0,0,0.1,0c0.2,0,0.5,0.1,0.7,0.3c1.8,1.6,1.1,7.8,0.6,10.3
        c-0.6,0-1.7,0-1.7,0c-0.1,0-0.3,0-0.4,0c-0.2,0-0.3-0.1-0.4-0.2c-0.3-0.3-0.2-0.8-0.1-1l0-0.1l-0.3-2.1L181.1,126.5z"/>
      <path class="st4" d="M176.2,127.8c-0.2-0.2-0.4-0.3-0.7-0.3c0,0-0.1,0-0.1,0c-0.7-0.1-1.1,0-1.4,0.2c-1,0.7-0.6,3,0,6.3l0.3,1.9
        l0,0.1c0,0.1-0.1,0.6,0.1,0.8c0.1,0.1,0.2,0.1,0.4,0.2c0.1,0,0.2,0,0.4,0c0,0,1.1,0,1.6,0C177.3,134.6,177.8,129.3,176.2,127.8z"
        />
      <path class="st4" d="M169.2,128.4c-0.2-0.2-0.4-0.3-0.6-0.3c0,0,0,0,0,0c-0.8-0.1-1.1,0.1-1.3,0.2c-0.9,0.6-0.5,2.8,0,5.7
        l0.3,1.7l0,0.1c0,0.1-0.1,0.5,0.1,0.7c0.1,0.1,0.2,0.1,0.4,0.1c0.1,0,0.2,0,0.3,0c0,0,0.9,0,1.4,0
        C170.2,134.5,170.7,129.7,169.2,128.4z"/>
      <path class="st4" d="M163,129.3c-0.2-0.2-0.4-0.2-0.5-0.2c0,0,0,0,0,0l0,0c-0.7-0.1-1,0.1-1.1,0.2c-0.8,0.6-0.4,2.6,0,5.1
        l0.3,1.5l0,0.1c-0.1,0.1-0.1,0.5,0.1,0.6c0.1,0.1,0.2,0.1,0.3,0.1c0.1,0,0.2,0,0.3,0c0,0,0.7,0,1.2,0
        C163.9,134.8,164.3,130.5,163,129.3z"/>
      <path class="st4" d="M156.8,130.5c-0.1-0.1-0.3-0.2-0.4-0.2c0,0,0,0,0,0c-0.5-0.1-0.8,0-0.9,0.1c-0.6,0.5-0.3,2.1,0,4.3l0.2,1.3
        l0,0.1c0,0.1-0.1,0.4,0,0.5c0,0,0.1,0.1,0.2,0.1c0.1,0,0.2,0,0.2,0c0,0,0.6,0,1,0C157.5,135,157.9,131.4,156.8,130.5z"/>
    </g>
    <path class="st4" d="M147.4,145c-7.1-10.6-4.2-28.1,8.9-34.9c14.3-7.5,42.2-10.7,54.7,1.4c3.8,3.6,5.1,9.7,5.8,14.1
      c0.7,3.7,0.2,7.4,0,11c-0.3,4.6-1,9-2.2,13.4c-1.9,6.6-4.9,13.8,1.2,19.9c4.7,4.8,15.6,6.9,23.3,4.3c9.6-3.2,13.1-10.2,11.4-17.6
      c0.4,1.7-6.5,4.3-8.1,4.5c-7.8,1.3-15.1-3.8-15.4-9.1c-0.4-6.4,2.6-11.5,3.4-17.8c1.5-12.1-2.2-25.1-15.3-32.9
      c-16.4-9.8-42.6-8.4-57.4,0.9c-12.8,8.2-19.6,18.8-16.9,36.2C141.7,144,147.4,145,147.4,145z"/>
    <path class="st3" d="M243.5,163.9c-2.1,0.3-4.2,0.4-6.3,0.1c-2.4-0.3-4.8-1.1-7-2.3c-7.8-4.3-7.8-11.8-6.7-17.9
      c2.4-13.7,6.6-30-11-40.4c-15.4-9.2-39.8-7.5-53.1,1.8c4.7-3.3,14.3-4.6,23.3-4.6c31.3-0.1,40,15.5,39.1,31.9
      c-0.3,6.7-1.9,13.7-3.9,20.1c-1.5,5-3.5,11,1.1,15.7c2,2,5.5,3.4,9.3,3.9c3.1,0.4,6.3,0.3,8.9-0.6c5-1.7,8.1-4.7,9.2-8.5
      C244.8,163.6,243.5,163.9,243.5,163.9z"/>
    <path class="st4" d="M131.3,138.6l1.9-1.1c0,0-6.7,1.1-4.2-0.6c1.4-0.9-4.4-5-8.5-2.9c-0.2,0.1,0.2-0.5,0.2-0.5
      c0.3-0.5,1.1-0.9,1.7-1.2c1.5-0.7,3.5-1.3,5.4-0.6c1.7,0.6,2.7,2,4.1,2.9c1.3,0.8,0.8-1.5,0.7-1.8c-1.2-3.4-7.2-4.7-10.8-2.6
      c-1.4,0.8-2.3,2-3.1,3.2c0,0,0,0,0.1,0c-0.5,0.8-0.9,1.8-1.3,3C117.4,136.3,121.8,142.5,131.3,138.6z"/>
    <path class="st3" d="M238.8,129.2c0,0,4.5-2.1,11.5-2.5c38.8-2.4,165.6-7.8,236.3,17.2c0,0-115.2-22.2-236.2-13.7
      C247.4,130.4,238.8,129.2,238.8,129.2z"/>
  </g>
</g>
</svg>
